ENDFONT
CHARS 6752
STARTCHAR U_1103
ENCODING 4355
SWIDTH 1000 0
DWIDTH 12 0
BBX 11 11 2 -1
BITMAP
0000
FF00
8000
8000
8000
8000
FF00
0000
0000
0000
0000
ENDCHAR
STARTCHAR U_2235
ENCODING 8757
SWIDTH 1000 0
DWIDTH 12 0
BBX 10 8 2 0
BITMAP
C0C0
C0C0
0000
0000
0000
0000
0C00
0C00
ENDCHAR
STARTCHAR U_2236
ENCODING 8758
SWIDTH 1000 0
DWIDTH 12 0
BBX 2 7 5 1
BITMAP
C0
C0
00
00
00
C0
C0
ENDCHAR
STARTCHAR U_2237
ENCODING 8759
SWIDTH 1000 0
DWIDTH 12 0
BBX 7 7 2 1
BITMAP
C6
C6
00
00
00
C6
C6
ENDCHAR
STARTCHAR U_2248
ENCODING 8776
SWIDTH 1000 0
DWIDTH 12 0
BBX 11 11 0 -1
BITMAP
0000
0000
0000
7800
8420
03C0
7800
8420
03C0
0000
0000
ENDCHAR
STARTCHAR U_224C
ENCODING 8780
SWIDTH 1000 0
DWIDTH 12 0
BBX 13 10 1 0
BITMAP
20E0
4110
8208
4410
3820
0000
FFF8
0000
0000
FFF8
ENDCHAR
STARTCHAR U_2252
ENCODING 8786
SWIDTH 1000 0
DWIDTH 12 0
BBX 12 9 2 0
BITMAP
C000
C000
0000
FFF0
0000
FFF0
0000
0030
0030
ENDCHAR
STARTCHAR U_2288
ENCODING 8840
SWIDTH 1000 0
DWIDTH 12 0
BBX 11 11 1 -1
BITMAP
0200
3F80
4200
8400
8400
8400
4800
3F80
0800
FF80
1000
ENDCHAR
STARTCHAR U_22DF
ENCODING 8927
SWIDTH 1000 0
DWIDTH 12 0
BBX 11 11 0 -1
BITMAP
2000
1000
8C00
4300
30E0
0C00
03E0
0C00
3000
4000
8000
ENDCHAR
STARTCHAR U_2468
ENCODING 9320
SWIDTH 1000 0
DWIDTH 12 0
BBX 11 11 0 -1
BITMAP
1F00
2080
4E40
9120
9120
8F20
8120
9120
4E40
2080
1F00
ENDCHAR
STARTCHAR U_246C
ENCODING 9324
SWIDTH 1000 0
DWIDTH 12 0
BBX 11 11 0 -1
BITMAP
1F00
2080
5340
94A0
90A0
9320
90A0
94A0
5340
2080
1F00
ENDCHAR
STARTCHAR U_246D
ENCODING 9325
SWIDTH 1000 0
DWIDTH 12 0
BBX 11 11 0 -1
BITMAP
1F00
2080
4040
9120
9320
9520
97A0
9120
5140
2080
1F00
ENDCHAR
STARTCHAR U_246E
ENCODING 9326
SWIDTH 1000 0
DWIDTH 12 0
BBX 11 11 0 -1
BITMAP
1F00
2080
57C0
9420
9420
9720
90A0
94A0
5340
2080
1F00
ENDCHAR
STARTCHAR U_249C
ENCODING 9372
SWIDTH 1000 0
DWIDTH 12 0
BBX 11 11 0 -1
BITMAP
0000
2080
4E40
5140
8320
8D20
9120
9320
4D40
4040
2080
ENDCHAR
STARTCHAR U_24A8
ENCODING 9384
SWIDTH 1000 0
DWIDTH 12 0
BBX 11 11 0 -1
BITMAP
0000
2080
4040
4A40
9520
9520
9520
9520
4040
4040
2080
ENDCHAR
STARTCHAR U_24B2
ENCODING 9394
SWIDTH 1000 0
DWIDTH 12 0
BBX 11 11 0 -1
BITMAP
0000
2080
4040
4040
A4A0
A4A0
9520
9520
4A40
4040
2080
ENDCHAR
STARTCHAR U_24B6
ENCODING 9398
SWIDTH 1000 0
DWIDTH 12 0
BBX 11 11 0 -1
BITMAP
0E00
3180
4440
4A40
9120
9F20
9120
5140
4040
3180
0E00
ENDCHAR
STARTCHAR U_24B7
ENCODING 9399
SWIDTH 1000 0
DWIDTH 12 0
BBX 11 11 0 -1
BITMAP
0E00
3180
4E40
4940
8920
8E20
8920
4940
4E40
3180
0E00
ENDCHAR
STARTCHAR U_24BC
ENCODING 9404
SWIDTH 1000 0
DWIDTH 12 0
BBX 11 11 0 -1
BITMAP
0E00
3180
4E40
5140
9020
9720
9120
5140
4E40
3180
0E00
ENDCHAR
STARTCHAR U_24C0
ENCODING 9408
SWIDTH 1000 0
DWIDTH 12 0
BBX 11 11 0 -1
BITMAP
0E00
3180
4040
5240
9420
9820
9420
5240
4040
3180
0E00
ENDCHAR
STARTCHAR U_24C2
ENCODING 9410
SWIDTH 1000 0
DWIDTH 12 0
BBX 11 11 0 -1
BITMAP
0E00
3180
5140
5B40
9520
9520
9520
5540
4040
3180
0E00
ENDCHAR
STARTCHAR U_24C4
ENCODING 9412
SWIDTH 1000 0
DWIDTH 12 0
BBX 11 11 0 -1
BITMAP
0E00
3180
4E40
5140
A0A0
A0A0
A0A0
5140
4E40
3180
0E00
ENDCHAR
STARTCHAR U_24C6
ENCODING 9414
SWIDTH 1000 0
DWIDTH 12 0
BBX 11 11 0 -1
BITMAP
0E00
3180
4E40
5140
9120
9520
9220
4D40
4040
3180
0E00
ENDCHAR
STARTCHAR U_24C8
ENCODING 9416
SWIDTH 1000 0
DWIDTH 12 0
BBX 11 11 0 -1
BITMAP
0E00
3180
4E40
5140
9020
8E20
8120
5140
4E40
3180
0E00
ENDCHAR
STARTCHAR U_24CC
ENCODING 9420
SWIDTH 1000 0
DWIDTH 12 0
BBX 11 11 0 -1
BITMAP
0E00
3180
4040
5540
9520
9520
9520
4A40
4A40
3180
0E00
ENDCHAR
STARTCHAR U_24D0
ENCODING 9424
SWIDTH 1000 0
DWIDTH 12 0
BBX 11 11 0 -1
BITMAP
0E00
3180
4040
4E40
9120
8F20
9120
4F40
4040
3180
0E00
ENDCHAR
STARTCHAR U_24D6
ENCODING 9430
SWIDTH 1000 0
DWIDTH 12 0
BBX 11 11 0 -1
BITMAP
0E00
3180
4040
4E40
9120
8F20
8120
5140
4E40
3180
0E00
ENDCHAR
STARTCHAR U_24EF
ENCODING 9455
SWIDTH 1000 0
DWIDTH 12 0
BBX 11 11 0 -1
BITMAP
1F00
3F80
6840
EBE0
EBE0
E8E0
EF60
EB60
6CC0
3F80
1F00
ENDCHAR
STARTCHAR U_24F0
ENCODING 9456
SWIDTH 1000 0
DWIDTH 12 0
BBX 11 11 0 -1
BITMAP
1F00
3F80
6CC0
EB60
EBE0
E8E0
EB60
EB60
6CC0
3F80
1F00
ENDCHAR
STARTCHAR U_2500
ENCODING 9472
SWIDTH 1000 0
DWIDTH 12 0
BBX 11 11 0 -1
BITMAP
0000
0000
0000
0000
0000
FFE0
0000
0000
0000
0000
0000
ENDCHAR
STARTCHAR U_25E7
ENCODING 9703
SWIDTH 1000 0
DWIDTH 12 0
BBX 11 11 0 -1
BITMAP
FFE0
FC20
FC20
FC20
FC20
FC20
FC20
FC20
FC20
FC20
FFE0
ENDCHAR
STARTCHAR U_2602
ENCODING 9730
SWIDTH 1000 0
DWIDTH 12 0
BBX 11 11 0 -1
BITMAP
0E00
3F80
7FC0
FFE0
FFE0
0400
0400
0400
0400
0500
0600
ENDCHAR
STARTCHAR U_2607
ENCODING 9735
SWIDTH 1000 0
DWIDTH 12 0
BBX 11 11 2 -1
BITMAP
0400
0800
1000
2000
4000
8000
4000
2000
1400
0C00
1C00
ENDCHAR
STARTCHAR U_2629
ENCODING 9769
SWIDTH 1000 0
DWIDTH 12 0
BBX 11 11 0 -1
BITMAP
0E00
0400
0400
0400
8420
FFE0
8420
0400
0400
0400
0E00
ENDCHAR
STARTCHAR U_263B
ENCODING 9787
SWIDTH 1000 0
DWIDTH 12 0
BBX 11 11 0 -1
BITMAP
1F00
3F80
7FC0
EEE0
FFE0
FFE0
FFE0
EEE0
71C0
3F80
1F00
ENDCHAR
STARTCHAR U_266D
ENCODING 9837
SWIDTH 1000 0
DWIDTH 12 0
BBX 11 11 0 -1
BITMAP
8000
8000
8000
8000
B000
C800
8400
8400
8800
9000
E000
ENDCHAR
STARTCHAR U_2E80
ENCODING 11904
SWIDTH 1000 0
DWIDTH 12 0
BBX 11 11 2 -1
BITMAP
0000
0000
6000
1800
0400
C000
3000
0800
0400
0000
0000
ENDCHAR
STARTCHAR U_2E81
ENCODING 11905
SWIDTH 1000 0
DWIDTH 12 0
BBX 11 11 0 -1
BITMAP
01E0
3E00
2000
2000
2000
2000
2000
2000
4000
4000
8000
ENDCHAR
STARTCHAR U_2E82
ENCODING 11906
SWIDTH 1000 0
DWIDTH 12 0
BBX 11 11 1 -1
BITMAP
0000
0000
0000
FF80
0080
0080
0100
0100
0000
0000
0000
ENDCHAR
STARTCHAR U_2E83
ENCODING 11907
SWIDTH 1000 0
DWIDTH 12 0
BBX 11 11 2 -1
BITMAP
8000
8000
8000
8000
8000
8000
8000
8000
8200
8200
7E00
ENDCHAR
STARTCHAR U_2E84
ENCODING 11908
SWIDTH 1000 0
DWIDTH 12 0
BBX 11 11 0 -1
BITMAP
0000
FF00
0100
0100
0100
0100
0100
0120
00A0
00A0
0060
ENDCHAR
STARTCHAR U_2E85
ENCODING 11909
SWIDTH 1000 0
DWIDTH 12 0
BBX 11 11 0 -1
BITMAP
1000
1000
1000
2000
6000
A000
2000
2000
2000
2000
2000
ENDCHAR
STARTCHAR U_2E86
ENCODING 11910
SWIDTH 1000 0
DWIDTH 12 0
BBX 11 11 1 -1
BITMAP
0000
3F00
2100
2100
2100
2100
2100
2100
4100
4100
8700
ENDCHAR
STARTCHAR U_2E87
ENCODING 11911
SWIDTH 1000 0
DWIDTH 12 0
BBX 11 11 0 -1
BITMAP
0000
3F80
2080
2080
2080
2080
2080
20A0
40A0
4060
8020
ENDCHAR
STARTCHAR U_2E88
ENCODING 11912
SWIDTH 1000 0
DWIDTH 12 0
BBX 11 11 1 -1
BITMAP
1000
1000
3F00
2200
4400
8000
0000
0000
0000
0000
0000
ENDCHAR
STARTCHAR U_2E89
ENCODING 11913
SWIDTH 1000 0
DWIDTH 12 0
BBX 11 11 4 -1
BITMAP
1000
1000
9000
9000
9000
9000
9000
9000
9000
1000
3000
ENDCHAR
STARTCHAR U_2E8A
ENCODING 11914
SWIDTH 1000 0
DWIDTH 12 0
BBX 11 11 4 -1
BITMAP
8000
8000
8000
8000
8000
F800
8000
8000
8000
8000
8000
ENDCHAR
STARTCHAR U_2E8B
ENCODING 11915
SWIDTH 1000 0
DWIDTH 12 0
BBX 11 11 2 -1
BITMAP
0000
0000
0000
0000
FE00
8200
8200
8E00
8080
8080
7F80
ENDCHAR
STARTCHAR U_2E8C
ENCODING 11916
SWIDTH 1000 0
DWIDTH 12 0
BBX 11 11 1 -1
BITMAP
0800
8880
4900
0800
0000
0000
0000
0000
0000
0000
0000
ENDCHAR
STARTCHAR U_2E8D
ENCODING 11917
SWIDTH 1000 0
DWIDTH 12 0
BBX 11 11 1 -1
BITMAP
0080
9080
4900
4A00
0000
0000
0000
0000
0000
0000
0000
ENDCHAR
STARTCHAR U_2E8E
ENCODING 11918
SWIDTH 1000 0
DWIDTH 12 0
BBX 11 11 0 -1
BITMAP
0000
0000
FFE0
1200
1200
1200
1200
2200
2220
4220
81E0
ENDCHAR
STARTCHAR U_2E8F
ENCODING 11919
SWIDTH 1000 0
DWIDTH 12 0
BBX 11 11 0 -1
BITMAP
1200
2100
40C0
8040
1200
1200
1200
1200
2220
4220
81E0
ENDCHAR
STARTCHAR U_2E90
ENCODING 11920
SWIDTH 1000 0
DWIDTH 12 0
BBX 11 11 0 -1
BITMAP
0800
0800
0800
FFE0
0A00
0A00
0A00
1200
1220
2220
C1E0
ENDCHAR
STARTCHAR U_2E91
ENCODING 11921
SWIDTH 1000 0
DWIDTH 12 0
BBX 11 11 0 -1
BITMAP
1100
2080
4040
8040
1E00
1200
1200
1200
2220
4220
81E0
ENDCHAR
STARTCHAR U_2E92
ENCODING 11922
SWIDTH 1000 0
DWIDTH 12 0
BBX 11 11 2 -1
BITMAP
0000
0000
FE00
8200
8200
FE00
8000
8000
8080
8080
7F80
ENDCHAR
STARTCHAR U_2E93
ENCODING 11923
SWIDTH 1000 0
DWIDTH 12 0
BBX 11 11 1 -1
BITMAP
0800
1000
2100
4200
FC00
0800
1000
2200
4100
FF80
0080
ENDCHAR
STARTCHAR U_2E94
ENCODING 11924
SWIDTH 1000 0
DWIDTH 12 0
BBX 11 11 1 -1
BITMAP
0000
1000
1000
1F00
2100
2100
2100
7E00
0200
0200
FF80
ENDCHAR
STARTCHAR U_2E95
ENCODING 11925
SWIDTH 1000 0
DWIDTH 12 0
BBX 11 11 0 -1
BITMAP
0000
FFC0
0040
0040
0040
7FC0
0040
0040
0040
FFC0
0040
ENDCHAR
STARTCHAR U_2E96
ENCODING 11926
SWIDTH 1000 0
DWIDTH 12 0
BBX 11 11 0 -1
BITMAP
1000
1000
1000
5800
5400
9000
1000
1000
1000
1000
1000
ENDCHAR
STARTCHAR U_2E97
ENCODING 11927
SWIDTH 1000 0
DWIDTH 12 0
BBX 11 11 1 -1
BITMAP
0000
0000
0000
0000
0000
0800
4A80
4940
8940
0800
1800
ENDCHAR
STARTCHAR U_2E98
ENCODING 11928
SWIDTH 1000 0
DWIDTH 12 0
BBX 11 11 0 -1
BITMAP
2000
2000
F800
2000
2000
3800
E000
2000
2000
2000
6000
ENDCHAR
STARTCHAR U_2E99
ENCODING 11929
SWIDTH 1000 0
DWIDTH 12 0
BBX 11 11 1 -1
BITMAP
1000
1000
3FC0
2100
6100
9200
1200
0C00
0C00
1200
E1C0
ENDCHAR
STARTCHAR U_2E9B
ENCODING 11931
SWIDTH 1000 0
DWIDTH 12 0
BBX 11 11 0 -1
BITMAP
FFE0
0400
4400
8400
8400
FFE0
0400
0A00
1220
2220
C3E0
ENDCHAR
STARTCHAR U_2E9C
ENCODING 11932
SWIDTH 1000 0
DWIDTH 12 0
BBX 11 11 0 -1
BITMAP
FFE0
8020
BFA0
8020
BFA0
8020
0000
0000
0000
0000
0000
ENDCHAR
STARTCHAR U_2E9D
ENCODING 11933
SWIDTH 1000 0
DWIDTH 12 0
BBX 11 11 2 -1
BITMAP
FC00
8400
8400
FC00
8400
8400
FC00
8400
8400
8400
8C00
ENDCHAR
STARTCHAR U_2E9E
ENCODING 11934
SWIDTH 1000 0
DWIDTH 12 0
BBX 11 11 0 -1
BITMAP
0400
17E0
1400
1FC0
2040
5040
8880
0680
0100
0600
F800
ENDCHAR
STARTCHAR U_2E9F
ENCODING 11935
SWIDTH 1000 0
DWIDTH 12 0
BBX 11 11 0 -1
BITMAP
3F80
2880
2480
2080
FFE0
2880
2480
2080
7FE0
0080
0300
ENDCHAR
STARTCHAR U_2EA0
ENCODING 11936
SWIDTH 1000 0
DWIDTH 12 0
BBX 11 11 1 -1
BITMAP
0000
FF00
8100
8100
FF00
8400
FF80
8400
8200
A140
C080
ENDCHAR
STARTCHAR U_2EA1
ENCODING 11937
SWIDTH 1000 0
DWIDTH 12 0
BBX 11 11 3 -1
BITMAP
8000
4000
2000
8000
4000
2000
0000
1000
2000
4000
8000
ENDCHAR
STARTCHAR U_2EA2
ENCODING 11938
SWIDTH 1000 0
DWIDTH 12 0
BBX 11 11 0 -1
BITMAP
0400
4440
2480
1500
0400
0600
1500
2480
4440
8420
0C00
ENDCHAR
STARTCHAR U_2EA3
ENCODING 11939
SWIDTH 1000 0
DWIDTH 12 0
BBX 11 11 0 -1
BITMAP
0000
0000
0000
0000
0000
5240
8920
0000
0000
0000
0000
ENDCHAR
STARTCHAR U_2EA4
ENCODING 11940
SWIDTH 1000 0
DWIDTH 12 0
BBX 11 11 1 -1
BITMAP
03C0
FC80
4880
2500
0000
0000
0000
0000
0000
0000
0000
ENDCHAR
STARTCHAR U_2EA5
ENCODING 11941
SWIDTH 1000 0
DWIDTH 12 0
BBX 11 11 1 -1
BITMAP
0780
7900
4900
4900
8880
8040
0000
0000
0000
0000
0000
ENDCHAR
STARTCHAR U_2EA6
ENCODING 11942
SWIDTH 1000 0
DWIDTH 12 0
BBX 11 11 2 -1
BITMAP
0800
4800
4800
2800
2800
0800
1800
2800
C800
0800
0800
ENDCHAR
STARTCHAR U_2EA7
ENCODING 11943
SWIDTH 1000 0
DWIDTH 12 0
BBX 11 11 0 -1
BITMAP
2400
7FC0
8400
7FE0
0000
0000
0000
0000
0000
0000
0000
ENDCHAR
STARTCHAR U_2EA8
ENCODING 11944
SWIDTH 1000 0
DWIDTH 12 0
BBX 11 11 2 -1
BITMAP
5000
2000
5000
8800
1800
2800
4800
0800
0800
4800
3000
ENDCHAR
STARTCHAR U_2EA9
ENCODING 11945
SWIDTH 1000 0
DWIDTH 12 0
BBX 11 11 3 -1
BITMAP
F800
2000
2000
2000
F800
2000
2000
2000
2800
3000
C000
ENDCHAR
STARTCHAR U_2EAA
ENCODING 11946
SWIDTH 1000 0
DWIDTH 12 0
BBX 11 11 0 -1
BITMAP
0000
F800
1000
2000
A000
B000
A000
A000
B000
C000
0000
ENDCHAR
STARTCHAR U_2EAB
ENCODING 11947
SWIDTH 1000 0
DWIDTH 12 0
BBX 11 11 0 -1
BITMAP
0000
0000
0000
FFE0
9120
9120
9120
FFE0
0000
0000
0000
ENDCHAR
STARTCHAR U_2EAC
ENCODING 11948
SWIDTH 1000 0
DWIDTH 6 0
BBX 6 12 0 -1
BITMAP
7C
00
FC
10
54
54
54
54
54
94
10
00
ENDCHAR
STARTCHAR U_2EAD
ENCODING 11949
SWIDTH 1000 0
DWIDTH 12 0
BBX 11 11 3 -1
BITMAP
4000
2000
F800
0800
1000
3000
6800
A800
2000
2000
2000
ENDCHAR
STARTCHAR U_2EAE
ENCODING 11950
SWIDTH 1000 0
DWIDTH 12 0
BBX 11 11 0 -1
BITMAP
4100
4100
7DE0
5140
4940
8A20
0000
0000
0000
0000
0000
ENDCHAR
STARTCHAR U_2EAF
ENCODING 11951
SWIDTH 1000 0
DWIDTH 12 0
BBX 11 11 0 -1
BITMAP
2000
2000
4800
F000
2000
4800
F800
0000
5000
A800
A800
ENDCHAR
STARTCHAR U_2EB0
ENCODING 11952
SWIDTH 1000 0
DWIDTH 12 0
BBX 11 11 0 -1
BITMAP
1000
1000
2000
4800
F000
2000
4800
F000
0000
1800
E000
ENDCHAR
STARTCHAR U_2EB1
ENCODING 11953
SWIDTH 1000 0
DWIDTH 12 0
BBX 11 11 0 -1
BITMAP
0000
FFE0
90A0
8920
8620
B9A0
0000
0000
0000
0000
0000
ENDCHAR
STARTCHAR U_2EB2
ENCODING 11954
SWIDTH 1000 0
DWIDTH 12 0
BBX 11 11 0 -1
BITMAP
0000
0000
FFE0
9120
9120
9120
FFE0
8020
0000
0000
0000
ENDCHAR
STARTCHAR U_2EB3
ENCODING 11955
SWIDTH 1000 0
DWIDTH 12 0
BBX 11 11 0 -1
BITMAP
0000
FFE0
8020
9120
2080
C040
0000
0000
0000
0000
0000
ENDCHAR
STARTCHAR U_2EB4
ENCODING 11956
SWIDTH 1000 0
DWIDTH 12 0
BBX 11 11 0 -1
BITMAP
7FE0
5120
9140
1100
1100
1100
1100
2100
2120
4120
80E0
ENDCHAR
STARTCHAR U_2EB5
ENCODING 11957
SWIDTH 1000 0
DWIDTH 12 0
BBX 11 11 0 -1
BITMAP
0000
FFE0
9120
9120
9120
9120
9120
9120
9120
8020
0000
ENDCHAR
STARTCHAR U_2EB6
ENCODING 11958
SWIDTH 1000 0
DWIDTH 12 0
BBX 11 11 0 -1
BITMAP
2040
1080
FFE0
0400
7FC0
0400
FFE0
0800
1000
2000
C000
ENDCHAR
STARTCHAR U_2EB7
ENCODING 11959
SWIDTH 1000 0
DWIDTH 12 0
BBX 11 11 1 -1
BITMAP
0000
2200
1400
1400
7F00
0800
3E00
0800
FF80
0000
0000
ENDCHAR
STARTCHAR U_2EB8
ENCODING 11960
SWIDTH 1000 0
DWIDTH 12 0
BBX 11 11 0 -1
BITMAP
1100
1100
F1E0
1100
1100
FFE0
0400
7FC0
0400
0400
0400
ENDCHAR
STARTCHAR U_2EB9
ENCODING 11961
SWIDTH 1000 0
DWIDTH 12 0
BBX 11 11 0 -1
BITMAP
0800
0840
7F80
0900
0A00
FFE0
0800
1000
2000
C000
0000
ENDCHAR
STARTCHAR U_2EBA
ENCODING 11962
SWIDTH 1000 0
DWIDTH 12 0
BBX 11 11 0 -1
BITMAP
0400
0400
3F80
0480
FFE0
0480
3F80
0400
0400
0400
0400
ENDCHAR
STARTCHAR U_2EBB
ENCODING 11963
SWIDTH 1000 0
DWIDTH 12 0
BBX 11 11 0 -1
BITMAP
0400
7FC0
0440
FFE0
0440
7FC0
0400
FFE0
0000
0000
0000
ENDCHAR
STARTCHAR U_2EBC
ENCODING 11964
SWIDTH 1000 0
DWIDTH 12 0
BBX 11 11 1 -1
BITMAP
0000
3F00
2100
2900
2500
2100
2300
2500
5900
4100
8300
ENDCHAR
STARTCHAR U_2EBD
ENCODING 11965
SWIDTH 1000 0
DWIDTH 12 0
BBX 11 11 1 -1
BITMAP
1000
2780
C080
8080
8080
F780
8080
8080
8080
F780
8080
ENDCHAR
STARTCHAR U_2EBF
ENCODING 11967
SWIDTH 1000 0
DWIDTH 12 0
BBX 11 11 0 -1
BITMAP
2080
2080
FBE0
2080
0000
0000
0000
0000
0000
0000
0000
ENDCHAR
STARTCHAR U_2EC4
ENCODING 11972
SWIDTH 1000 0
DWIDTH 12 0
BBX 11 11 0 -1
BITMAP
0000
FFE0
0A00
7FC0
4A40
4A40
5240
52C0
6340
4040
7FC0
ENDCHAR
STARTCHAR U_2EC7
ENCODING 11975
SWIDTH 1000 0
DWIDTH 12 0
BBX 11 11 1 -1
BITMAP
2000
3F00
4100
7F80
C880
5480
6A80
4880
5480
6280
4180
ENDCHAR
STARTCHAR U_2ECA
ENCODING 11978
SWIDTH 1000 0
DWIDTH 12 0
BBX 11 11 0 -1
BITMAP
7C00
4400
4400
7C00
1000
5C00
5000
5000
5000
5C00
E000
ENDCHAR
STARTCHAR U_2ECD
ENCODING 11981
SWIDTH 1000 0
DWIDTH 12 0
BBX 11 11 0 -1
BITMAP
4000
2000
8000
4000
0000
E000
2000
2000
2000
5000
8FE0
ENDCHAR
STARTCHAR U_2ECE
ENCODING 11982
SWIDTH 1000 0
DWIDTH 12 0
BBX 11 11 0 -1
BITMAP
4000
2000
0000
E000
2000
4000
E000
2000
2000
5000
8FE0
ENDCHAR
STARTCHAR U_2ECF
ENCODING 11983
SWIDTH 1000 0
DWIDTH 12 0
BBX 11 11 7 -1
BITMAP
F000
9000
A000
C000
A000
9000
9000
D000
A000
8000
8000
ENDCHAR
STARTCHAR U_2ED6
ENCODING 11990
SWIDTH 1000 0
DWIDTH 12 0
BBX 11 11 0 -1
BITMAP
F000
9000
A000
C000
A000
9000
9000
9000
E000
8000
8000
ENDCHAR
STARTCHAR U_2ED7
ENCODING 11991
SWIDTH 1000 0
DWIDTH 12 0
BBX 11 11 0 -1
BITMAP
7FC0
0400
FFE0
A4A0
9520
64C0
0000
0000
0000
0000
0000
ENDCHAR
STARTCHAR U_2ED8
ENCODING 11992
SWIDTH 1000 0
DWIDTH 12 0
BBX 11 11 0 -1
BITMAP
0400
7FC0
0400
7FC0
0400
FFE0
2080
3F80
2080
3F80
2080
ENDCHAR
STARTCHAR U_2ED9
ENCODING 11993
SWIDTH 1000 0
DWIDTH 12 0
BBX 11 11 1 -1
BITMAP
0800
FFC0
0800
7F80
0800
0800
FFC0
0840
0840
0980
0800
ENDCHAR
STARTCHAR U_2EE3
ENCODING 12003
SWIDTH 1000 0
DWIDTH 12 0
BBX 11 11 0 -1
BITMAP
3F80
2080
3C80
2480
FFE0
A0A0
BFA0
2080
3F80
2080
2380
ENDCHAR
STARTCHAR U_2EF1
ENCODING 12017
SWIDTH 1000 0
DWIDTH 12 0
BBX 11 11 0 -1
BITMAP
1000
7F80
4080
7BC0
2AC0
FB40
2AC0
FB40
2BC0
EA20
07C0
ENDCHAR
STARTCHAR U_3105
ENCODING 12549
SWIDTH 1000 0
DWIDTH 12 0
BBX 11 11 1 -1
BITMAP
0000
1000
2000
4F00
F080
0080
0100
0100
1200
0C00
0000
ENDCHAR
STARTCHAR U_31C0
ENCODING 12736
SWIDTH 1000 0
DWIDTH 12 0
BBX 11 11 1 -1
BITMAP
0000
0000
0000
0000
0700
1C00
E000
0000
0000
0000
0000
ENDCHAR
STARTCHAR U_31C1
ENCODING 12737
SWIDTH 1000 0
DWIDTH 12 0
BBX 11 11 4 -1
BITMAP
8000
4000
2000
2000
2000
2000
2000
2000
2000
A000
4000
ENDCHAR
STARTCHAR U_31C2
ENCODING 12738
SWIDTH 1000 0
DWIDTH 12 0
BBX 11 11 1 -1
BITMAP
8000
8000
4000
4000
2000
2000
1000
1000
0800
0500
0200
ENDCHAR
STARTCHAR U_31C3
ENCODING 12739
SWIDTH 1000 0
DWIDTH 12 0
BBX 11 11 0 -1
BITMAP
0000
0000
0000
8000
4000
2040
1840
07C0
0000
0000
0000
ENDCHAR
STARTCHAR U_31C4
ENCODING 12740
SWIDTH 1000 0
DWIDTH 12 0
BBX 11 11 2 -1
BITMAP
0000
8000
8000
8000
8000
8000
8000
8000
8000
FC00
0000
ENDCHAR
STARTCHAR U_31C5
ENCODING 12741
SWIDTH 1000 0
DWIDTH 12 0
BBX 11 11 2 -1
BITMAP
0000
F000
1000
1000
1000
1000
1000
1000
1000
1E00
0000
ENDCHAR
STARTCHAR U_31C6
ENCODING 12742
SWIDTH 1000 0
DWIDTH 12 0
BBX 11 11 1 -1
BITMAP
0000
FF00
0100
0100
0100
0100
0100
0100
0100
0500
0200
ENDCHAR
STARTCHAR U_31C7
ENCODING 12743
SWIDTH 1000 0
DWIDTH 12 0
BBX 11 11 2 -1
BITMAP
0000
FE00
0200
0200
0200
0400
0400
0800
0800
1000
2000
ENDCHAR
STARTCHAR U_31C8
ENCODING 12744
SWIDTH 1000 0
DWIDTH 12 0
BBX 11 11 0 -1
BITMAP
0000
F800
0800
0800
0800
0800
0800
0800
0880
0880
0780
ENDCHAR
STARTCHAR U_31C9
ENCODING 12745
SWIDTH 1000 0
DWIDTH 12 0
BBX 11 11 1 -1
BITMAP
8000
8000
8000
8000
8000
FF80
0080
0080
0100
0500
0200
ENDCHAR
STARTCHAR U_31CA
ENCODING 12746
SWIDTH 1000 0
DWIDTH 12 0
BBX 11 11 1 -1
BITMAP
0000
0000
F000
1000
1000
1000
1000
1400
1800
1000
0000
ENDCHAR
STARTCHAR U_31CB
ENCODING 12747
SWIDTH 1000 0
DWIDTH 12 0
BBX 11 11 1 -1
BITMAP
0000
FE00
0400
0800
0F00
0100
0100
0200
0200
0400
1800
ENDCHAR
STARTCHAR U_31CC
ENCODING 12748
SWIDTH 1000 0
DWIDTH 12 0
BBX 11 11 3 -1
BITMAP
0000
F800
0800
1000
2000
1000
0800
0800
0800
0800
3000
ENDCHAR
STARTCHAR U_31CD
ENCODING 12749
SWIDTH 1000 0
DWIDTH 12 0
BBX 11 11 1 -1
BITMAP
0000
0000
F800
0800
0800
0800
0800
0780
0000
0000
0000
ENDCHAR
STARTCHAR U_31CE
ENCODING 12750
SWIDTH 1000 0
DWIDTH 12 0
BBX 11 11 1 -1
BITMAP
0000
F800
0800
0800
0800
0F00
0100
0100
0100
0100
0100
ENDCHAR
STARTCHAR U_31CF
ENCODING 12751
SWIDTH 1000 0
DWIDTH 12 0
BBX 11 11 2 -1
BITMAP
8000
8000
4000
4000
2000
2000
1000
1000
0800
0700
0200
ENDCHAR
STARTCHAR U_31D0
ENCODING 12752
SWIDTH 1000 0
DWIDTH 12 0
BBX 11 11 1 -1
BITMAP
0000
0000
0000
0000
FF80
0000
0000
0000
0000
0000
0000
ENDCHAR
STARTCHAR U_31D1
ENCODING 12753
SWIDTH 1000 0
DWIDTH 12 0
BBX 11 11 5 -1
BITMAP
8000
8000
8000
8000
8000
8000
8000
8000
8000
8000
8000
ENDCHAR
STARTCHAR U_31D2
ENCODING 12754
SWIDTH 1000 0
DWIDTH 12 0
BBX 11 11 1 -1
BITMAP
0000
0100
0100
0200
0400
0800
1000
E000
0000
0000
0000
ENDCHAR
STARTCHAR U_31D3
ENCODING 12755
SWIDTH 1000 0
DWIDTH 12 0
BBX 11 11 2 -1
BITMAP
1000
1000
1000
1000
1000
1000
1000
2000
2000
4000
8000
ENDCHAR
STARTCHAR U_31D4
ENCODING 12756
SWIDTH 1000 0
DWIDTH 12 0
BBX 11 11 3 -1
BITMAP
0000
0000
8000
4000
2000
1000
1000
0000
0000
0000
0000
ENDCHAR
STARTCHAR U_31D5
ENCODING 12757
SWIDTH 1000 0
DWIDTH 12 0
BBX 11 11 2 -1
BITMAP
0000
0000
FE00
0200
0200
0200
0200
0200
0200
0000
0000
ENDCHAR
STARTCHAR U_31D6
ENCODING 12758
SWIDTH 1000 0
DWIDTH 12 0
BBX 11 11 0 -1
BITMAP
0000
0000
0000
FFE0
0040
0080
0000
0000
0000
0000
0000
ENDCHAR
STARTCHAR U_31D7
ENCODING 12759
SWIDTH 1000 0
DWIDTH 12 0
BBX 11 11 2 -1
BITMAP
0000
8000
8000
8000
8000
8000
8000
8000
FE00
0000
0000
ENDCHAR
STARTCHAR U_31D8
ENCODING 12760
SWIDTH 1000 0
DWIDTH 12 0
BBX 11 11 1 -1
BITMAP
0000
0100
0100
0100
0100
0100
0100
0100
FF00
0000
0000
ENDCHAR
STARTCHAR U_31D9
ENCODING 12761
SWIDTH 1000 0
DWIDTH 12 0
BBX 11 11 4 -1
BITMAP
8000
8000
8000
8000
8000
8000
8000
A000
C000
8000
0000
ENDCHAR
STARTCHAR U_31DA
ENCODING 12762
SWIDTH 1000 0
DWIDTH 12 0
BBX 11 11 4 -1
BITMAP
2000
2000
2000
2000
2000
2000
2000
2000
2000
A000
4000
ENDCHAR
STARTCHAR U_31DB
ENCODING 12763
SWIDTH 1000 0
DWIDTH 12 0
BBX 11 11 3 -1
BITMAP
0000
1000
1000
2000
4000
8000
4000
2000
1000
1000
0000
ENDCHAR
STARTCHAR U_31DC
ENCODING 12764
SWIDTH 1000 0
DWIDTH 12 0
BBX 11 11 1 -1
BITMAP
0000
0800
0800
1000
1000
2000
4000
FF80
0000
0000
0000
ENDCHAR
STARTCHAR U_31DD
ENCODING 12765
SWIDTH 1000 0
DWIDTH 12 0
BBX 11 11 0 -1
BITMAP
0000
2000
2000
5000
9000
0800
0400
0200
0100
0080
0060
ENDCHAR
STARTCHAR U_31DE
ENCODING 12766
SWIDTH 1000 0
DWIDTH 12 0
BBX 11 11 2 -1
BITMAP
0000
8000
8000
8000
8000
FE00
0200
0200
0200
0200
0000
ENDCHAR
STARTCHAR U_31DF
ENCODING 12767
SWIDTH 1000 0
DWIDTH 12 0
BBX 11 11 3 -1
BITMAP
8000
8000
8000
8000
8000
8000
8000
8000
8400
8400
7C00
ENDCHAR
STARTCHAR U_31E0
ENCODING 12768
SWIDTH 1000 0
DWIDTH 12 0
BBX 11 11 0 -1
BITMAP
0000
FF80
0100
0200
0400
0800
1000
2000
4020
4020
3FE0
ENDCHAR
STARTCHAR U_31E1
ENCODING 12769
SWIDTH 1000 0
DWIDTH 12 0
BBX 11 11 1 -1
BITMAP
0000
FF80
0100
0200
07C0
0040
0040
0040
0040
0280
0100
ENDCHAR
STARTCHAR U_31E2
ENCODING 12770
SWIDTH 1000 0
DWIDTH 12 0
BBX 11 11 1 -1
BITMAP
0000
0080
0080
0100
0100
0200
0400
8800
5000
2000
0000
ENDCHAR
STARTCHAR U_31E3
ENCODING 12771
SWIDTH 1000 0
DWIDTH 12 0
BBX 11 11 1 -1
BITMAP
0000
0000
7F00
8080
8080
8080
8080
8080
7F00
0000
0000
ENDCHAR
STARTCHAR U_3201
ENCODING 12801
SWIDTH 1000 0
DWIDTH 12 0
BBX 11 11 0 -1
BITMAP
2080
4040
8020
A020
A020
A020
A020
BFA0
8020
4040
2080
ENDCHAR
STARTCHAR U_32C0
ENCODING 12992
SWIDTH 1000 0
DWIDTH 12 0
BBX 11 11 1 -1
BITMAP
0000
4780
C480
4780
4480
4780
4480
4480
4480
E980
0000
ENDCHAR
STARTCHAR U_3314
ENCODING 13076
SWIDTH 1000 0
DWIDTH 12 0
BBX 11 11 0 -1
BITMAP
2000
FC00
2000
1000
FC00
1000
03E0
0220
0220
0220
03E0
ENDCHAR
STARTCHAR U_3337
ENCODING 13111
SWIDTH 1000 0
DWIDTH 12 0
BBX 11 11 0 -1
BITMAP
0C00
4400
A000
9000
0800
0220
0120
0040
0040
0080
0100
ENDCHAR
STARTCHAR U_3358
ENCODING 13144
SWIDTH 1000 0
DWIDTH 12 0
BBX 11 11 0 -1
BITMAP
6100
91C0
9100
97C0
9440
9440
97C0
9000
9540
96A0
6AA0
ENDCHAR
STARTCHAR U_3365
ENCODING 13157
SWIDTH 1000 0
DWIDTH 12 0
BBX 11 11 0 -1
BITMAP
9080
A8E0
8880
8BE0
8A20
9220
8BE0
8800
AAA0
AAA0
9560
ENDCHAR
STARTCHAR U_3371
ENCODING 13169
SWIDTH 1000 0
DWIDTH 12 0
BBX 11 11 0 -1
BITMAP
8E00
8900
8900
8900
C940
AE20
A860
A8A0
A8A0
A8A0
A860
ENDCHAR
STARTCHAR U_3374
ENCODING 13172
SWIDTH 1000 0
DWIDTH 12 0
BBX 11 11 0 -1
BITMAP
8000
8000
8000
8000
CCA0
A2C0
A680
AA80
AA80
AA80
C680
ENDCHAR
STARTCHAR U_3390
ENCODING 13200
SWIDTH 1000 0
DWIDTH 12 0
BBX 11 11 0 -1
BITMAP
8800
8800
8800
8800
8800
FBE0
8820
8840
8880
8900
8BE0
ENDCHAR
STARTCHAR U_33A4
ENCODING 13220
SWIDTH 1000 0
DWIDTH 12 0
BBX 11 11 0 -1
BITMAP
00C0
0020
00C0
0020
4AC0
AF80
8A80
8A80
8A80
AA80
4A80
ENDCHAR
STARTCHAR U_33AC
ENCODING 13228
SWIDTH 1000 0
DWIDTH 12 0
BBX 11 11 0 -1
BITMAP
6700
9480
8480
8480
8480
B700
94C0
9420
9460
94A0
6460
ENDCHAR
STARTCHAR U_33C0
ENCODING 13248
SWIDTH 1000 0
DWIDTH 12 0
BBX 11 11 0 -1
BITMAP
0080
8140
8220
8220
8A20
9220
A220
C220
A140
9140
8B60
ENDCHAR
STARTCHAR U_33C6
ENCODING 13254
SWIDTH 1000 0
DWIDTH 12 0
BBX 11 11 0 -1
BITMAP
4C00
AC00
8C00
8C00
8D40
95A0
96A0
B5A0
5560
0020
00C0
ENDCHAR
STARTCHAR U_3400
ENCODING 13312
SWIDTH 1000 0
DWIDTH 12 0
BBX 11 11 0 -1
BITMAP 
0000
1100
1100
1100
1100
F1E0
1100
1100
1100
1100
FFE0
ENDCHAR
STARTCHAR U_3401
ENCODING 13313
SWIDTH 1000 0
DWIDTH 12 0
BBX 11 11 0 -1
BITMAP 
FFE0
0400
0400
7FC0
4440
4A40
5140
6140
4040
7FC0
4040
ENDCHAR
STARTCHAR U_3402
ENCODING 13314
SWIDTH 1000 0
DWIDTH 12 0
BBX 11 11 0 -1
BITMAP 
0400
07C0
7C00
0420
23E0
2100
FBE0
2100
2920
3120
20E0
ENDCHAR
STARTCHAR U_3403
ENCODING 13315
SWIDTH 1000 0
DWIDTH 12 0
BBX 11 11 0 -1
BITMAP 
0400
0A00
1100
2080
4040
FFE0
0400
0400
0400
0400
0400
ENDCHAR
STARTCHAR U_3404
ENCODING 13316
SWIDTH 1000 0
DWIDTH 12 0
BBX 11 11 0 -1
BITMAP 
0400
0400
7FC0
0400
4400
4400
FFE0
0400
0400
0400
0400
ENDCHAR
STARTCHAR U_3405
ENCODING 13317
SWIDTH 1000 0
DWIDTH 12 0
BBX 11 11 0 -1
BITMAP 
0080
2080
1100
0900
0600
0200
0500
0880
1040
6040
0000
ENDCHAR
STARTCHAR U_3406
ENCODING 13318
SWIDTH 1000 0
DWIDTH 12 0
BBX 11 11 0 -1
BITMAP 
3F00
2000
3F00
2100
3F00
2100
3F00
2000
3F80
4080
8300
ENDCHAR
STARTCHAR U_3407
ENCODING 13319
SWIDTH 1000 0
DWIDTH 12 0
BBX 11 11 0 -1
BITMAP 
0800
0800
7F00
1120
2120
C0E0
7F00
0200
3C40
4040
3FC0
ENDCHAR
STARTCHAR U_3408
ENCODING 13320
SWIDTH 1000 0
DWIDTH 12 0
BBX 11 11 0 -1
BITMAP 
1800
0400
0A00
3180
C060
7F80
0100
0E00
3040
4040
3FC0
ENDCHAR
STARTCHAR U_3409
ENCODING 13321
SWIDTH 1000 0
DWIDTH 12 0
BBX 11 11 0 -1
BITMAP 
0000
FFE0
0200
0200
0A00
0400
7FC0
0300
1C20
2020
1FE0
ENDCHAR
STARTCHAR U_340A
ENCODING 13322
SWIDTH 1000 0
DWIDTH 12 0
BBX 11 11 0 -1
BITMAP 
0400
0400
FFE0
0400
3F80
0000
7FC0
0180
1E20
2020
1FE0
ENDCHAR
STARTCHAR U_340B
ENCODING 13323
SWIDTH 1000 0
DWIDTH 12 0
BBX 11 11 0 -1
BITMAP 
0400
0400
3FC0
0400
FFE0
0000
7FC0
0180
1E20
2020
1FE0
ENDCHAR
STARTCHAR U_340C
ENCODING 13324
SWIDTH 1000 0
DWIDTH 12 0
BBX 11 11 0 -1
BITMAP 
2000
7FC0
4400
8400
27C0
3C40
E440
2580
2420
2020
1FE0
ENDCHAR
STARTCHAR U_340D
ENCODING 13325
SWIDTH 1000 0
DWIDTH 12 0
BBX 11 11 0 -1
BITMAP 
01C0
0E00
7440
2240
1280
7FC0
0080
0700
3820
4020
3FE0
ENDCHAR
STARTCHAR U_340E
ENCODING 13326
SWIDTH 1000 0
DWIDTH 12 0
BBX 11 11 0 -1
BITMAP 
0400
FFE0
1100
0E00
3180
C060
3F80
0300
1C20
2020
1FE0
ENDCHAR
STARTCHAR U_340F
ENCODING 13327
SWIDTH 1000 0
DWIDTH 12 0
BBX 11 11 0 -1
BITMAP 
7FC0
0400
3F80
0880
FFE0
0000
7FC0
0100
1E20
2020
1FE0
ENDCHAR
STARTCHAR U_3410
ENCODING 13328
SWIDTH 1000 0
DWIDTH 12 0
BBX 11 11 0 -1
BITMAP 
1000
FFE0
4A40
3180
CA60
0000
7F80
0600
1800
2040
1FC0
ENDCHAR
STARTCHAR U_3411
ENCODING 13329
SWIDTH 1000 0
DWIDTH 12 0
BBX 11 11 0 -1
BITMAP 
3F80
5100
0E00
F5E0
0A00
0400
7FC0
0600
1800
2020
1FE0
ENDCHAR
STARTCHAR U_3412
ENCODING 13330
SWIDTH 1000 0
DWIDTH 12 0
BBX 11 11 0 -1
BITMAP 
7FC0
1040
2080
FFC0
2040
3FC0
0000
7FC0
0C00
3020
1FE0
ENDCHAR
STARTCHAR U_3413
ENCODING 13331
SWIDTH 1000 0
DWIDTH 12 0
BBX 11 11 0 -1
BITMAP 
FFE0
0080
3C80
2480
3C80
0080
FFE0
0600
1800
2020
1FE0
ENDCHAR
STARTCHAR U_3414
ENCODING 13332
SWIDTH 1000 0
DWIDTH 12 0
BBX 11 11 0 -1
BITMAP 
0400
7FC0
0000
1F00
1100
1F00
0000
7F00
0400
0840
0FC0
ENDCHAR
STARTCHAR U_3415
ENCODING 13333
SWIDTH 1000 0
DWIDTH 12 0
BBX 11 11 0 -1
BITMAP 
0400
7FC0
4440
7FC0
4440
7FC0
0000
FF80
0600
0840
1FC0
ENDCHAR
STARTCHAR U_3416
ENCODING 13334
SWIDTH 1000 0
DWIDTH 12 0
BBX 11 11 0 -1
BITMAP 
1100
1100
FD00
1100
7D00
0100
7D00
4500
4520
4520
7CE0
ENDCHAR
STARTCHAR U_3417
ENCODING 13335
SWIDTH 1000 0
DWIDTH 12 0
BBX 11 11 0 -1
BITMAP 
0440
1F80
0500
FFE0
1900
6A40
8FC0
0000
3FA0
0C20
7FE0
ENDCHAR
STARTCHAR U_3418
ENCODING 13336
SWIDTH 1000 0
DWIDTH 12 0
BBX 11 11 0 -1
BITMAP 
2480
1500
FFE0
0D00
1480
6440
1F00
0200
0C00
3020
3FE0
ENDCHAR
STARTCHAR U_3419
ENCODING 13337
SWIDTH 1000 0
DWIDTH 12 0
BBX 11 11 0 -1
BITMAP 
7FC0
2080
3F80
1100
FFE0
0000
3FC0
0180
0E00
7020
3FE0
ENDCHAR
STARTCHAR U_341A
ENCODING 13338
SWIDTH 1000 0
DWIDTH 12 0
BBX 11 11 0 -1
BITMAP 
7FC0
0400
3F80
0880
FFE0
1100
7FC0
0200
1C20
6020
3FE0
ENDCHAR
STARTCHAR U_341B
ENCODING 13339
SWIDTH 1000 0
DWIDTH 12 0
BBX 11 11 0 -1
BITMAP 
1200
2FE0
E400
2BC0
2240
23C0
7FC0
0300
0C00
3040
3FC0
ENDCHAR
STARTCHAR U_341C
ENCODING 13340
SWIDTH 1000 0
DWIDTH 12 0
BBX 11 11 0 -1
BITMAP 
2900
2100
FBC0
2140
A940
7140
2140
7140
AA40
2240
6460
ENDCHAR
STARTCHAR U_341D
ENCODING 13341
SWIDTH 1000 0
DWIDTH 12 0
BBX 11 11 0 -1
BITMAP 
2400
F7E0
2820
F720
2520
6760
3F80
0300
1C00
6040
7FC0
ENDCHAR
STARTCHAR U_341E
ENCODING 13342
SWIDTH 1000 0
DWIDTH 12 0
BBX 11 11 0 -1
BITMAP 
1100
7FC0
1100
1F00
1100
FFE0
2080
5F40
8220
0C40
1FC0
ENDCHAR
STARTCHAR U_341F
ENCODING 13343
SWIDTH 1000 0
DWIDTH 12 0
BBX 11 11 0 -1
BITMAP 
1200
F3C0
1200
7380
1200
F3C0
0000
7F80
0C20
3020
1FE0
ENDCHAR
STARTCHAR U_3420
ENCODING 13344
SWIDTH 1000 0
DWIDTH 12 0
BBX 11 11 0 -1
BITMAP 
FE80
5480
FC80
0880
7C80
10A0
10E0
3F00
0600
1840
3FC0
ENDCHAR
STARTCHAR U_3421
ENCODING 13345
SWIDTH 1000 0
DWIDTH 12 0
BBX 11 11 0 -1
BITMAP 
4FE0
4100
FFE0
5AA0
5AA0
5100
57C0
5100
5280
5460
8FE0
ENDCHAR
STARTCHAR U_3422
ENCODING 13346
SWIDTH 1000 0
DWIDTH 12 0
BBX 11 11 0 -1
BITMAP 
4FE0
2540
8FC0
4080
2FE0
C100
4200
7F80
0C20
3020
7FE0
ENDCHAR
STARTCHAR U_3423
ENCODING 13347
SWIDTH 1000 0
DWIDTH 12 0
BBX 11 11 0 -1
BITMAP 
0200
7FE0
4200
7FE0
5240
5FC0
5240
7FE0
4780
4820
9FE0
ENDCHAR
STARTCHAR U_3424
ENCODING 13348
SWIDTH 1000 0
DWIDTH 12 0
BBX 11 11 0 -1
BITMAP 
4100
4FE0
F100
57C0
5440
57C0
5440
5FE0
5280
5440
9FE0
ENDCHAR
STARTCHAR U_3425
ENCODING 13349
SWIDTH 1000 0
DWIDTH 12 0
BBX 11 11 0 -1
BITMAP 
4080
AE80
5BE0
EEA0
4AA0
FF40
0000
7F80
0C20
1020
3FE0
ENDCHAR
STARTCHAR U_3426
ENCODING 13350
SWIDTH 1000 0
DWIDTH 12 0
BBX 11 11 0 -1
BITMAP 
6EC0
4840
6EC0
4A40
FFE0
2480
C460
3F80
0600
1820
3FE0
ENDCHAR
STARTCHAR U_3427
ENCODING 13351
SWIDTH 1000 0
DWIDTH 12 0
BBX 11 11 0 -1
BITMAP 
2200
1A00
0A00
0200
FFE0
0640
0A00
1200
2200
CA00
0400
ENDCHAR
STARTCHAR U_3428
ENCODING 13352
SWIDTH 1000 0
DWIDTH 12 0
BBX 11 11 0 -1
BITMAP 
FBE0
1040
5140
6180
FBE0
28A0
2080
2080
2080
2080
6180
ENDCHAR
STARTCHAR U_3429
ENCODING 13353
SWIDTH 1000 0
DWIDTH 12 0
BBX 11 11 0 -1
BITMAP 
5140
5140
FBE0
5140
5140
5140
FBE0
5140
5140
5140
9640
ENDCHAR
STARTCHAR U_342A
ENCODING 13354
SWIDTH 1000 0
DWIDTH 12 0
BBX 11 11 0 -1
BITMAP 
0400
0400
FFE0
0400
4440
4440
7FC0
0400
0A00
3180
C060
ENDCHAR
STARTCHAR U_342B
ENCODING 13355
SWIDTH 1000 0
DWIDTH 12 0
BBX 11 11 0 -1
BITMAP 
0800
0400
FFE0
0000
5140
4A40
4440
4A40
5140
4040
7FC0
ENDCHAR
STARTCHAR U_342C
ENCODING 13356
SWIDTH 1000 0
DWIDTH 12 0
BBX 11 11 0 -1
BITMAP 
0400
FFE0
1000
2080
7FC0
0020
2480
2480
2480
44A0
84E0
ENDCHAR
STARTCHAR U_342D
ENCODING 13357
SWIDTH 1000 0
DWIDTH 12 0
BBX 11 11 0 -1
BITMAP 
0400
FFE0
0000
7FC0
4040
5F40
5140
5140
5F40
4040
7FC0
ENDCHAR
STARTCHAR U_342E
ENCODING 13358
SWIDTH 1000 0
DWIDTH 12 0
BBX 11 11 0 -1
BITMAP 
0400
FFE0
4A40
BFA0
0A00
3F80
0A00
7FC0
3480
D300
19E0
ENDCHAR
STARTCHAR U_342F
ENCODING 13359
SWIDTH 1000 0
DWIDTH 12 0
BBX 11 11 0 -1
BITMAP 
0400
FFE0
3F80
4040
7FC0
0400
7FC0
1500
3F80
2080
3F80
ENDCHAR
STARTCHAR U_3430
ENCODING 13360
SWIDTH 1000 0
DWIDTH 12 0
BBX 11 11 0 -1
BITMAP 
1000
17E0
2420
2420
6420
A420
2420
2420
2420
27E0
2420
ENDCHAR
STARTCHAR U_3431
ENCODING 13361
SWIDTH 1000 0
DWIDTH 12 0
BBX 11 11 0 -1
BITMAP 
0800
0800
1400
2300
48E0
9200
2480
0900
3200
0400
7800
ENDCHAR
STARTCHAR U_3432
ENCODING 13362
SWIDTH 1000 0
DWIDTH 12 0
BBX 11 11 0 -1
BITMAP 
1100
1100
2100
6FE0
A100
2100
2100
2280
2280
2440
2820
ENDCHAR
STARTCHAR U_3433
ENCODING 13363
SWIDTH 1000 0
DWIDTH 12 0
BBX 11 11 0 -1
BITMAP 
1000
1FE0
2280
2280
6280
A280
2480
24A0
24A0
28A0
3060
ENDCHAR
STARTCHAR U_3434
ENCODING 13364
SWIDTH 1000 0
DWIDTH 12 0
BBX 11 11 0 -1
BITMAP 
1200
1200
27E0
2420
6420
AA40
2140
2080
2080
2100
2600
ENDCHAR
STARTCHAR U_3435
ENCODING 13365
SWIDTH 1000 0
DWIDTH 12 0
BBX 11 11 0 -1
BITMAP 
0000
17C0
2100
2100
6FE0
A100
2100
2100
2100
2300
0100
ENDCHAR
STARTCHAR U_3436
ENCODING 13366
SWIDTH 1000 0
DWIDTH 12 0
BBX 11 11 0 -1
BITMAP 
17C0
1440
2440
6440
A7C0
2400
2400
2400
2420
2420
23E0
ENDCHAR
STARTCHAR U_3437
ENCODING 13367
SWIDTH 1000 0
DWIDTH 12 0
BBX 11 11 0 -1
BITMAP 
17C0
1040
2440
6440
A440
27E0
2020
2FA0
2020
20A0
2040
ENDCHAR
STARTCHAR U_3438
ENCODING 13368
SWIDTH 1000 0
DWIDTH 12 0
BBX 11 11 0 -1
BITMAP 
1400
1400
27E0
6920
A940
2100
2100
2280
2280
2440
2820
ENDCHAR
STARTCHAR U_3439
ENCODING 13369
SWIDTH 1000 0
DWIDTH 12 0
BBX 11 11 0 -1
BITMAP 
1400
17E0
2400
6BC0
A000
2F80
2080
2080
2080
20A0
2060
ENDCHAR
STARTCHAR U_343A
ENCODING 13370
SWIDTH 1000 0
DWIDTH 12 0
BBX 11 11 0 -1
BITMAP 
2480
2480
4880
D880
4880
4880
4880
4940
4940
4A20
4A20
ENDCHAR
STARTCHAR U_343B
ENCODING 13371
SWIDTH 1000 0
DWIDTH 12 0
BBX 11 11 0 -1
BITMAP 
1100
1100
2100
6FE0
A920
2920
2920
2AA0
2C60
2820
2860
ENDCHAR
STARTCHAR U_343C
ENCODING 13372
SWIDTH 1000 0
DWIDTH 12 0
BBX 11 11 0 -1
BITMAP 
1140
1640
2240
6240
AFE0
2240
2240
2240
2240
2440
2840
ENDCHAR
STARTCHAR U_343D
ENCODING 13373
SWIDTH 1000 0
DWIDTH 12 0
BBX 11 11 0 -1
BITMAP 
17C0
1440
2440
66C0
A540
2540
26C0
2440
2440
2840
3020
ENDCHAR
STARTCHAR U_343E
ENCODING 13374
SWIDTH 1000 0
DWIDTH 12 0
BBX 11 11 0 -1
BITMAP 
17C0
1000
2000
6FE0
A280
2280
2280
2280
24A0
24A0
2860
ENDCHAR
STARTCHAR U_343F
ENCODING 13375
SWIDTH 1000 0
DWIDTH 12 0
BBX 11 11 0 -1
BITMAP 
10C0
1700
2100
6100
A7C0
2100
2100
2FE0
2100
2100
2300
ENDCHAR
STARTCHAR U_3440
ENCODING 13376
SWIDTH 1000 0
DWIDTH 12 0
BBX 11 11 0 -1
BITMAP 
2200
2200
4200
5FE0
C200
4500
4500
4480
4880
4A40
5120
ENDCHAR
STARTCHAR U_3441
ENCODING 13377
SWIDTH 1000 0
DWIDTH 12 0
BBX 11 11 0 -1
BITMAP 
1100
1920
2920
6920
AFE0
2100
2100
2920
2920
2920
2FE0
ENDCHAR
STARTCHAR U_3442
ENCODING 13378
SWIDTH 1000 0
DWIDTH 12 0
BBX 11 11 0 -1
BITMAP 
2FE0
2100
6100
AFE0
2920
2920
2AA0
2C60
2820
2820
2860
ENDCHAR
STARTCHAR U_3443
ENCODING 13379
SWIDTH 1000 0
DWIDTH 12 0
BBX 11 11 0 -1
BITMAP 
1480
1480
29E0
6AA0
AEA0
22A0
24A0
28A0
2BA0
2D20
2260
ENDCHAR
STARTCHAR U_3444
ENCODING 13380
SWIDTH 1000 0
DWIDTH 12 0
BBX 11 11 0 -1
BITMAP 
2FC0
2840
4A40
C940
5FE0
4840
4A40
5140
5FE0
4040
40C0
ENDCHAR
STARTCHAR U_3445
ENCODING 13381
SWIDTH 1000 0
DWIDTH 12 0
BBX 11 11 0 -1
BITMAP 
1400
1400
27E0
6900
B100
2100
21C0
2100
2100
2100
2FE0
ENDCHAR
STARTCHAR U_3446
ENCODING 13382
SWIDTH 1000 0
DWIDTH 12 0
BBX 11 11 0 -1
BITMAP 
17C0
1440
2440
2440
67C0
A280
2280
2280
22A0
24A0
2860
ENDCHAR
STARTCHAR U_3447
ENCODING 13383
SWIDTH 1000 0
DWIDTH 12 0
BBX 11 11 0 -1
BITMAP 
1200
13C0
2440
6080
AFE0
2020
2020
27E0
2020
2020
2FE0
ENDCHAR
STARTCHAR U_3448
ENCODING 13384
SWIDTH 1000 0
DWIDTH 12 0
BBX 11 11 0 -1
BITMAP 
1100
1100
2FE0
6200
A400
2500
2FE0
2100
2540
2920
2300
ENDCHAR
STARTCHAR U_3449
ENCODING 13385
SWIDTH 1000 0
DWIDTH 12 0
BBX 11 11 0 -1
BITMAP 
2FC0
2840
6FC0
AA40
2BC0
2CC0
2AC0
2940
2940
2A40
3420
ENDCHAR
STARTCHAR U_344A
ENCODING 13386
SWIDTH 1000 0
DWIDTH 12 0
BBX 11 11 0 -1
BITMAP 
2100
3FE0
6280
A280
2AC0
2AA0
32A0
2280
2480
2480
2980
ENDCHAR
STARTCHAR U_344B
ENCODING 13387
SWIDTH 1000 0
DWIDTH 12 0
BBX 11 11 0 -1
BITMAP 
1280
1280
2280
6FE0
AAA0
2AA0
2FE0
2AA0
2AA0
2AA0
2FE0
ENDCHAR
STARTCHAR U_344C
ENCODING 13388
SWIDTH 1000 0
DWIDTH 12 0
BBX 11 11 0 -1
BITMAP 
2FE0
2800
6BE0
A880
2880
2BE0
2880
2880
2BE0
2800
2FE0
ENDCHAR
STARTCHAR U_344D
ENCODING 13389
SWIDTH 1000 0
DWIDTH 12 0
BBX 11 11 0 -1
BITMAP 
1100
1FE0
2100
6FC0
A100
3FE0
2380
2540
2520
2920
2100
ENDCHAR
STARTCHAR U_344E
ENCODING 13390
SWIDTH 1000 0
DWIDTH 12 0
BBX 11 11 0 -1
BITMAP 
12A0
1540
2A80
6540
A540
2000
2100
2920
2920
2920
2FE0
ENDCHAR
STARTCHAR U_344F
ENCODING 13391
SWIDTH 1000 0
DWIDTH 12 0
BBX 11 11 0 -1
BITMAP 
1100
1FE0
2820
6080
AFE0
2080
2480
2280
2080
2080
2180
ENDCHAR
STARTCHAR U_3450
ENCODING 13392
SWIDTH 1000 0
DWIDTH 12 0
BBX 11 11 0 -1
BITMAP
1100
1100
21C0
6100
A100
2FE0
2100
2540
2540
2920
2300
ENDCHAR
STARTCHAR U_3451
ENCODING 13393
SWIDTH 1000 0
DWIDTH 12 0
BBX 11 11 0 -1
BITMAP 
1200
1400
2FE0
6820
AFE0
2820
2820
2FE0
2820
2820
2FE0
ENDCHAR
STARTCHAR U_3452
ENCODING 13394
SWIDTH 1000 0
DWIDTH 12 0
BBX 11 11 0 -1
BITMAP 
0400
0A00
3180
DF60
0400
3F80
2480
3F80
0A00
3180
C060
ENDCHAR
STARTCHAR U_3453
ENCODING 13395
SWIDTH 1000 0
DWIDTH 12 0
BBX 11 11 0 -1
BITMAP 
1200
2200
6440
AFA0
2200
2FE0
2200
25C0
2540
2880
3360
ENDCHAR
STARTCHAR U_3454
ENCODING 13396
SWIDTH 1000 0
DWIDTH 12 0
BBX 11 11 0 -1
BITMAP 
1FE0
1100
2200
6FE0
A820
2920
2920
2920
2920
2240
2C20
ENDCHAR
STARTCHAR U_3455
ENCODING 13397
SWIDTH 1000 0
DWIDTH 12 0
BBX 11 11 0 -1
BITMAP 
1100
1540
2540
67C0
A200
27C0
2840
2240
2180
2100
2E00
ENDCHAR
STARTCHAR U_3456
ENCODING 13398
SWIDTH 1000 0
DWIDTH 12 0
BBX 11 11 0 -1
BITMAP 
1480
1480
2880
7BE0
AAA0
2AA0
2AA0
2BE0
2880
2880
2880
ENDCHAR
STARTCHAR U_3457
ENCODING 13399
SWIDTH 1000 0
DWIDTH 12 0
BBX 11 11 0 -1
BITMAP 
1100
17C0
2440
67C0
A440
27C0
2440
27E0
2CC0
2340
2CC0
ENDCHAR
STARTCHAR U_3458
ENCODING 13400
SWIDTH 1000 0
DWIDTH 12 0
BBX 11 11 0 -1
BITMAP 
10A0
1080
2FE0
6080
AAA0
2AA0
3FC0
2A80
2AC0
3160
2220
ENDCHAR
STARTCHAR U_3459
ENCODING 13401
SWIDTH 1000 0
DWIDTH 12 0
BBX 11 11 0 -1
BITMAP 
3FE0
2A00
6E80
AA80
2E80
2A80
2A80
2E80
3A80
22A0
22E0
ENDCHAR
STARTCHAR U_345A
ENCODING 13402
SWIDTH 1000 0
DWIDTH 12 0
BBX 11 11 0 -1
BITMAP 
5EE0
4AA0
CAA0
5EA0
4AC0
4AA0
5EA0
4AA0
4AE0
5280
6680
ENDCHAR
STARTCHAR U_345B
ENCODING 13403
SWIDTH 1000 0
DWIDTH 12 0
BBX 11 11 0 -1
BITMAP 
1100
1FE0
2100
6FE0
A920
2920
2FE0
2380
2540
2540
2920
ENDCHAR
STARTCHAR U_345C
ENCODING 13404
SWIDTH 1000 0
DWIDTH 12 0
BBX 11 11 0 -1
BITMAP 
1460
1580
2F00
65E0
A540
2740
2D40
2540
2540
2540
2E40
ENDCHAR
STARTCHAR U_345D
ENCODING 13405
SWIDTH 1000 0
DWIDTH 12 0
BBX 11 11 0 -1
BITMAP 
17E0
1100
27E0
2100
6FE0
A000
2240
2FE0
2240
2240
2C40
ENDCHAR
STARTCHAR U_345E
ENCODING 13406
SWIDTH 1000 0
DWIDTH 12 0
BBX 11 11 0 -1
BITMAP 
1100
1540
2100
2280
6C60
A240
2FE0
2240
2240
2440
2840
ENDCHAR
STARTCHAR U_345F
ENCODING 13407
SWIDTH 1000 0
DWIDTH 12 0
BBX 11 11 0 -1
BITMAP 
11C0
1600
2400
67C0
A480
2480
2480
2FE0
2000
2440
2820
ENDCHAR
STARTCHAR U_3460
ENCODING 13408
SWIDTH 1000 0
DWIDTH 12 0
BBX 11 11 0 -1
BITMAP 
1200
1BE0
2AA0
6A40
AAA0
2320
2000
2100
27C0
2100
2FE0
ENDCHAR
STARTCHAR U_3461
ENCODING 13409
SWIDTH 1000 0
DWIDTH 12 0
BBX 11 11 0 -1
BITMAP 
2EE0
2AA0
6AA0
AEA0
2AA0
2EA0
28E0
2CA0
2A80
2E80
2880
ENDCHAR
STARTCHAR U_3462
ENCODING 13410
SWIDTH 1000 0
DWIDTH 12 0
BBX 11 11 0 -1
BITMAP 
14E0
24A0
7FA0
A4A0
24A0
3FA0
24E0
28A0
2A80
2B80
2C80
ENDCHAR
STARTCHAR U_3463
ENCODING 13411
SWIDTH 1000 0
DWIDTH 12 0
BBX 11 11 0 -1
BITMAP 
1480
2480
7FE0
A480
2D80
2FC0
2DA0
36A0
2480
2480
2480
ENDCHAR
STARTCHAR U_3464
ENCODING 13412
SWIDTH 1000 0
DWIDTH 12 0
BBX 11 11 0 -1
BITMAP 
1240
1FE0
2240
6000
AFE0
2920
2920
2FE0
2920
2920
2FE0
ENDCHAR
STARTCHAR U_3465
ENCODING 13413
SWIDTH 1000 0
DWIDTH 12 0
BBX 11 11 0 -1
BITMAP 
17C0
2440
27C0
6440
A7C0
2800
2FE0
34A0
24A0
2920
2260
ENDCHAR
STARTCHAR U_3466
ENCODING 13414
SWIDTH 1000 0
DWIDTH 12 0
BBX 11 11 0 -1
BITMAP 
21E0
2E00
6800
AFE0
2820
2FE0
2940
2FE0
2900
2A80
3460
ENDCHAR
STARTCHAR U_3467
ENCODING 13415
SWIDTH 1000 0
DWIDTH 12 0
BBX 11 11 0 -1
BITMAP 
27C0
2100
4FE0
4380
CD60
4100
47C0
4080
4FE0
4100
4300
ENDCHAR
STARTCHAR U_3468
ENCODING 13416
SWIDTH 1000 0
DWIDTH 12 0
BBX 11 11 0 -1
BITMAP 
17C0
1440
2440
67C0
A400
27C0
2900
2100
2FE0
2280
2C60
ENDCHAR
STARTCHAR U_3469
ENCODING 13417
SWIDTH 1000 0
DWIDTH 12 0
BBX 11 11 0 -1
BITMAP 
2FE0
2AA0
2AA0
4FE0
4200
C7C0
4440
4A40
4180
4300
5C00
ENDCHAR
STARTCHAR U_346A
ENCODING 13418
SWIDTH 1000 0
DWIDTH 12 0
BBX 11 11 0 -1
BITMAP 
1100
1FE0
2440
6380
A440
3C60
27C0
2440
27C0
2440
2840
ENDCHAR
STARTCHAR U_346B
ENCODING 13419
SWIDTH 1000 0
DWIDTH 12 0
BBX 11 11 0 -1
BITMAP 
0200
1300
1480
2A60
6100
A780
2080
2360
2900
2A20
21C0
ENDCHAR
STARTCHAR U_346C
ENCODING 13420
SWIDTH 1000 0
DWIDTH 12 0
BBX 11 11 0 -1
BITMAP 
2880
2880
4BE0
FC80
5480
55E0
5520
4920
5520
5520
61E0
ENDCHAR
STARTCHAR U_346D
ENCODING 13421
SWIDTH 1000 0
DWIDTH 12 0
BBX 11 11 0 -1
BITMAP 
17C0
1540
27C0
6540
A7C0
2000
2FE0
2240
2240
2440
2840
ENDCHAR
STARTCHAR U_346E
ENCODING 13422
SWIDTH 1000 0
DWIDTH 12 0
BBX 11 11 0 -1
BITMAP 
17E0
1420
2100
6FE0
A100
27C0
2540
27C0
2540
2FE0
2100
ENDCHAR
STARTCHAR U_346F
ENCODING 13423
SWIDTH 1000 0
DWIDTH 12 0
BBX 11 11 0 -1
BITMAP 
1FE0
1200
27C0
6440
A7C0
2440
27C0
2440
27C0
2240
2420
ENDCHAR
STARTCHAR U_3470
ENCODING 13424
SWIDTH 1000 0
DWIDTH 12 0
BBX 11 11 0 -1
BITMAP 
2400
27C0
4440
4F80
C080
5FE0
4440
5B80
4540
5940
4320
ENDCHAR
STARTCHAR U_3471
ENCODING 13425
SWIDTH 1000 0
DWIDTH 12 0
BBX 11 11 0 -1
BITMAP 
2FC0
2280
2100
5FE0
4540
DB00
4100
5FE0
4380
4540
4920
ENDCHAR
STARTCHAR U_3472
ENCODING 13426
SWIDTH 1000 0
DWIDTH 12 0
BBX 11 11 0 -1
BITMAP 
1100
1FE0
2100
6FE0
AAA0
2FE0
2920
2FE0
2920
2920
2960
ENDCHAR
STARTCHAR U_3473
ENCODING 13427
SWIDTH 1000 0
DWIDTH 12 0
BBX 11 11 0 -1
BITMAP 
2800
2FE0
5AA0
CFA0
4260
4400
4FE0
5AA0
4FA0
4220
4C60
ENDCHAR
STARTCHAR U_3474
ENCODING 13428
SWIDTH 1000 0
DWIDTH 12 0
BBX 11 11 0 -1
BITMAP 
2780
2FC0
4080
DFE0
5220
4FC0
4A40
5FC0
4480
4300
5CE0
ENDCHAR
STARTCHAR U_3475
ENCODING 13429
SWIDTH 1000 0
DWIDTH 12 0
BBX 11 11 0 -1
BITMAP 
1100
17E0
2400
3500
6DE0
A680
2C80
37E0
2480
2940
3220
ENDCHAR
STARTCHAR U_3476
ENCODING 13430
SWIDTH 1000 0
DWIDTH 12 0
BBX 11 11 0 -1
BITMAP 
2800
2FE0
5000
CFC0
4000
7FC0
5540
4440
5FC0
4440
5560
ENDCHAR
STARTCHAR U_3477
ENCODING 13431
SWIDTH 1000 0
DWIDTH 12 0
BBX 11 11 0 -1
BITMAP 
2880
3280
5EE0
C080
5EE0
5200
5E80
52E0
5E80
52A0
56E0
ENDCHAR
STARTCHAR U_3478
ENCODING 13432
SWIDTH 1000 0
DWIDTH 12 0
BBX 11 11 0 -1
BITMAP 
1100
1FE0
2100
67C0
A440
3FE0
2040
2F40
2940
2F40
20C0
ENDCHAR
STARTCHAR U_3479
ENCODING 13433
SWIDTH 1000 0
DWIDTH 12 0
BBX 11 11 0 -1
BITMAP 
0400
1B00
E0E0
3F80
4440
7FC0
4440
7FC0
3F80
2080
3F80
ENDCHAR
STARTCHAR U_347A
ENCODING 13434
SWIDTH 1000 0
DWIDTH 12 0
BBX 11 11 0 -1
BITMAP 
2480
2FE0
5880
CFE0
4880
4FE0
5FC0
4880
49E0
5020
60C0
ENDCHAR
STARTCHAR U_347B
ENCODING 13435
SWIDTH 1000 0
DWIDTH 12 0
BBX 11 11 0 -1
BITMAP 
2100
2FE0
2A20
4480
D560
43C0
4C00
4100
4920
4920
4FE0
ENDCHAR
STARTCHAR U_347C
ENCODING 13436
SWIDTH 1000 0
DWIDTH 12 0
BBX 11 11 0 -1
BITMAP 
2080
2360
5FA0
D540
55A0
5F00
55E0
55A0
5FA0
40A0
40E0
ENDCHAR
STARTCHAR U_347D
ENCODING 13437
SWIDTH 1000 0
DWIDTH 12 0
BBX 11 11 0 -1
BITMAP 
2920
2540
2FE0
6820
A7C0
2440
27C0
2100
27C0
2100
2FE0
ENDCHAR
STARTCHAR U_347E
ENCODING 13438
SWIDTH 1000 0
DWIDTH 12 0
BBX 11 11 0 -1
BITMAP 
2200
2DE0
5240
C980
5E00
4100
5FE0
4000
4FC0
4840
4FC0
ENDCHAR
STARTCHAR U_347F
ENCODING 13439
SWIDTH 1000 0
DWIDTH 12 0
BBX 11 11 0 -1
BITMAP 
2540
2A80
2540
4FE0
C920
4FE0
4920
4FE0
4100
4FE0
4540
ENDCHAR
STARTCHAR U_3480
ENCODING 13440
SWIDTH 1000 0
DWIDTH 12 0
BBX 11 11 0 -1
BITMAP 
1100
1FE0
2440
6FE0
A920
2FE0
2920
2BA0
2AA0
2BA0
2860
ENDCHAR
STARTCHAR U_3481
ENCODING 13441
SWIDTH 1000 0
DWIDTH 12 0
BBX 11 11 0 -1
BITMAP 
2FE0
2920
6FE0
A920
2FE0
2AA0
2FE0
2920
2FE0
2920
2FE0
ENDCHAR
STARTCHAR U_3482
ENCODING 13442
SWIDTH 1000 0
DWIDTH 12 0
BBX 11 11 0 -1
BITMAP 
1440
1EE0
2440
6120
AFE0
2140
2FE0
2640
2BC0
2240
23C0
ENDCHAR
STARTCHAR U_3483
ENCODING 13443
SWIDTH 1000 0
DWIDTH 12 0
BBX 11 11 0 -1
BITMAP 
2140
2FE0
4100
DE80
4080
5E80
5280
5E80
5280
5EA0
7340
ENDCHAR
STARTCHAR U_3484
ENCODING 13444
SWIDTH 1000 0
DWIDTH 12 0
BBX 11 11 0 -1
BITMAP 
28C0
28A0
4E80
CBE0
5680
6D40
4A20
5420
4000
4D40
52A0
ENDCHAR
STARTCHAR U_3485
ENCODING 13445
SWIDTH 1000 0
DWIDTH 12 0
BBX 11 11 0 -1
BITMAP 
1100
1FE0
2200
6DC0
A340
2E40
2180
2E00
22A0
2640
2B20
ENDCHAR
STARTCHAR U_3486
ENCODING 13446
SWIDTH 1000 0
DWIDTH 12 0
BBX 11 11 0 -1
BITMAP 
2300
3CE0
4FC0
C840
4FC0
5EE0
4220
5BA0
4220
4AA0
5760
ENDCHAR
STARTCHAR U_3487
ENCODING 13447
SWIDTH 1000 0
DWIDTH 12 0
BBX 11 11 0 -1
BITMAP 
2800
2FE0
5540
D540
7FE0
5540
5540
7FE0
4000
5540
62A0
ENDCHAR
STARTCHAR U_3488
ENCODING 13448
SWIDTH 1000 0
DWIDTH 12 0
BBX 11 11 0 -1
BITMAP
3E80
2480
7FE0
D540
5F40
5540
5D40
5480
7F40
4540
4620
ENDCHAR
STARTCHAR U_3489
ENCODING 13449
SWIDTH 1000 0
DWIDTH 12 0
BBX 11 11 0 -1
BITMAP 
2920
2540
5FE0
D020
47C0
4440
47C0
4100
5FE0
4100
4940
ENDCHAR
STARTCHAR U_348A
ENCODING 13450
SWIDTH 1000 0
DWIDTH 12 0
BBX 11 11 0 -1
BITMAP 
3FE0
2AA0
5BA0
CAA0
4AA0
5560
4440
5660
5540
5540
7FE0
ENDCHAR
STARTCHAR U_348B
ENCODING 13451
SWIDTH 1000 0
DWIDTH 12 0
BBX 11 11 0 -1
BITMAP 
2A60
3F80
4A80
CEE0
4AA0
4EA0
4AA0
5FA0
40A0
4AA0
5120
ENDCHAR
STARTCHAR U_348C
ENCODING 13452
SWIDTH 1000 0
DWIDTH 12 0
BBX 11 11 0 -1
BITMAP 
2440
3540
4EE0
C440
4AA0
5FE0
5020
4780
4480
44A0
58E0
ENDCHAR
STARTCHAR U_348D
ENCODING 13453
SWIDTH 1000 0
DWIDTH 12 0
BBX 11 11 0 -1
BITMAP
2480
4FC0
C880
5320
5FE0
4480
4D00
4240
5FE0
4940
5320
ENDCHAR
STARTCHAR U_348E
ENCODING 13454
SWIDTH 1000 0
DWIDTH 12 0
BBX 11 11 0 -1
BITMAP 
2F80
2200
5FC0
C500
4880
5DE0
4500
5DC0
4500
5DC0
4500
ENDCHAR
STARTCHAR U_348F
ENCODING 13455
SWIDTH 1000 0
DWIDTH 12 0
BBX 11 11 0 -1
BITMAP 
2200
3FE0
54A0
CFC0
4480
5FE0
4480
5FE0
4B40
5020
4780
ENDCHAR
STARTCHAR U_3490
ENCODING 13456
SWIDTH 1000 0
DWIDTH 12 0
BBX 11 11 0 -1
BITMAP 
2880
2EE0
5540
C800
4FE0
5020
4F20
4920
4F20
4920
4F60
ENDCHAR
STARTCHAR U_3491
ENCODING 13457
SWIDTH 1000 0
DWIDTH 12 0
BBX 11 11 0 -1
BITMAP 
3FE0
3140
5A40
D7E0
5A40
57E0
5240
57E0
5A40
5BE0
5FE0
ENDCHAR
STARTCHAR U_3492
ENCODING 13458
SWIDTH 1000 0
DWIDTH 12 0
BBX 11 11 0 -1
BITMAP 
2280
2AA0
46C0
DFE0
4440
4FE0
4100
47C0
4100
5FE0
4940
ENDCHAR
STARTCHAR U_3493
ENCODING 13459
SWIDTH 1000 0
DWIDTH 12 0
BBX 11 11 0 -1
BITMAP 
2880
2BE0
4080
DBE0
4940
4BE0
5080
4BE0
4880
4880
57E0
ENDCHAR
STARTCHAR U_3494
ENCODING 13460
SWIDTH 1000 0
DWIDTH 12 0
BBX 11 11 0 -1
BITMAP 
2FE0
2AA0
4FE0
C400
4FE0
5220
4FA0
4AA0
4FA0
4260
5FE0
ENDCHAR
STARTCHAR U_3495
ENCODING 13461
SWIDTH 1000 0
DWIDTH 12 0
BBX 11 11 0 -1
BITMAP 
2200
3FE0
4940
CBE0
5540
49E0
4940
55E0
4D40
45E0
5900
ENDCHAR
STARTCHAR U_3496
ENCODING 13462
SWIDTH 1000 0
DWIDTH 12 0
BBX 11 11 0 -1
BITMAP
2480
3FE0
4480
CFC0
4A40
4FC0
4A40
5FE0
52A0
57A0
5060
ENDCHAR
STARTCHAR U_3497
ENCODING 13463
SWIDTH 1000 0
DWIDTH 12 0
BBX 11 11 0 -1
BITMAP 
2480
2FC0
4480
C780
4480
5FE0
57A0
4200
4FC0
4200
5FE0
ENDCHAR
STARTCHAR U_3498
ENCODING 13464
SWIDTH 1000 0
DWIDTH 12 0
BBX 11 11 0 -1
BITMAP 
3EE0
34A0
5EA0
D240
5E40
54A0
5F20
4100
4FE0
4100
5FE0
ENDCHAR
STARTCHAR U_3499
ENCODING 13465
SWIDTH 1000 0
DWIDTH 12 0
BBX 11 11 0 -1
BITMAP 
2900
2BE0
5220
D7E0
4A20
4BE0
5480
4BE0
42A0
56A0
5080
ENDCHAR
STARTCHAR U_349A
ENCODING 13466
SWIDTH 1000 0
DWIDTH 12 0
BBX 11 11 0 -1
BITMAP 
2FE0
2540
5FE0
C100
5FE0
4040
5FE0
4040
4FC0
5520
67A0
ENDCHAR
STARTCHAR U_349B
ENCODING 13467
SWIDTH 1000 0
DWIDTH 12 0
BBX 11 11 0 -1
BITMAP 
2EE0
2220
4AA0
C660
4AA0
4900
5FE0
4900
4FE0
4900
4FE0
ENDCHAR
STARTCHAR U_349C
ENCODING 13468
SWIDTH 1000 0
DWIDTH 12 0
BBX 11 11 0 -1
BITMAP 
2E60
2BA0
4E60
CBA0
4CE0
4AA0
4AA0
5FE0
4000
4840
5020
ENDCHAR
STARTCHAR U_349D
ENCODING 13469
SWIDTH 1000 0
DWIDTH 12 0
BBX 11 11 0 -1
BITMAP 
2500
3DC0
4500
DFC0
5540
5FC0
4280
5FE0
5940
55A0
62C0
ENDCHAR
STARTCHAR U_349E
ENCODING 13470
SWIDTH 1000 0
DWIDTH 12 0
BBX 11 11 0 -1
BITMAP 
2920
2FE0
4500
DFE0
4900
4FE0
4900
5FE0
54A0
57A0
5060
ENDCHAR
STARTCHAR U_349F
ENCODING 13471
SWIDTH 1000 0
DWIDTH 12 0
BBX 11 11 0 -1
BITMAP 
2200
3FE0
4900
CFC0
4900
4FE0
5520
5560
4E40
5980
4C60
ENDCHAR
STARTCHAR U_34A0
ENCODING 13472
SWIDTH 1000 0
DWIDTH 12 0
BBX 11 11 0 -1
BITMAP 
16E0
24A0
2F40
7AA0
A6C0
2A80
3EE0
2280
2EE0
2280
2FE0
ENDCHAR
STARTCHAR U_34A1
ENCODING 13473
SWIDTH 1000 0
DWIDTH 12 0
BBX 11 11 0 -1
BITMAP 
1240
2C80
22E0
6E40
6080
AEE0
3440
2EC0
2560
2A40
2EC0
ENDCHAR
STARTCHAR U_34A2
ENCODING 13474
SWIDTH 1000 0
DWIDTH 12 0
BBX 11 11 0 -1
BITMAP 
2700
2A80
5FC0
7560
DFC0
4000
5FC0
5540
5FC0
5540
50C0
ENDCHAR
STARTCHAR U_34A3
ENCODING 13475
SWIDTH 1000 0
DWIDTH 12 0
BBX 11 11 0 -1
BITMAP 
2100
5FE0
5540
D7E0
5D40
55E0
5540
55E0
5280
5620
6BC0
ENDCHAR
STARTCHAR U_34A4
ENCODING 13476
SWIDTH 1000 0
DWIDTH 12 0
BBX 11 11 0 -1
BITMAP 
3FE0
2880
4F80
7FE0
C080
7FE0
5540
5DC0
5540
7FE0
4440
ENDCHAR
STARTCHAR U_34A5
ENCODING 13477
SWIDTH 1000 0
DWIDTH 12 0
BBX 11 11 0 -1
BITMAP 
6AA0
7FE0
6AA0
FFE0
6AA0
7FE0
5FC0
5040
5FC0
4880
7FE0
ENDCHAR
STARTCHAR U_34A6
ENCODING 13478
SWIDTH 1000 0
DWIDTH 12 0
BBX 11 11 0 -1
BITMAP 
2F80
4A80
4F80
CA80
7FE0
6AA0
7FE0
6AA0
5FC0
4200
7FE0
ENDCHAR
STARTCHAR U_34A7
ENCODING 13479
SWIDTH 1000 0
DWIDTH 12 0
BBX 11 11 0 -1
BITMAP 
2880
5D40
4B00
D5E0
5D40
49E0
5D40
55E0
5540
5DE0
5500
ENDCHAR
STARTCHAR U_34A8
ENCODING 13480
SWIDTH 1000 0
DWIDTH 12 0
BBX 11 11 0 -1
BITMAP 
3A60
57A0
5DE0
D6A0
5DE0
4680
5FE0
4D40
5720
4440
47C0
ENDCHAR
STARTCHAR U_34A9
ENCODING 13481
SWIDTH 1000 0
DWIDTH 12 0
BBX 11 11 0 -1
BITMAP 
23C0
2480
5FE0
4540
DA80
4540
5FE0
5540
5FE0
4440
5EE0
ENDCHAR
STARTCHAR U_34AA
ENCODING 13482
SWIDTH 1000 0
DWIDTH 12 0
BBX 11 11 0 -1
BITMAP 
0600
1980
6060
FBC0
4200
7BC0
2000
B7E0
A140
BAA0
C580
ENDCHAR
STARTCHAR U_34AB
ENCODING 13483
SWIDTH 1000 0
DWIDTH 12 0
BBX 11 11 0 -1
BITMAP 
0000
3FC0
2000
3F80
2000
FFE0
1200
1200
1200
2220
C1E0
ENDCHAR
STARTCHAR U_34AC
ENCODING 13484
SWIDTH 1000 0
DWIDTH 12 0
BBX 11 11 0 -1
BITMAP 
0000
73E0
0080
0080
FBE0
5080
5080
53E0
5000
8820
87E0
ENDCHAR
STARTCHAR U_34AD
ENCODING 13485
SWIDTH 1000 0
DWIDTH 12 0
BBX 11 11 0 -1
BITMAP 
0000
FBE0
8A20
8A20
FBE0
5140
5140
5140
5A40
9240
8460
ENDCHAR
STARTCHAR U_34AE
ENCODING 13486
SWIDTH 1000 0
DWIDTH 12 0
BBX 11 11 0 -1
BITMAP 
0000
03C0
7100
06A0
F9C0
5280
55E0
52A0
5180
8820
87E0
ENDCHAR
STARTCHAR U_34AF
ENCODING 13487
SWIDTH 1000 0
DWIDTH 12 0
BBX 11 11 0 -1
BITMAP 
2440
2EE0
B440
6FE0
2540
FFE0
5540
5FE0
5900
57C0
8100
ENDCHAR
STARTCHAR U_34B0
ENCODING 13488
SWIDTH 1000 0
DWIDTH 12 0
BBX 11 11 0 -1
BITMAP 
3800
0400
0A00
1100
2080
C060
3F80
0400
0400
0400
FFE0
ENDCHAR
STARTCHAR U_34B1
ENCODING 13489
SWIDTH 1000 0
DWIDTH 12 0
BBX 11 11 0 -1
BITMAP 
1800
0400
0A00
1100
2480
CF60
1100
6D00
0200
0C00
7000
ENDCHAR
STARTCHAR U_34B2
ENCODING 13490
SWIDTH 1000 0
DWIDTH 12 0
BBX 11 11 0 -1
BITMAP 
1800
0400
0A00
3180
C060
3F80
2080
3F80
2080
3F80
2080
ENDCHAR
STARTCHAR U_34B3
ENCODING 13491
SWIDTH 1000 0
DWIDTH 12 0
BBX 11 11 0 -1
BITMAP 
FFE0
8420
8420
C620
A520
A520
D6A0
CE60
8420
84A0
8040
ENDCHAR
STARTCHAR U_34B4
ENCODING 13492
SWIDTH 1000 0
DWIDTH 12 0
BBX 11 11 0 -1
BITMAP 
1800
0600
1900
60C0
8420
2480
2480
3F80
4440
4440
7FC0
ENDCHAR
STARTCHAR U_34B5
ENCODING 13493
SWIDTH 1000 0
DWIDTH 12 0
BBX 11 11 0 -1
BITMAP 
0800
1000
7F80
4080
7F80
4080
7F80
0000
2100
40C0
8040
ENDCHAR
STARTCHAR U_34B6
ENCODING 13494
SWIDTH 1000 0
DWIDTH 12 0
BBX 11 11 0 -1
BITMAP 
0200
1100
1100
2080
C860
1000
3F80
2080
3F80
2080
3F80
ENDCHAR
STARTCHAR U_34B7
ENCODING 13495
SWIDTH 1000 0
DWIDTH 12 0
BBX 11 11 0 -1
BITMAP 
3F80
2080
2480
2480
2A80
3280
2080
FFE0
0000
1100
60C0
ENDCHAR
STARTCHAR U_34B8
ENCODING 13496
SWIDTH 1000 0
DWIDTH 12 0
BBX 11 11 0 -1
BITMAP 
2080
1100
FFE0
0400
0840
7480
0B00
7280
0640
FA20
0600
ENDCHAR
STARTCHAR U_34B9
ENCODING 13497
SWIDTH 1000 0
DWIDTH 12 0
BBX 11 11 0 -1
BITMAP 
2080
FBE0
2080
FBE0
8A20
AAA0
AAA0
AAA0
FFE0
5140
8A20
ENDCHAR
STARTCHAR U_34BA
ENCODING 13498
SWIDTH 1000 0
DWIDTH 12 0
BBX 11 11 0 -1
BITMAP 
FFE0
9120
8A20
FFE0
8420
A420
AA20
B120
A020
BFA0
8060
ENDCHAR
STARTCHAR U_34BB
ENCODING 13499
SWIDTH 1000 0
DWIDTH 12 0
BBX 11 11 0 -1
BITMAP 
7FC0
4040
5F40
4040
3F80
2080
3F80
2080
3F80
1120
61E0
ENDCHAR
STARTCHAR U_34BC
ENCODING 13500
SWIDTH 1000 0
DWIDTH 12 0
BBX 11 11 0 -1
BITMAP 
1100
FFE0
1100
1F00
0400
7FC0
6640
5540
6EC0
4440
44C0
ENDCHAR
STARTCHAR U_34BD
ENCODING 13501
SWIDTH 1000 0
DWIDTH 12 0
BBX 11 11 0 -1
BITMAP 
7FC0
4040
5F40
1500
3F80
0800
7FC0
2080
DF60
1140
1FC0
ENDCHAR
STARTCHAR U_34BE
ENCODING 13502
SWIDTH 1000 0
DWIDTH 12 0
BBX 11 11 0 -1
BITMAP 
7FC0
4040
5F40
2400
F7E0
4A80
77E0
52A0
52A0
5200
B1E0
ENDCHAR
STARTCHAR U_34BF
ENCODING 13503
SWIDTH 1000 0
DWIDTH 12 0
BBX 11 11 0 -1
BITMAP 
7FC0
4040
5F40
2180
FBE0
DE80
ABE0
FA80
ABE0
FA80
8BE0
ENDCHAR
STARTCHAR U_34C0
ENCODING 13504
SWIDTH 1000 0
DWIDTH 12 0
BBX 11 11 0 -1
BITMAP 
7FE0
4020
8440
0400
0600
0500
0480
0480
0400
0400
0400
ENDCHAR
STARTCHAR U_34C1
ENCODING 13505
SWIDTH 1000 0
DWIDTH 12 0
BBX 11 11 0 -1
BITMAP 
0000
7FE0
4040
9100
1080
2040
4040
0000
0000
0000
0000
ENDCHAR
STARTCHAR U_34C2
ENCODING 13506
SWIDTH 1000 0
DWIDTH 12 0
BBX 11 11 0 -1
BITMAP 
FFE0
8020
B920
07E0
F940
5240
5440
5280
5100
56E0
8FE0
ENDCHAR
STARTCHAR U_34C3
ENCODING 13507
SWIDTH 1000 0
DWIDTH 12 0
BBX 11 11 0 -1
BITMAP 
FFE0
9020
78C0
0700
7900
0100
79C0
0700
7900
4920
78E0
ENDCHAR
STARTCHAR U_34C4
ENCODING 13508
SWIDTH 1000 0
DWIDTH 12 0
BBX 11 11 0 -1
BITMAP 
2080
4BE0
FAA0
4AA0
9480
FC80
20C0
DCC0
3140
4940
F660
ENDCHAR
STARTCHAR U_34C5
ENCODING 13509
SWIDTH 1000 0
DWIDTH 12 0
BBX 11 11 0 -1
BITMAP 
0000
4FE0
2100
2100
0100
0100
2100
C100
4100
4100
4300
ENDCHAR
STARTCHAR U_34C6
ENCODING 13510
SWIDTH 1000 0
DWIDTH 12 0
BBX 11 11 0 -1
BITMAP 
4200
2200
2500
0880
3060
0480
4500
4600
C400
4420
47E0
ENDCHAR
STARTCHAR U_34C7
ENCODING 13511
SWIDTH 1000 0
DWIDTH 12 0
BBX 11 11 0 -1
BITMAP 
00C0
8F00
4200
0200
1FE0
0200
2200
4500
4480
8840
1020
ENDCHAR
STARTCHAR U_34C8
ENCODING 13512
SWIDTH 1000 0
DWIDTH 12 0
BBX 11 11 0 -1
BITMAP 
0000
9FE0
4200
0200
0400
0FC0
1440
4440
4440
87C0
0400
ENDCHAR
STARTCHAR U_34C9
ENCODING 13513
SWIDTH 1000 0
DWIDTH 12 0
BBX 11 11 0 -1
BITMAP 
00C0
8F00
4200
0200
1FE0
0200
2FC0
4840
4840
8FC0
0800
ENDCHAR
STARTCHAR U_34CA
ENCODING 13514
SWIDTH 1000 0
DWIDTH 12 0
BBX 11 11 0 -1
BITMAP 
4FE0
2820
2BA0
0820
0BA0
0AA0
2AA0
CAA0
4BA0
4820
4860
ENDCHAR
STARTCHAR U_34CB
ENCODING 13515
SWIDTH 1000 0
DWIDTH 12 0
BBX 11 11 0 -1
BITMAP 
8480
4480
2FC0
2480
0480
0480
3FE0
C000
4480
4840
5020
ENDCHAR
STARTCHAR U_34CC
ENCODING 13516
SWIDTH 1000 0
DWIDTH 12 0
BBX 11 11 0 -1
BITMAP 
8200
4200
2500
0880
3060
0F80
2200
CF80
4200
4200
5FE0
ENDCHAR
STARTCHAR U_34CD
ENCODING 13517
SWIDTH 1000 0
DWIDTH 12 0
BBX 11 11 0 -1
BITMAP 
8200
5FE0
2400
2480
08C0
0F40
2500
C500
4500
4920
50E0
ENDCHAR
STARTCHAR U_34CE
ENCODING 13518
SWIDTH 1000 0
DWIDTH 12 0
BBX 11 11 0 -1
BITMAP 
8FC0
4040
2FE0
2040
1FE0
1020
2FC0
C440
4280
4100
4EE0
ENDCHAR
STARTCHAR U_34CF
ENCODING 13519
SWIDTH 1000 0
DWIDTH 12 0
BBX 11 11 0 -1
BITMAP 
9FE0
5020
54A0
1860
1020
57A0
54A0
D4A0
57A0
5020
5060
ENDCHAR
STARTCHAR U_34D0
ENCODING 13520
SWIDTH 1000 0
DWIDTH 12 0
BBX 11 11 0 -1
BITMAP 
8100
47C0
2100
2FE0
0440
0440
2960
C100
47C0
4100
4FE0
ENDCHAR
STARTCHAR U_34D1
ENCODING 13521
SWIDTH 1000 0
DWIDTH 12 0
BBX 11 11 0 -1
BITMAP 
8100
4FE0
2100
2FE0
0440
0FE0
2100
CFE0
4100
4100
4100
ENDCHAR
STARTCHAR U_34D2
ENCODING 13522
SWIDTH 1000 0
DWIDTH 12 0
BBX 11 11 0 -1
BITMAP 
4200
22E0
1F00
E220
41E0
0400
1B00
E4E0
2480
4540
0C80
ENDCHAR
STARTCHAR U_34D3
ENCODING 13523
SWIDTH 1000 0
DWIDTH 12 0
BBX 11 11 0 -1
BITMAP 
0100
4FE0
2100
2FE0
0AA0
0FE0
2920
CFE0
4920
4920
4960
ENDCHAR
STARTCHAR U_34D4
ENCODING 13524
SWIDTH 1000 0
DWIDTH 12 0
BBX 11 11 0 -1
BITMAP 
4440
4E40
2BE0
2E40
0A40
0F40
2AC0
DE40
4640
4A40
56C0
ENDCHAR
STARTCHAR U_34D5
ENCODING 13525
SWIDTH 1000 0
DWIDTH 12 0
BBX 11 11 0 -1
BITMAP 
4140
4FE0
2880
2F80
0AA0
0FA0
2A40
CA40
4D40
50E0
5320
ENDCHAR
STARTCHAR U_34D6
ENCODING 13526
SWIDTH 1000 0
DWIDTH 12 0
BBX 11 11 0 -1
BITMAP 
9FC0
5240
5FC0
1240
1FC0
0A80
3FE0
CA80
5FC0
4200
5FC0
ENDCHAR
STARTCHAR U_34D7
ENCODING 13527
SWIDTH 1000 0
DWIDTH 12 0
BBX 11 11 0 -1
BITMAP 
85E0
5EA0
44A0
1EA0
0520
1E60
44A0
CF00
4240
5FA0
4A80
ENDCHAR
STARTCHAR U_34D8
ENCODING 13528
SWIDTH 1000 0
DWIDTH 12 0
BBX 11 11 0 -1
BITMAP 
7FC0
5F40
4840
77C0
5540
7E40
5F40
4440
5F40
8460
BFA0
ENDCHAR
STARTCHAR U_34D9
ENCODING 13529
SWIDTH 1000 0
DWIDTH 12 0
BBX 11 11 0 -1
BITMAP 
0800
8420
BFA0
9120
8A20
8A20
8420
8A20
9120
A0A0
FFE0
ENDCHAR
STARTCHAR U_34DA
ENCODING 13530
SWIDTH 1000 0
DWIDTH 12 0
BBX 11 11 0 -1
BITMAP 
0020
7C20
1120
1120
1120
1120
1520
1920
F020
40A0
0040
ENDCHAR
STARTCHAR U_34DB
ENCODING 13531
SWIDTH 1000 0
DWIDTH 12 0
BBX 11 11 0 -1
BITMAP 
0000
03E0
7D20
1120
1120
1120
1520
F920
4220
04A0
1840
ENDCHAR
STARTCHAR U_34DC
ENCODING 13532
SWIDTH 1000 0
DWIDTH 12 0
BBX 11 11 0 -1
BITMAP 
2000
27E0
4920
9120
E120
2120
4120
8920
F620
04A0
1840
ENDCHAR
STARTCHAR U_34DD
ENCODING 13533
SWIDTH 1000 0
DWIDTH 12 0
BBX 11 11 0 -1
BITMAP 
2820
2920
7D20
2920
2920
2920
7D20
2920
2820
48A0
8840
ENDCHAR
STARTCHAR U_34DE
ENCODING 13534
SWIDTH 1000 0
DWIDTH 12 0
BBX 11 11 0 -1
BITMAP 
27E0
3920
E120
2120
3920
E120
2120
3920
E220
24A0
2840
ENDCHAR
STARTCHAR U_34DF
ENCODING 13535
SWIDTH 1000 0
DWIDTH 12 0
BBX 11 11 0 -1
BITMAP 
0820
7E20
4AA0
48A0
7EA0
62A0
54A0
48A0
5420
A220
8060
ENDCHAR
STARTCHAR U_34E0
ENCODING 13536
SWIDTH 1000 0
DWIDTH 12 0
BBX 11 11 0 -1
BITMAP 
2020
2020
3D20
2120
2120
2120
FD20
8520
8420
FCE0
8440
ENDCHAR
STARTCHAR U_34E1
ENCODING 13537
SWIDTH 1000 0
DWIDTH 12 0
BBX 11 11 0 -1
BITMAP 
6020
4020
7EA0
90A0
10A0
FEA0
10A0
92A0
9220
92E0
FE40
ENDCHAR
STARTCHAR U_34E2
ENCODING 13538
SWIDTH 1000 0
DWIDTH 12 0
BBX 11 11 0 -1
BITMAP 
2020
4020
7EA0
C4A0
24A0
18A0
66A0
82A0
7C20
44E0
7C40
ENDCHAR
STARTCHAR U_34E3
ENCODING 13539
SWIDTH 1000 0
DWIDTH 12 0
BBX 11 11 0 -1
BITMAP 
1020
1020
2920
4520
8320
7D20
0120
7D20
4420
44E0
7C20
ENDCHAR
STARTCHAR U_34E4
ENCODING 13540
SWIDTH 1000 0
DWIDTH 12 0
BBX 11 11 0 -1
BITMAP 
1020
1020
10A0
FEA0
10A0
7CA0
00A0
7CA0
4420
44E0
7C20
ENDCHAR
STARTCHAR U_34E5
ENCODING 13541
SWIDTH 1000 0
DWIDTH 12 0
BBX 11 11 0 -1
BITMAP 
2020
2420
AD20
7120
2120
FD20
0520
FD20
0420
FDE0
0040
ENDCHAR
STARTCHAR U_34E6
ENCODING 13542
SWIDTH 1000 0
DWIDTH 12 0
BBX 11 11 0 -1
BITMAP 
FC20
1020
2120
4120
FD20
8520
8520
FD20
8420
85E0
FC40
ENDCHAR
STARTCHAR U_34E7
ENCODING 13543
SWIDTH 1000 0
DWIDTH 12 0
BBX 11 11 0 -1
BITMAP 
1020
1820
24A0
52A0
88A0
7CA0
08A0
10A0
7C20
44A0
7C40
ENDCHAR
STARTCHAR U_34E8
ENCODING 13544
SWIDTH 1000 0
DWIDTH 12 0
BBX 11 11 0 -1
BITMAP 
1020
1020
FEA0
10A0
54A0
54A0
BAA0
92A0
2820
44E0
8440
ENDCHAR
STARTCHAR U_34E9
ENCODING 13545
SWIDTH 1000 0
DWIDTH 12 0
BBX 11 11 0 -1
BITMAP 
2020
3C20
48A0
90A0
7EA0
52A0
7EA0
52A0
7EA0
5220
9660
ENDCHAR
STARTCHAR U_34EA
ENCODING 13546
SWIDTH 1000 0
DWIDTH 12 0
BBX 11 11 0 -1
BITMAP 
2000
FBE0
8920
F920
8920
F920
8120
A120
9120
EA20
8C60
ENDCHAR
STARTCHAR U_34EB
ENCODING 13547
SWIDTH 1000 0
DWIDTH 12 0
BBX 11 11 0 -1
BITMAP 
1020
FE20
28A0
44A0
82A0
7CA0
28A0
FEA0
28A0
2820
4860
ENDCHAR
STARTCHAR U_34EC
ENCODING 13548
SWIDTH 1000 0
DWIDTH 12 0
BBX 11 11 0 -1
BITMAP 
1020
5420
FEA0
10A0
FEA0
28A0
44A0
FEA0
24A0
2420
CC60
ENDCHAR
STARTCHAR U_34ED
ENCODING 13549
SWIDTH 1000 0
DWIDTH 12 0
BBX 11 11 0 -1
BITMAP 
7C20
44A0
7CA0
44A0
7CA0
20A0
7EA0
D2A0
6AA0
7A20
0660
ENDCHAR
STARTCHAR U_34EE
ENCODING 13550
SWIDTH 1000 0
DWIDTH 12 0
BBX 11 11 0 -1
BITMAP 
FE20
9220
BAA0
92A0
FEA0
82A0
BAA0
AAA0
BA20
8220
8660
ENDCHAR
STARTCHAR U_34EF
ENCODING 13551
SWIDTH 1000 0
DWIDTH 12 0
BBX 11 11 0 -1
BITMAP 
2A20
2A20
5420
A8A0
54A0
2AA0
FEA0
92A0
FEA0
9220
FE60
ENDCHAR
STARTCHAR U_34F0
ENCODING 13552
SWIDTH 1000 0
DWIDTH 12 0
BBX 11 11 0 -1
BITMAP 
FF20
1020
7CA0
54A0
D6A0
FEA0
D6A0
D6A0
FE20
8220
FE60
ENDCHAR
STARTCHAR U_34F1
ENCODING 13553
SWIDTH 1000 0
DWIDTH 12 0
BBX 11 11 0 -1
BITMAP 
1020
2820
C6A0
78A0
02A0
E2A0
AAA0
EAA0
AA20
E220
A660
ENDCHAR
STARTCHAR U_34F2
ENCODING 13554
SWIDTH 1000 0
DWIDTH 12 0
BBX 11 11 0 -1
BITMAP 
0E20
7020
40A0
7EA0
42A0
7EA0
40A0
7EA0
6A20
7E20
AA60
ENDCHAR
STARTCHAR U_34F3
ENCODING 13555
SWIDTH 1000 0
DWIDTH 12 0
BBX 11 11 0 -1
BITMAP 
7C20
4420
7CA0
44A0
7CA0
00A0
FEA0
10A0
5C20
5020
BE60
ENDCHAR
STARTCHAR U_34F4
ENCODING 13556
SWIDTH 1000 0
DWIDTH 12 0
BBX 11 11 0 -1
BITMAP 
7C20
2020
FEA0
AAA0
AAA0
AAA0
10A0
FEA0
1020
28A0
C640
ENDCHAR
STARTCHAR U_34F5
ENCODING 13557
SWIDTH 1000 0
DWIDTH 12 0
BBX 11 11 0 -1
BITMAP 
EE20
AA20
EEA0
00A0
7CA0
00A0
FEA0
20A0
3C20
0420
3860
ENDCHAR
STARTCHAR U_34F6
ENCODING 13558
SWIDTH 1000 0
DWIDTH 12 0
BBX 11 11 0 -1
BITMAP 
5E20
EA20
4AA0
EAA0
4AA0
F6A0
50A0
FEA0
2820
4420
8260
ENDCHAR
STARTCHAR U_34F7
ENCODING 13559
SWIDTH 1000 0
DWIDTH 12 0
BBX 11 11 0 -1
BITMAP 
2020
7C20
44A0
7CA0
44A0
7CA0
10A0
FEA0
1020
5420
9260
ENDCHAR
STARTCHAR U_34F8
ENCODING 13560
SWIDTH 1000 0
DWIDTH 12 0
BBX 11 11 0 -1
BITMAP 
EE20
AA20
AAA0
EEA0
28A0
EEA0
82A0
EEA0
2820
2820
FE60
ENDCHAR
STARTCHAR U_34F9
ENCODING 13561
SWIDTH 1000 0
DWIDTH 12 0
BBX 11 11 0 -1
BITMAP 
7F20
4820
6AA0
5CA0
48A0
76A0
48A0
6AA0
5C20
4820
B660
ENDCHAR
STARTCHAR U_34FA
ENCODING 13562
SWIDTH 1000 0
DWIDTH 12 0
BBX 11 11 0 -1
BITMAP 
0E20
0820
7EA0
4AA0
7CA0
48A0
7EA0
54A0
5420
4820
B660
ENDCHAR
STARTCHAR U_34FB
ENCODING 13563
SWIDTH 1000 0
DWIDTH 12 0
BBX 11 11 0 -1
BITMAP 
FE20
AA20
AAA0
FEA0
00A0
FEA0
10A0
5CA0
5020
5E20
F060
ENDCHAR
STARTCHAR U_34FC
ENCODING 13564
SWIDTH 1000 0
DWIDTH 12 0
BBX 11 11 0 -1
BITMAP 
1020
FF20
38A0
54A0
92A0
28A0
C6A0
92A0
5420
9220
3060
ENDCHAR
STARTCHAR U_34FD
ENCODING 13565
SWIDTH 1000 0
DWIDTH 12 0
BBX 11 11 0 -1
BITMAP 
9220
FE20
10A0
FEA0
82A0
7CA0
00A0
FEA0
1020
5420
9260
ENDCHAR
STARTCHAR U_34FE
ENCODING 13566
SWIDTH 1000 0
DWIDTH 12 0
BBX 11 11 0 -1
BITMAP 
7E20
4220
7EA0
6AA0
5CA0
6AA0
48A0
5CA0
6820
BEA0
8840
ENDCHAR
STARTCHAR U_34FF
ENCODING 13567
SWIDTH 1000 0
DWIDTH 12 0
BBX 11 11 0 -1
BITMAP 
3C20
0820
FFA0
1CA0
2AA0
D5A0
2AA0
6BA0
9C20
2AA0
1860
ENDCHAR
STARTCHAR U_3500
ENCODING 13568
SWIDTH 1000 0
DWIDTH 12 0
BBX 11 11 0 -1
BITMAP 
3E20
2220
3EA0
08A0
FFA0
3EA0
22A0
3EA0
0820
2AA0
5960
ENDCHAR
STARTCHAR U_3501
ENCODING 13569
SWIDTH 1000 0
DWIDTH 12 0
BBX 11 11 0 -1
BITMAP 
E920
A6A0
4320
BD20
00A0
7EA0
42A0
7EA0
4220
24A0
FF40
ENDCHAR
STARTCHAR U_3502
ENCODING 13570
SWIDTH 1000 0
DWIDTH 12 0
BBX 11 11 0 -1
BITMAP 
9220
5420
FEA0
54A0
92A0
54A0
64A0
BEA0
54A0
5F20
8460
ENDCHAR
STARTCHAR U_3503
ENCODING 13571
SWIDTH 1000 0
DWIDTH 12 0
BBX 11 11 0 -1
BITMAP 
47E0
9120
F7E0
4520
97E0
F400
AFE0
0000
FFE0
0820
7060
ENDCHAR
STARTCHAR U_3504
ENCODING 13572
SWIDTH 1000 0
DWIDTH 12 0
BBX 11 11 0 -1
BITMAP 
FE20
2820
FEA0
AAA0
FEA0
10A0
54A0
FEA0
10A0
5420
9260
ENDCHAR
STARTCHAR U_3505
ENCODING 13573
SWIDTH 1000 0
DWIDTH 12 0
BBX 11 11 0 -1
BITMAP 
1020
7C20
1420
FEA0
14A0
7EA0
52A0
7EA0
5220
7620
B260
ENDCHAR
STARTCHAR U_3506
ENCODING 13574
SWIDTH 1000 0
DWIDTH 12 0
BBX 11 11 0 -1
BITMAP 
0020
EE20
AAA0
EEA0
55A0
AAA0
7CA0
44A0
7C20
44A0
7C40
ENDCHAR
STARTCHAR U_3507
ENCODING 13575
SWIDTH 1000 0
DWIDTH 12 0
BBX 11 11 0 -1
BITMAP 
EA20
2CA0
ABA0
44A0
EEA0
2AA0
F1A0
8EA0
EA20
24A0
6B40
ENDCHAR
STARTCHAR U_3508
ENCODING 13576
SWIDTH 1000 0
DWIDTH 12 0
BBX 11 11 0 -1
BITMAP 
2820
FE20
28A0
00A0
28A0
EEA0
28A0
EEA0
2820
EE20
2860
ENDCHAR
STARTCHAR U_3509
ENCODING 13577
SWIDTH 1000 0
DWIDTH 12 0
BBX 11 11 0 -1
BITMAP 
7E20
4220
7EA0
5CA0
6AA0
7EA0
48A0
7E20
AA20
BEA0
A240
ENDCHAR
STARTCHAR U_350A
ENCODING 13578
SWIDTH 1000 0
DWIDTH 12 0
BBX 11 11 0 -1
BITMAP 
1020
FE20
00A0
FEA0
BAA0
82A0
FEA0
44A0
7C20
4420
FE60
ENDCHAR
STARTCHAR U_350B
ENCODING 13579
SWIDTH 1000 0
DWIDTH 12 0
BBX 11 11 0 -1
BITMAP 
F420
A720
F420
98A0
F0A0
A7A0
F0A0
00A0
7F20
5520
FFE0
ENDCHAR
STARTCHAR U_350C
ENCODING 13580
SWIDTH 1000 0
DWIDTH 12 0
BBX 11 11 0 -1
BITMAP 
EE20
A220
EAA0
A4A0
EAA0
30A0
06A0
F820
5420
BAA0
1060
ENDCHAR
STARTCHAR U_350D
ENCODING 13581
SWIDTH 1000 0
DWIDTH 12 0
BBX 11 11 0 -1
BITMAP 
4420
7720
AAA0
7EA0
5AA0
5AA0
7EA0
2420
FE20
24A0
4440
ENDCHAR
STARTCHAR U_350E
ENCODING 13582
SWIDTH 1000 0
DWIDTH 12 0
BBX 11 11 0 -1
BITMAP 
A880
FBE0
4140
FBE0
8880
FBE0
8880
F880
7FE0
0820
7060
ENDCHAR
STARTCHAR U_350F
ENCODING 13583
SWIDTH 1000 0
DWIDTH 12 0
BBX 11 11 0 -1
BITMAP 
FF20
2020
7EA0
A2A0
3EA0
00A0
FFA0
44A0
FF20
5520
7760
ENDCHAR
STARTCHAR U_3510
ENCODING 13584
SWIDTH 1000 0
DWIDTH 12 0
BBX 11 11 0 -1
BITMAP 
4220
7BA0
A520
FEA0
28A0
EEA0
28A0
EEA0
2820
EE20
FE60
ENDCHAR
STARTCHAR U_3511
ENCODING 13585
SWIDTH 1000 0
DWIDTH 12 0
BBX 11 11 0 -1
BITMAP 
1100
FBE0
5100
8080
FBE0
8940
FBE0
8880
FFE0
1020
E060
ENDCHAR
STARTCHAR U_3512
ENCODING 13586
SWIDTH 1000 0
DWIDTH 12 0
BBX 11 11 0 -1
BITMAP 
9220
FE20
48A0
FEA0
48A0
7EA0
48A0
FEA0
BA20
EE20
BA60
ENDCHAR
STARTCHAR U_3513
ENCODING 13587
SWIDTH 1000 0
DWIDTH 12 0
BBX 11 11 0 -1
BITMAP 
1C80
F080
13E0
10A0
FCA0
10A0
10A0
10A0
10A0
1120
1660
ENDCHAR
STARTCHAR U_3514
ENCODING 13588
SWIDTH 1000 0
DWIDTH 12 0
BBX 11 11 0 -1
BITMAP 
2000
FDE0
2520
2520
4520
8DE0
0000
3F80
4040
4040
3F80
ENDCHAR
STARTCHAR U_3515
ENCODING 13589
SWIDTH 1000 0
DWIDTH 12 0
BBX 11 11 0 -1
BITMAP 
4100
7D00
83E0
7D20
0120
F920
0920
0920
0A20
0A20
0460
ENDCHAR
STARTCHAR U_3516
ENCODING 13590
SWIDTH 1000 0
DWIDTH 12 0
BBX 11 11 0 -1
BITMAP 
2000
FDE0
2520
2520
2520
CDE0
0000
7FC0
0040
0040
0040
ENDCHAR
STARTCHAR U_3517
ENCODING 13591
SWIDTH 1000 0
DWIDTH 12 0
BBX 11 11 0 -1
BITMAP 
2880
2880
FE80
2BE0
FEA0
A8A0
FEA0
2AA0
2AA0
2EA0
4960
ENDCHAR
STARTCHAR U_3518
ENCODING 13592
SWIDTH 1000 0
DWIDTH 12 0
BBX 11 11 0 -1
BITMAP 
2100
A900
A900
AFE0
F920
2120
A920
A920
AA20
FAA0
8C40
ENDCHAR
STARTCHAR U_3519
ENCODING 13593
SWIDTH 1000 0
DWIDTH 12 0
BBX 11 11 0 -1
BITMAP 
8480
4880
FC80
4BE0
48A0
48A0
FCA0
4920
4920
4920
8A60
ENDCHAR
STARTCHAR U_351A
ENCODING 13594
SWIDTH 1000 0
DWIDTH 12 0
BBX 11 11 0 -1
BITMAP 
0840
3040
5080
1480
FBE0
1120
7920
4A40
3A40
24C0
0000
ENDCHAR
STARTCHAR U_351B
ENCODING 13595
SWIDTH 1000 0
DWIDTH 12 0
BBX 11 11 0 -1
BITMAP 
0400
FFE0
0400
7FC0
2080
3F80
0400
FFE0
0420
0820
F0C0
ENDCHAR
STARTCHAR U_351C
ENCODING 13596
SWIDTH 1000 0
DWIDTH 12 0
BBX 11 11 0 -1
BITMAP
1F00
E500
5500
2BE0
7D20
0920
1120
1D20
F220
1220
34C0
ENDCHAR
STARTCHAR U_351D
ENCODING 13597
SWIDTH 1000 0
DWIDTH 12 0
BBX 11 11 0 -1
BITMAP 
FE80
1080
11E0
FEA0
92A0
DAA0
B6A0
DAA0
92A0
9320
9640
ENDCHAR
STARTCHAR U_351E
ENCODING 13598
SWIDTH 1000 0
DWIDTH 12 0
BBX 11 11 0 -1
BITMAP 
1C80
E080
11E0
FEA0
10A0
54A0
D6A0
54A0
D6A0
1120
1140
ENDCHAR
STARTCHAR U_351F
ENCODING 13599
SWIDTH 1000 0
DWIDTH 12 0
BBX 11 11 0 -1
BITMAP 
5100
7FC0
9140
7FC0
1140
FE60
0400
FFE0
0420
1820
E060
ENDCHAR
STARTCHAR U_3520
ENCODING 13600
SWIDTH 1000 0
DWIDTH 12 0
BBX 11 11 0 -1
BITMAP 
FC80
8480
FC80
87E0
FCA0
40A0
7CA0
9520
AD20
F520
0A40
ENDCHAR
STARTCHAR U_3521
ENCODING 13601
SWIDTH 1000 0
DWIDTH 12 0
BBX 11 11 0 -1
BITMAP 
4080
FE80
ABE0
92A0
FEA0
00A0
88A0
ED20
8920
A920
CE60
ENDCHAR
STARTCHAR U_3522
ENCODING 13602
SWIDTH 1000 0
DWIDTH 12 0
BBX 11 11 0 -1
BITMAP 
43E0
9440
63E0
62A0
F3E0
0A00
ABE0
0400
FFE0
1020
60C0
ENDCHAR
STARTCHAR U_3523
ENCODING 13603
SWIDTH 1000 0
DWIDTH 12 0
BBX 11 11 0 -1
BITMAP 
7C80
5480
7DE0
54A0
7CA0
00A0
FEA0
AAA0
FEA0
AAA0
FF60
ENDCHAR
STARTCHAR U_3524
ENCODING 13604
SWIDTH 1000 0
DWIDTH 12 0
BBX 11 11 0 -1
BITMAP 
1080
FE80
8280
7DE0
54A0
FEA0
54A0
D6A0
7CA0
5520
7E60
ENDCHAR
STARTCHAR U_3525
ENCODING 13605
SWIDTH 1000 0
DWIDTH 12 0
BBX 11 11 0 -1
BITMAP 
FE80
AA80
FE80
49E0
AEA0
E8A0
A6A0
E8A0
AEA0
E8A0
A760
ENDCHAR
STARTCHAR U_3526
ENCODING 13606
SWIDTH 1000 0
DWIDTH 12 0
BBX 11 11 0 -1
BITMAP 
4880
FC80
2080
FBE0
20A0
FCA0
50A0
FD20
6920
5120
6A60
ENDCHAR
STARTCHAR U_3527
ENCODING 13607
SWIDTH 1000 0
DWIDTH 12 0
BBX 11 11 0 -1
BITMAP 
3C80
2080
FE80
A5E0
F8A0
A0A0
BCA0
A4A0
BCA0
A520
7E60
ENDCHAR
STARTCHAR U_3528
ENCODING 13608
SWIDTH 1000 0
DWIDTH 12 0
BBX 11 11 0 -1
BITMAP 
FFE0
8A20
3BA0
0A20
7BE0
0020
1F20
1120
1F20
1120
2360
ENDCHAR
STARTCHAR U_3529
ENCODING 13609
SWIDTH 1000 0
DWIDTH 12 0
BBX 11 11 0 -1
BITMAP 
2000
3FE0
4420
BFA0
0420
7FA0
1220
7FA0
54A0
FFA0
0060
ENDCHAR
STARTCHAR U_352A
ENCODING 13610
SWIDTH 1000 0
DWIDTH 12 0
BBX 11 11 0 -1
BITMAP 
2000
3FE0
4820
8F20
0820
7FA0
55A0
4AA0
6DA0
52A0
7FE0
ENDCHAR
STARTCHAR U_352B
ENCODING 13611
SWIDTH 1000 0
DWIDTH 12 0
BBX 11 11 0 -1
BITMAP 
0800
0800
FFE0
0800
0800
1420
14C0
2700
2400
4420
83E0
ENDCHAR
STARTCHAR U_352C
ENCODING 13612
SWIDTH 1000 0
DWIDTH 12 0
BBX 11 11 0 -1
BITMAP 
41C0
7E00
4020
3FE0
2080
3F80
2080
3F80
0400
FFE0
0400
ENDCHAR
STARTCHAR U_352D
ENCODING 13613
SWIDTH 1000 0
DWIDTH 12 0
BBX 11 11 0 -1
BITMAP 
87C0
8440
87C0
F440
87C0
8000
9FE0
8100
A5C0
C500
1BE0
ENDCHAR
STARTCHAR U_352E
ENCODING 13614
SWIDTH 1000 0
DWIDTH 12 0
BBX 11 11 0 -1
BITMAP 
5240
FA60
5540
FF40
A860
FF00
2540
FF60
2540
5740
8560
ENDCHAR
STARTCHAR U_352F
ENCODING 13615
SWIDTH 1000 0
DWIDTH 12 0
BBX 11 11 0 -1
BITMAP 
FFE0
8000
9F80
9080
A060
DF80
9080
9080
9F80
8000
FFE0
ENDCHAR
STARTCHAR U_3530
ENCODING 13616
SWIDTH 1000 0
DWIDTH 12 0
BBX 11 11 0 -1
BITMAP 
FFE0
9100
9100
9D00
A580
D540
8920
9100
A100
C100
FFE0
ENDCHAR
STARTCHAR U_3531
ENCODING 13617
SWIDTH 1000 0
DWIDTH 12 0
BBX 11 11 0 -1
BITMAP 
FFE0
8A00
B2C0
A240
BAC0
A240
BFC0
8200
8D80
B040
FFE0
ENDCHAR
STARTCHAR U_3532
ENCODING 13618
SWIDTH 1000 0
DWIDTH 12 0
BBX 11 11 0 -1
BITMAP 
FFE0
9100
A900
D3C0
B940
A940
B940
A140
A960
B200
FFE0
ENDCHAR
STARTCHAR U_3533
ENCODING 13619
SWIDTH 1000 0
DWIDTH 12 0
BBX 11 11 0 -1
BITMAP 
FFE0
9000
AB80
D280
BA80
AA80
BA80
A2A0
AAA0
B460
FFE0
ENDCHAR
STARTCHAR U_3534
ENCODING 13620
SWIDTH 1000 0
DWIDTH 12 0
BBX 11 11 0 -1
BITMAP 
FFE0
A480
BF80
A480
BF80
8A00
BF80
8A00
BFC0
9080
FFE0
ENDCHAR
STARTCHAR U_3535
ENCODING 13621
SWIDTH 1000 0
DWIDTH 12 0
BBX 11 11 0 -1
BITMAP 
FFE0
A540
BDC0
A100
BDC0
8900
9F80
8900
BFC0
9080
FFE0
ENDCHAR
STARTCHAR U_3536
ENCODING 13622
SWIDTH 1000 0
DWIDTH 12 0
BBX 11 11 0 -1
BITMAP 
FFE0
9100
FDC0
AB40
FC80
AB60
B9C0
9140
FDC0
9220
FFE0
ENDCHAR
STARTCHAR U_3537
ENCODING 13623
SWIDTH 1000 0
DWIDTH 12 0
BBX 11 11 0 -1
BITMAP 
FFE0
8000
BFC0
8400
BFC0
A440
AA40
B140
A0C0
8000
FFE0
ENDCHAR
STARTCHAR U_3538
ENCODING 13624
SWIDTH 1000 0
DWIDTH 12 0
BBX 11 11 0 -1
BITMAP 
FFE0
8040
BF80
A200
AFC0
AA40
AF80
AA00
ABA0
D4A0
FFE0
ENDCHAR
STARTCHAR U_3539
ENCODING 13625
SWIDTH 1000 0
DWIDTH 12 0
BBX 11 11 0 -1
BITMAP 
2100
2100
27E0
F120
2120
2120
2120
2220
2220
24A0
2840
ENDCHAR
STARTCHAR U_353A
ENCODING 13626
SWIDTH 1000 0
DWIDTH 12 0
BBX 11 11 0 -1
BITMAP 
0400
0400
FFE0
0400
2480
2080
FBE0
2080
2080
2020
1FE0
ENDCHAR
STARTCHAR U_353B
ENCODING 13627
SWIDTH 1000 0
DWIDTH 12 0
BBX 11 11 0 -1
BITMAP 
FFE0
0200
0400
1D80
E460
0400
0000
0400
FFE0
0400
0400
ENDCHAR
STARTCHAR U_353C
ENCODING 13628
SWIDTH 1000 0
DWIDTH 12 0
BBX 11 11 0 -1
BITMAP 
2280
F7E0
2C80
37E0
E480
27E0
2480
67E0
0400
FFE0
0400
ENDCHAR
STARTCHAR U_353D
ENCODING 13629
SWIDTH 1000 0
DWIDTH 12 0
BBX 11 11 0 -1
BITMAP 
0800
0F80
0800
0800
FFE0
8020
9F20
9120
9F20
8020
FFE0
ENDCHAR
STARTCHAR U_353E
ENCODING 13630
SWIDTH 1000 0
DWIDTH 12 0
BBX 11 11 0 -1
BITMAP 
7F80
4080
4080
4080
4080
4280
4100
4000
4020
4020
3FE0
ENDCHAR
STARTCHAR U_353F
ENCODING 13631
SWIDTH 1000 0
DWIDTH 12 0
BBX 11 11 0 -1
BITMAP 
FFE0
2080
2080
2080
2080
2080
2080
2780
3880
0080
0080
ENDCHAR
STARTCHAR U_3540
ENCODING 13632
SWIDTH 1000 0
DWIDTH 12 0
BBX 11 11 0 -1
BITMAP 
0400
7FC0
4440
7FC0
4440
7FC0
0000
7F80
4080
4120
3FE0
ENDCHAR
STARTCHAR U_3541
ENCODING 13633
SWIDTH 1000 0
DWIDTH 12 0
BBX 11 11 0 -1
BITMAP 
85E0
4920
3120
CD20
2120
FD20
2120
5120
5160
A500
7D00
ENDCHAR
STARTCHAR U_3542
ENCODING 13634
SWIDTH 1000 0
DWIDTH 12 0
BBX 11 11 0 -1
BITMAP 
7FE0
4200
4500
58C0
6020
4400
4200
5FC0
4080
4100
8200
ENDCHAR
STARTCHAR U_3543
ENCODING 13635
SWIDTH 1000 0
DWIDTH 12 0
BBX 11 11 0 -1
BITMAP 
7FE0
4000
5FE0
4480
4480
5FE0
4480
4480
4480
4880
9080
ENDCHAR
STARTCHAR U_3544
ENCODING 13636
SWIDTH 1000 0
DWIDTH 12 0
BBX 11 11 0 -1
BITMAP 
7FE0
4000
5FE0
4400
4880
5F00
4200
4400
4840
93E0
9C20
ENDCHAR
STARTCHAR U_3545
ENCODING 13637
SWIDTH 1000 0
DWIDTH 12 0
BBX 11 11 0 -1
BITMAP 
7FE0
4000
5FC0
5240
5240
5FC0
5240
5FC0
4200
4200
8200
ENDCHAR
STARTCHAR U_3546
ENCODING 13638
SWIDTH 1000 0
DWIDTH 12 0
BBX 11 11 0 -1
BITMAP 
7FE0
4200
4200
7FE0
4200
4200
5FC0
5040
5040
5040
9FC0
ENDCHAR
STARTCHAR U_3547
ENCODING 13639
SWIDTH 1000 0
DWIDTH 12 0
BBX 11 11 0 -1
BITMAP 
7FE0
4400
4200
5FC0
4000
4880
4880
4880
4500
4500
BFE0
ENDCHAR
STARTCHAR U_3548
ENCODING 13640
SWIDTH 1000 0
DWIDTH 12 0
BBX 11 11 0 -1
BITMAP 
7FE0
4400
4200
7FE0
4400
4A40
7A80
4900
4900
4880
8C60
ENDCHAR
STARTCHAR U_3549
ENCODING 13641
SWIDTH 1000 0
DWIDTH 12 0
BBX 11 11 0 -1
BITMAP 
7FE0
4200
4500
4880
7060
4F80
4000
5FC0
5040
9040
9FC0
ENDCHAR
STARTCHAR U_354A
ENCODING 13642
SWIDTH 1000 0
DWIDTH 12 0
BBX 11 11 0 -1
BITMAP 
7FE0
4240
7FE0
4200
5FE0
5220
5FE0
5220
5FE0
5220
9260
ENDCHAR
STARTCHAR U_354B
ENCODING 13643
SWIDTH 1000 0
DWIDTH 12 0
BBX 11 11 0 -1
BITMAP 
7FE0
4200
4500
4880
7060
4F80
4200
5FC0
4200
8A80
BFE0
ENDCHAR
STARTCHAR U_354C
ENCODING 13644
SWIDTH 1000 0
DWIDTH 12 0
BBX 11 11 0 -1
BITMAP 
7FE0
4000
5FC0
5040
5FC0
5040
5FC0
4080
7FE0
4880
8180
ENDCHAR
STARTCHAR U_354D
ENCODING 13645
SWIDTH 1000 0
DWIDTH 12 0
BBX 11 11 0 -1
BITMAP 
7FC0
4000
4A00
5100
77C0
5100
57C0
5100
57C0
5100
97C0
ENDCHAR
STARTCHAR U_354E
ENCODING 13646
SWIDTH 1000 0
DWIDTH 12 0
BBX 11 11 0 -1
BITMAP 
7FE0
4200
4F80
4200
5FC0
4480
4FC0
4000
5FC0
5540
BFE0
ENDCHAR
STARTCHAR U_354F
ENCODING 13647
SWIDTH 1000 0
DWIDTH 12 0
BBX 11 11 0 -1
BITMAP 
7FE0
4000
5C40
4140
5C40
5540
5C40
41E0
5440
4840
9C40
ENDCHAR
STARTCHAR U_3550
ENCODING 13648
SWIDTH 1000 0
DWIDTH 12 0
BBX 11 11 0 -1
BITMAP 
7FE0
4400
59C0
5040
5DC0
5000
5FE0
4020
5520
6AA0
8060
ENDCHAR
STARTCHAR U_3551
ENCODING 13649
SWIDTH 1000 0
DWIDTH 12 0
BBX 11 11 0 -1
BITMAP 
7FE0
4000
4840
5C40
49E0
5C40
5540
5C40
5440
48C0
9C40
ENDCHAR
STARTCHAR U_3552
ENCODING 13650
SWIDTH 1000 0
DWIDTH 12 0
BBX 11 11 0 -1
BITMAP 
7FE0
4880
5FC0
4200
5FC0
4920
5FC0
4940
5C80
48A0
9940
ENDCHAR
STARTCHAR U_3553
ENCODING 13651
SWIDTH 1000 0
DWIDTH 12 0
BBX 11 11 0 -1
BITMAP 
7FE0
5240
5540
5FC0
4200
7FE0
5540
6220
5FC0
4200
BFE0
ENDCHAR
STARTCHAR U_3554
ENCODING 13652
SWIDTH 1000 0
DWIDTH 12 0
BBX 11 11 0 -1
BITMAP 
7FE0
54C0
5FE0
56A0
5FE0
5400
5FE0
7620
5D40
55A0
A640
ENDCHAR
STARTCHAR U_3555
ENCODING 13653
SWIDTH 1000 0
DWIDTH 12 0
BBX 11 11 0 -1
BITMAP 
0400
0800
1100
2080
7FC0
0420
0800
1100
2080
7FC0
0020
ENDCHAR
STARTCHAR U_3556
ENCODING 13654
SWIDTH 1000 0
DWIDTH 12 0
BBX 11 11 0 -1
BITMAP 
0800
1200
3F00
1080
2940
7BE0
0400
FFE0
1500
2480
4440
ENDCHAR
STARTCHAR U_3557
ENCODING 13655
SWIDTH 1000 0
DWIDTH 12 0
BBX 11 11 0 -1
BITMAP 
4400
FE00
1080
7C80
1100
FD40
1240
3FE0
4420
9800
27E0
ENDCHAR
STARTCHAR U_3558
ENCODING 13656
SWIDTH 1000 0
DWIDTH 12 0
BBX 11 11 0 -1
BITMAP 
1100
3F80
2080
5140
FBE0
0400
1B00
2480
CE60
1500
2C80
ENDCHAR
STARTCHAR U_3559
ENCODING 13657
SWIDTH 1000 0
DWIDTH 12 0
BBX 11 11 0 -1
BITMAP 
2080
51C0
FA40
5080
9BE0
22A0
7BE0
D080
21C0
52A0
8CE0
ENDCHAR
STARTCHAR U_355A
ENCODING 13658
SWIDTH 1000 0
DWIDTH 12 0
BBX 11 11 0 -1
BITMAP 
0000
7FC0
2840
2480
9480
4900
4600
0600
0900
3080
C060
ENDCHAR
STARTCHAR U_355B
ENCODING 13659
SWIDTH 1000 0
DWIDTH 12 0
BBX 11 11 0 -1
BITMAP 
7FC0
0080
3100
0E00
3180
C040
7F80
2080
1100
0E00
F1E0
ENDCHAR
STARTCHAR U_355C
ENCODING 13660
SWIDTH 1000 0
DWIDTH 12 0
BBX 11 11 0 -1
BITMAP 
0400
7FC0
4440
4440
7FC0
0400
7FC0
2080
1100
0E00
71C0
ENDCHAR
STARTCHAR U_355D
ENCODING 13661
SWIDTH 1000 0
DWIDTH 12 0
BBX 11 11 0 -1
BITMAP 
0400
FFE0
0400
7FC0
4040
7FC0
0000
7F80
2080
1F00
E0E0
ENDCHAR
STARTCHAR U_355E
ENCODING 13662
SWIDTH 1000 0
DWIDTH 12 0
BBX 11 11 0 -1
BITMAP 
7E00
42E0
7EA0
48A0
48A0
7EA0
6AA0
AA40
2A40
2EA0
0920
ENDCHAR
STARTCHAR U_355F
ENCODING 13663
SWIDTH 1000 0
DWIDTH 12 0
BBX 11 11 0 -1
BITMAP 
1000
1E00
11E0
FEA0
AAA0
AAA0
FEA0
AA40
AA40
AAA0
8720
ENDCHAR
STARTCHAR U_3560
ENCODING 13664
SWIDTH 1000 0
DWIDTH 12 0
BBX 11 11 0 -1
BITMAP 
8900
4FE0
3900
0FE0
0900
2FE0
4900
BFE0
2080
1F00
E0E0
ENDCHAR
STARTCHAR U_3561
ENCODING 13665
SWIDTH 1000 0
DWIDTH 12 0
BBX 11 11 0 -1
BITMAP 
3800
23E0
FD20
8520
7920
30C0
48C0
78C0
B540
4920
7A20
ENDCHAR
STARTCHAR U_3562
ENCODING 13666
SWIDTH 1000 0
DWIDTH 12 0
BBX 11 11 0 -1
BITMAP 
3BE0
2020
FD20
8520
7940
4940
7880
4880
7880
4940
8620
ENDCHAR
STARTCHAR U_3563
ENCODING 13667
SWIDTH 1000 0
DWIDTH 12 0
BBX 11 11 0 -1
BITMAP 
0900
0900
0900
1080
2080
4040
BFA0
2080
2080
2080
3F80
ENDCHAR
STARTCHAR U_3564
ENCODING 13668
SWIDTH 1000 0
DWIDTH 12 0
BBX 11 11 0 -1
BITMAP 
0200
0200
F200
9F80
9280
9280
9280
9280
F280
04A0
18E0
ENDCHAR
STARTCHAR U_3565
ENCODING 13669
SWIDTH 1000 0
DWIDTH 12 0
BBX 11 11 0 -1
BITMAP 
0100
0100
F100
9100
9100
9100
9100
9280
F280
0440
1820
ENDCHAR
STARTCHAR U_3566
ENCODING 13670
SWIDTH 1000 0
DWIDTH 12 0
BBX 11 11 0 -1
BITMAP 
3F80
2080
2080
3F80
0400
0400
FFE0
0A00
1100
2080
C060
ENDCHAR
STARTCHAR U_3567
ENCODING 13671
SWIDTH 1000 0
DWIDTH 12 0
BBX 11 11 0 -1
BITMAP 
07E0
F420
9420
97E0
9400
9400
9400
F400
0400
0800
3000
ENDCHAR
STARTCHAR U_3568
ENCODING 13672
SWIDTH 1000 0
DWIDTH 12 0
BBX 11 11 0 -1
BITMAP 
0780
0480
F480
9480
9680
9580
9480
9480
F480
08A0
1060
ENDCHAR
STARTCHAR U_3569
ENCODING 13673
SWIDTH 1000 0
DWIDTH 12 0
BBX 11 11 0 -1
BITMAP 
0100
0100
FFE0
9100
9100
97C0
9100
9100
FFE0
0100
0100
ENDCHAR
STARTCHAR U_356A
ENCODING 13674
SWIDTH 1000 0
DWIDTH 12 0
BBX 11 11 0 -1
BITMAP 
0100
0100
EFE0
A920
A920
A100
A280
E280
02A0
0CA0
3060
ENDCHAR
STARTCHAR U_356B
ENCODING 13675
SWIDTH 1000 0
DWIDTH 12 0
BBX 11 11 0 -1
BITMAP 
0100
0FE0
F400
9400
97C0
9440
9440
F440
0440
0940
1080
ENDCHAR
STARTCHAR U_356C
ENCODING 13676
SWIDTH 1000 0
DWIDTH 12 0
BBX 11 11 0 -1
BITMAP 
0080
0280
F240
9440
9420
9920
9100
9280
F240
04A0
0720
ENDCHAR
STARTCHAR U_356D
ENCODING 13677
SWIDTH 1000 0
DWIDTH 12 0
BBX 11 11 0 -1
BITMAP 
00C0
0300
ED00
A100
A100
AFE0
A100
A280
E480
0840
1020
ENDCHAR
STARTCHAR U_356E
ENCODING 13678
SWIDTH 1000 0
DWIDTH 12 0
BBX 11 11 0 -1
BITMAP 
0280
0440
E820
A440
A440
A280
A280
A100
E280
0440
0820
ENDCHAR
STARTCHAR U_356F
ENCODING 13679
SWIDTH 1000 0
DWIDTH 12 0
BBX 11 11 0 -1
BITMAP 
0800
0400
7FC0
4A40
5140
7FC0
5140
5140
5F40
4140
40C0
ENDCHAR
STARTCHAR U_3570
ENCODING 13680
SWIDTH 1000 0
DWIDTH 12 0
BBX 11 11 0 -1
BITMAP 
01C0
1E00
E200
A380
BE00
A200
A3C0
FE00
A220
0220
01E0
ENDCHAR
STARTCHAR U_3571
ENCODING 13681
SWIDTH 1000 0
DWIDTH 12 0
BBX 11 11 0 -1
BITMAP 
0280
F240
9FE0
9200
9200
9280
9280
9280
F280
04A0
1860
ENDCHAR
STARTCHAR U_3572
ENCODING 13682
SWIDTH 1000 0
DWIDTH 12 0
BBX 11 11 0 -1
BITMAP 
0100
0100
F100
9FE0
9100
9380
9380
9540
F540
0920
1120
ENDCHAR
STARTCHAR U_3573
ENCODING 13683
SWIDTH 1000 0
DWIDTH 12 0
BBX 11 11 0 -1
BITMAP 
0020
08A0
EAA0
AAA0
AAA0
A920
A920
EAA0
0C60
0FE0
0020
ENDCHAR
STARTCHAR U_3574
ENCODING 13684
SWIDTH 1000 0
DWIDTH 12 0
BBX 11 11 0 -1
BITMAP 
1FE0
1020
E780
A480
A480
A480
A480
A480
E480
08A0
1060
ENDCHAR
STARTCHAR U_3575
ENCODING 13685
SWIDTH 1000 0
DWIDTH 12 0
BBX 11 11 0 -1
BITMAP 
0FE0
0100
F100
9100
9100
97C0
9100
F100
0100
0100
0FE0
ENDCHAR
STARTCHAR U_3576
ENCODING 13686
SWIDTH 1000 0
DWIDTH 12 0
BBX 11 11 0 -1
BITMAP 
0FE0
E200
A200
A200
AFC0
A240
A240
E440
8440
0440
1FE0
ENDCHAR
STARTCHAR U_3577
ENCODING 13687
SWIDTH 1000 0
DWIDTH 12 0
BBX 11 11 0 -1
BITMAP 
0100
0200
F7E0
9420
9420
97E0
9420
9420
F420
07E0
0420
ENDCHAR
STARTCHAR U_3578
ENCODING 13688
SWIDTH 1000 0
DWIDTH 12 0
BBX 11 11 0 -1
BITMAP 
0400
0200
E000
BFE0
A000
A840
A840
E480
A480
0000
3FE0
ENDCHAR
STARTCHAR U_3579
ENCODING 13689
SWIDTH 1000 0
DWIDTH 12 0
BBX 11 11 0 -1
BITMAP 
0280
F240
9FE0
9200
9240
9240
9540
9480
F480
0940
1220
ENDCHAR
STARTCHAR U_357A
ENCODING 13690
SWIDTH 1000 0
DWIDTH 12 0
BBX 11 11 0 -1
BITMAP 
7BC0
4A40
4A40
7BC0
0000
FFE0
1000
2000
3F80
0080
0300
ENDCHAR
STARTCHAR U_357B
ENCODING 13691
SWIDTH 1000 0
DWIDTH 12 0
BBX 11 11 0 -1
BITMAP 
0800
0400
FFE0
0400
1D80
E440
0400
7FC0
4040
4040
7FC0
ENDCHAR
STARTCHAR U_357C
ENCODING 13692
SWIDTH 1000 0
DWIDTH 12 0
BBX 11 11 0 -1
BITMAP 
0400
E7E0
A820
B2A0
A120
A920
AAA0
E820
AFA0
0020
0060
ENDCHAR
STARTCHAR U_357D
ENCODING 13693
SWIDTH 1000 0
DWIDTH 12 0
BBX 11 11 0 -1
BITMAP 
0040
0840
EC40
AA40
AA40
A840
AA40
EC80
0940
0220
0C20
ENDCHAR
STARTCHAR U_357E
ENCODING 13694
SWIDTH 1000 0
DWIDTH 12 0
BBX 11 11 0 -1
BITMAP 
0400
1500
2480
C460
0400
0000
7A20
4BC0
4A00
4A20
7BE0
ENDCHAR
STARTCHAR U_357F
ENCODING 13695
SWIDTH 1000 0
DWIDTH 12 0
BBX 11 11 0 -1
BITMAP 
03C0
7C00
0400
FFE0
0E00
3580
C460
3F80
2080
2080
3F80
ENDCHAR
STARTCHAR U_3580
ENCODING 13696
SWIDTH 1000 0
DWIDTH 12 0
BBX 11 11 0 -1
BITMAP 
0100
07C0
F140
9FE0
9140
97C0
9100
F7C0
9100
0FE0
0100
ENDCHAR
STARTCHAR U_3581
ENCODING 13697
SWIDTH 1000 0
DWIDTH 12 0
BBX 11 11 0 -1
BITMAP 
0640
0180
E240
A420
A100
AFE0
A200
E480
8900
1240
07E0
ENDCHAR
STARTCHAR U_3582
ENCODING 13698
SWIDTH 1000 0
DWIDTH 12 0
BBX 11 11 0 -1
BITMAP 
0100
EFE0
A920
AFE0
A920
AFE0
A140
E080
A1A0
0260
0C20
ENDCHAR
STARTCHAR U_3583
ENCODING 13699
SWIDTH 1000 0
DWIDTH 12 0
BBX 11 11 0 -1
BITMAP 
00C0
EF00
A800
A800
AFE0
A800
ABE0
EA20
AA20
0A20
13E0
ENDCHAR
STARTCHAR U_3584
ENCODING 13700
SWIDTH 1000 0
DWIDTH 12 0
BBX 11 11 0 -1
BITMAP 
0820
E920
A920
A920
BDA0
AB60
A920
E920
A920
1120
2020
ENDCHAR
STARTCHAR U_3585
ENCODING 13701
SWIDTH 1000 0
DWIDTH 12 0
BBX 11 11 0 -1
BITMAP 
00A0
0080
EFE0
A880
A8A0
AEA0
A8C0
E880
90A0
1160
2220
ENDCHAR
STARTCHAR U_3586
ENCODING 13702
SWIDTH 1000 0
DWIDTH 12 0
BBX 11 11 0 -1
BITMAP 
0280
0280
EFE0
AAA0
AAA0
AAA0
AFE0
AAA0
EAA0
0AA0
0FE0
ENDCHAR
STARTCHAR U_3587
ENCODING 13703
SWIDTH 1000 0
DWIDTH 12 0
BBX 11 11 0 -1
BITMAP 
0FE0
0200
E400
AFE0
AAA0
AAA0
AAA0
AAA0
EAA0
0AA0
0860
ENDCHAR
STARTCHAR U_3588
ENCODING 13704
SWIDTH 1000 0
DWIDTH 12 0
BBX 11 11 0 -1
BITMAP 
0440
3E80
0500
FFE0
1900
2E20
C7E0
0000
7FC0
4040
7FC0
ENDCHAR
STARTCHAR U_3589
ENCODING 13705
SWIDTH 1000 0
DWIDTH 12 0
BBX 11 11 0 -1
BITMAP 
0100
E100
A280
A440
A920
A100
A500
E5C0
A500
0500
1FE0
ENDCHAR
STARTCHAR U_358A
ENCODING 13706
SWIDTH 1000 0
DWIDTH 12 0
BBX 11 11 0 -1
BITMAP 
0FC0
E040
A7C0
A040
AFC0
A080
AFE0
E480
A280
0080
0180
ENDCHAR
STARTCHAR U_358B
ENCODING 13707
SWIDTH 1000 0
DWIDTH 12 0
BBX 11 11 0 -1
BITMAP 
0400
0A00
3180
D160
1100
2100
4100
7A60
4B80
4A20
79E0
ENDCHAR
STARTCHAR U_358C
ENCODING 13708
SWIDTH 1000 0
DWIDTH 12 0
BBX 11 11 0 -1
BITMAP 
1200
2200
6F80
A280
24A0
28E0
0000
7A40
4B80
4A20
79E0
ENDCHAR
STARTCHAR U_358D
ENCODING 13709
SWIDTH 1000 0
DWIDTH 12 0
BBX 11 11 0 -1
BITMAP 
1100
4900
21E0
FF00
0100
0100
7A40
4B80
4A00
7A20
49E0
ENDCHAR
STARTCHAR U_358E
ENCODING 13710
SWIDTH 1000 0
DWIDTH 12 0
BBX 11 11 0 -1
BITMAP 
7A40
4B80
4A20
79E0
0400
0A00
3180
D160
1100
1100
2100
ENDCHAR
STARTCHAR U_358F
ENCODING 13711
SWIDTH 1000 0
DWIDTH 12 0
BBX 11 11 0 -1
BITMAP 
07C0
0440
F7C0
9440
97C0
9000
9100
97C0
F100
0100
0FE0
ENDCHAR
STARTCHAR U_3590
ENCODING 13712
SWIDTH 1000 0
DWIDTH 12 0
BBX 11 11 0 -1
BITMAP 
7BC0
4A40
7BC0
0000
3F80
0480
FFE0
0480
3F80
0800
3000
ENDCHAR
STARTCHAR U_3591
ENCODING 13713
SWIDTH 1000 0
DWIDTH 12 0
BBX 11 11 0 -1
BITMAP 
00C0
00A0
EFE0
A080
AAA0
AAA0
BFC0
EAC0
0AA0
1160
0620
ENDCHAR
STARTCHAR U_3592
ENCODING 13714
SWIDTH 1000 0
DWIDTH 12 0
BBX 11 11 0 -1
BITMAP 
0440
0280
EFE0
A120
AFE0
A900
AFE0
E320
0520
09A0
1140
ENDCHAR
STARTCHAR U_3593
ENCODING 13715
SWIDTH 1000 0
DWIDTH 12 0
BBX 11 11 0 -1
BITMAP 
03C0
0680
E900
A280
A540
AFE0
B100
E380
A100
0FE0
0100
ENDCHAR
STARTCHAR U_3594
ENCODING 13716
SWIDTH 1000 0
DWIDTH 12 0
BBX 11 11 0 -1
BITMAP 
0780
E200
AFC0
A480
A840
B7E0
A480
E480
A480
0780
0480
ENDCHAR
STARTCHAR U_3595
ENCODING 13717
SWIDTH 1000 0
DWIDTH 12 0
BBX 11 11 0 -1
BITMAP 
0200
0100
EFE0
A440
A280
AFE0
A100
E100
A7C0
0100
0100
ENDCHAR
STARTCHAR U_3596
ENCODING 13718
SWIDTH 1000 0
DWIDTH 12 0
BBX 11 11 0 -1
BITMAP 
0400
7FC0
1100
0A00
FFE0
0400
7FC0
0400
3F80
2080
3F80
ENDCHAR
STARTCHAR U_3597
ENCODING 13719
SWIDTH 1000 0
DWIDTH 12 0
BBX 11 11 0 -1
BITMAP 
0100
E920
AFE0
A100
A280
A440
BBA0
E000
A7C0
0040
0180
ENDCHAR
STARTCHAR U_3598
ENCODING 13720
SWIDTH 1000 0
DWIDTH 12 0
BBX 11 11 0 -1
BITMAP 
0FE0
0800
EFC0
A800
AFE0
AA80
AAA0
EAC0
AA80
0B40
1220
ENDCHAR
STARTCHAR U_3599
ENCODING 13721
SWIDTH 1000 0
DWIDTH 12 0
BBX 11 11 0 -1
BITMAP 
1000
7DE0
1520
2520
4DE0
8000
7A40
4A80
4B20
7BE0
0000
ENDCHAR
STARTCHAR U_359A
ENCODING 13722
SWIDTH 1000 0
DWIDTH 12 0
BBX 11 11 0 -1
BITMAP 
1080
27E0
6480
A280
2080
2180
7A40
4A80
4B00
4A20
7BE0
ENDCHAR
STARTCHAR U_359B
ENCODING 13723
SWIDTH 1000 0
DWIDTH 12 0
BBX 11 11 0 -1
BITMAP 
0400
7FC0
0800
3F80
2080
3F80
0000
7A40
4B80
4A20
7BE0
ENDCHAR
STARTCHAR U_359C
ENCODING 13724
SWIDTH 1000 0
DWIDTH 12 0
BBX 11 11 0 -1
BITMAP 
0400
7FC0
0000
3F80
2080
3F80
0000
7A40
4B80
4A20
7BE0
ENDCHAR
STARTCHAR U_359D
ENCODING 13725
SWIDTH 1000 0
DWIDTH 12 0
BBX 11 11 0 -1
BITMAP 
0400
3F80
0400
FFE0
0E00
3580
C460
7A00
4A80
4B20
7BE0
ENDCHAR
STARTCHAR U_359E
ENCODING 13726
SWIDTH 1000 0
DWIDTH 12 0
BBX 11 11 0 -1
BITMAP 
03C0
0240
7240
53C0
5100
57E0
5520
75A0
4660
0420
0460
ENDCHAR
STARTCHAR U_359F
ENCODING 13727
SWIDTH 1000 0
DWIDTH 12 0
BBX 11 11 0 -1
BITMAP 
0080
0300
EC20
A920
A4C0
AFE0
B020
E7C0
A480
0300
0CE0
ENDCHAR
STARTCHAR U_35A0
ENCODING 13728
SWIDTH 1000 0
DWIDTH 12 0
BBX 11 11 0 -1
BITMAP 
0100
EFE0
A280
A440
ABA0
A000
AFE0
E100
8540
0920
1320
ENDCHAR
STARTCHAR U_35A1
ENCODING 13729
SWIDTH 1000 0
DWIDTH 12 0
BBX 11 11 0 -1
BITMAP 
0100
1FE0
E480
A8E0
B920
A9A0
AA40
ED40
A880
0940
0A20
ENDCHAR
STARTCHAR U_35A2
ENCODING 13730
SWIDTH 1000 0
DWIDTH 12 0
BBX 11 11 0 -1
BITMAP 
0100
EFE0
AA80
AA80
AB80
AAA0
AEC0
EA80
AB80
0EA0
14E0
ENDCHAR
STARTCHAR U_35A3
ENCODING 13731
SWIDTH 1000 0
DWIDTH 12 0
BBX 11 11 0 -1
BITMAP 
0200
E100
AFE0
A440
A280
AFE0
A000
E7C0
A440
0440
07C0
ENDCHAR
STARTCHAR U_35A4
ENCODING 13732
SWIDTH 1000 0
DWIDTH 12 0
BBX 11 11 0 -1
BITMAP 
0000
07C0
E080
A920
AD60
ABA0
A920
EBA0
AD60
0920
0FE0
ENDCHAR
STARTCHAR U_35A5
ENCODING 13733
SWIDTH 1000 0
DWIDTH 12 0
BBX 11 11 0 -1
BITMAP 
0000
0FE0
E8A0
AF20
A920
AFE0
A920
EBA0
AD60
0920
0FE0
ENDCHAR
STARTCHAR U_35A6
ENCODING 13734
SWIDTH 1000 0
DWIDTH 12 0
BBX 11 11 0 -1
BITMAP 
0100
EFE0
A100
A7C0
A540
A7C0
A540
E7C0
A100
0540
0920
ENDCHAR
STARTCHAR U_35A7
ENCODING 13735
SWIDTH 1000 0
DWIDTH 12 0
BBX 11 11 0 -1
BITMAP 
0FC0
0900
EFE0
A880
AC60
A000
AFC0
E840
AFC0
0840
0FC0
ENDCHAR
STARTCHAR U_35A8
ENCODING 13736
SWIDTH 1000 0
DWIDTH 12 0
BBX 11 11 0 -1
BITMAP 
07C0
E040
A7C0
A040
AFE0
A100
AD60
E180
A540
0920
0300
ENDCHAR
STARTCHAR U_35A9
ENCODING 13737
SWIDTH 1000 0
DWIDTH 12 0
BBX 11 11 0 -1
BITMAP 
1F00
EAE0
AAA0
AEA0
AAA0
AEA0
EAA0
AA40
0E40
12A0
0320
ENDCHAR
STARTCHAR U_35AA
ENCODING 13738
SWIDTH 1000 0
DWIDTH 12 0
BBX 11 11 0 -1
BITMAP 
0080
E0A0
BFE0
A080
AEA0
AAA0
AEC0
E080
A6A0
1960
0220
ENDCHAR
STARTCHAR U_35AB
ENCODING 13739
SWIDTH 1000 0
DWIDTH 12 0
BBX 11 11 0 -1
BITMAP 
0100
07C0
E100
AFE0
A440
A920
A3C0
E640
A980
0340
0C20
ENDCHAR
STARTCHAR U_35AC
ENCODING 13740
SWIDTH 1000 0
DWIDTH 12 0
BBX 11 11 0 -1
BITMAP 
0400
E820
AEE0
A820
AFE0
A000
EFE0
A440
0280
0380
0C60
ENDCHAR
STARTCHAR U_35AD
ENCODING 13741
SWIDTH 1000 0
DWIDTH 12 0
BBX 11 11 0 -1
BITMAP 
0000
0FC0
E200
A200
BFE0
A500
AAC0
F220
8B40
12A0
0600
ENDCHAR
STARTCHAR U_35AE
ENCODING 13742
SWIDTH 1000 0
DWIDTH 12 0
BBX 11 11 0 -1
BITMAP 
0200
0300
E480
A840
B7A0
A000
AFE0
EAA0
AFE0
0AA0
0860
ENDCHAR
STARTCHAR U_35AF
ENCODING 13743
SWIDTH 1000 0
DWIDTH 12 0
BBX 11 11 0 -1
BITMAP 
7FC0
4040
7FC0
5140
5F40
40C0
0200
7AC0
4B00
4A40
7BC0
ENDCHAR
STARTCHAR U_35B0
ENCODING 13744
SWIDTH 1000 0
DWIDTH 12 0
BBX 11 11 0 -1
BITMAP 
7D20
4540
4580
7D20
45E0
0000
7FE0
4020
5FA0
4920
4F60
ENDCHAR
STARTCHAR U_35B1
ENCODING 13745
SWIDTH 1000 0
DWIDTH 12 0
BBX 11 11 0 -1
BITMAP 
0400
FFE0
1200
27C0
EA40
2580
2300
2CE0
7FC0
4040
7FC0
ENDCHAR
STARTCHAR U_35B2
ENCODING 13746
SWIDTH 1000 0
DWIDTH 12 0
BBX 11 11 0 -1
BITMAP 
2000
FDE0
4920
C920
31E0
CC00
0160
FD80
8500
8520
FCE0
ENDCHAR
STARTCHAR U_35B3
ENCODING 13747
SWIDTH 1000 0
DWIDTH 12 0
BBX 11 11 0 -1
BITMAP 
4200
2FE0
8240
4440
2280
4180
8E40
7D60
4580
4520
7CE0
ENDCHAR
STARTCHAR U_35B4
ENCODING 13748
SWIDTH 1000 0
DWIDTH 12 0
BBX 11 11 0 -1
BITMAP 
0480
FFE0
A480
A800
AFE0
B2A0
A2A0
E4A0
1920
0220
0C60
ENDCHAR
STARTCHAR U_35B5
ENCODING 13749
SWIDTH 1000 0
DWIDTH 12 0
BBX 11 11 0 -1
BITMAP 
0FC0
E840
AFC0
A840
AFC0
A840
AFC0
E840
1FE0
0480
0840
ENDCHAR
STARTCHAR U_35B6
ENCODING 13750
SWIDTH 1000 0
DWIDTH 12 0
BBX 11 11 0 -1
BITMAP 
0FE0
0280
EFE0
AAA0
AEE0
A820
AFE0
E100
87C0
0100
1FE0
ENDCHAR
STARTCHAR U_35B7
ENCODING 13751
SWIDTH 1000 0
DWIDTH 12 0
BBX 11 11 0 -1
BITMAP 
07C0
F440
97C0
9440
97C0
9000
9FE0
F100
95C0
0500
0BE0
ENDCHAR
STARTCHAR U_35B8
ENCODING 13752
SWIDTH 1000 0
DWIDTH 12 0
BBX 11 11 0 -1
BITMAP 
01C0
E100
AFE0
A920
AFC0
A900
ABC0
AA00
EFE0
0A00
13C0
ENDCHAR
STARTCHAR U_35B9
ENCODING 13753
SWIDTH 1000 0
DWIDTH 12 0
BBX 11 11 0 -1
BITMAP 
0500
E880
B040
AFA0
A480
A480
A980
FFC0
1540
1540
3FE0
ENDCHAR
STARTCHAR U_35BA
ENCODING 13754
SWIDTH 1000 0
DWIDTH 12 0
BBX 11 11 0 -1
BITMAP 
0100
EFE0
A100
A7C0
A100
AFE0
A7C0
EC60
17E0
0440
07C0
ENDCHAR
STARTCHAR U_35BB
ENCODING 13755
SWIDTH 1000 0
DWIDTH 12 0
BBX 11 11 0 -1
BITMAP 
0FC0
E480
BFE0
A320
A500
AB00
A100
FFE0
0380
0540
1920
ENDCHAR
STARTCHAR U_35BC
ENCODING 13756
SWIDTH 1000 0
DWIDTH 12 0
BBX 11 11 0 -1
BITMAP 
0440
0FE0
E440
A7C0
A440
A7C0
A100
AFE0
E380
0540
1920
ENDCHAR
STARTCHAR U_35BD
ENCODING 13757
SWIDTH 1000 0
DWIDTH 12 0
BBX 11 11 0 -1
BITMAP 
07E0
F100
97E0
9420
97E0
9420
97E0
9420
F7E0
0240
0420
ENDCHAR
STARTCHAR U_35BE
ENCODING 13758
SWIDTH 1000 0
DWIDTH 12 0
BBX 11 11 0 -1
BITMAP 
7BC0
4A40
7BC0
1100
FFE0
0400
4440
4440
7FC0
0800
3000
ENDCHAR
STARTCHAR U_35BF
ENCODING 13759
SWIDTH 1000 0
DWIDTH 12 0
BBX 11 11 0 -1
BITMAP 
1FE0
EAA0
AAA0
AEA0
AAC0
AEA0
AAA0
ABA0
EEE0
1280
0280
ENDCHAR
STARTCHAR U_35C0
ENCODING 13760
SWIDTH 1000 0
DWIDTH 12 0
BBX 11 11 0 -1
BITMAP 
0100
0920
EDA0
AB60
AFA0
AB60
ADA0
EFE0
A920
0FE0
0820
ENDCHAR
STARTCHAR U_35C1
ENCODING 13761
SWIDTH 1000 0
DWIDTH 12 0
BBX 11 11 0 -1
BITMAP 
0EE0
EAA0
AEE0
A000
A7C0
A000
AFE0
A200
E7C0
0040
01C0
ENDCHAR
STARTCHAR U_35C2
ENCODING 13762
SWIDTH 1000 0
DWIDTH 12 0
BBX 11 11 0 -1
BITMAP 
0100
0540
E5A0
A920
A3C0
A640
BBC0
E240
A3C0
0240
03C0
ENDCHAR
STARTCHAR U_35C3
ENCODING 13763
SWIDTH 1000 0
DWIDTH 12 0
BBX 11 11 0 -1
BITMAP 
0FC0
0840
EFC0
A900
AFE0
A880
AFC0
A840
EFC0
A840
0FC0
ENDCHAR
STARTCHAR U_35C4
ENCODING 13764
SWIDTH 1000 0
DWIDTH 12 0
BBX 11 11 0 -1
BITMAP 
0FE0
0AA0
EFE0
A200
A100
AFE0
A200
E3C0
A440
0440
0980
ENDCHAR
STARTCHAR U_35C5
ENCODING 13765
SWIDTH 1000 0
DWIDTH 12 0
BBX 11 11 0 -1
BITMAP 
04E0
E4A0
AEA0
A4A0
A4E0
AEA0
AAA0
AAE0
EEA0
0120
0260
ENDCHAR
STARTCHAR U_35C6
ENCODING 13766
SWIDTH 1000 0
DWIDTH 12 0
BBX 11 11 0 -1
BITMAP 
0440
0FE0
E440
A7C0
A100
AFE0
A920
EFE0
A100
0FE0
0100
ENDCHAR
STARTCHAR U_35C7
ENCODING 13767
SWIDTH 1000 0
DWIDTH 12 0
BBX 11 11 0 -1
BITMAP 
0EE0
EA20
AA20
AEE0
A800
AEE0
A8A0
AE40
E840
08A0
0920
ENDCHAR
STARTCHAR U_35C8
ENCODING 13768
SWIDTH 1000 0
DWIDTH 12 0
BBX 11 11 0 -1
BITMAP 
0FC0
0280
EFE0
A920
AFE0
A920
AFE0
E920
AFE0
0220
0C40
ENDCHAR
STARTCHAR U_35C9
ENCODING 13769
SWIDTH 1000 0
DWIDTH 12 0
BBX 11 11 0 -1
BITMAP 
23E0
F8A0
20A0
F920
2F20
F960
2600
1980
FFE0
1080
1F80
ENDCHAR
STARTCHAR U_35CA
ENCODING 13770
SWIDTH 1000 0
DWIDTH 12 0
BBX 11 11 0 -1
BITMAP 
0000
7BC0
4A40
4A40
7BC0
0000
7BC0
4A40
4A40
7BC0
4A40
ENDCHAR
STARTCHAR U_35CB
ENCODING 13771
SWIDTH 1000 0
DWIDTH 12 0
BBX 11 11 0 -1
BITMAP 
0380
E480
AFE0
AA00
ABE0
AA80
AC80
EBE0
0880
1140
2620
ENDCHAR
STARTCHAR U_35CC
ENCODING 13772
SWIDTH 1000 0
DWIDTH 12 0
BBX 11 11 0 -1
BITMAP 
0100
EFE0
A820
A7C0
A280
A440
A7E0
A100
E7C0
0100
0FE0
ENDCHAR
STARTCHAR U_35CD
ENCODING 13773
SWIDTH 1000 0
DWIDTH 12 0
BBX 11 11 0 -1
BITMAP 
00C0
EF00
A100
AFE0
A380
A540
BFE0
A440
E7C0
0440
07C0
ENDCHAR
STARTCHAR U_35CE
ENCODING 13774
SWIDTH 1000 0
DWIDTH 12 0
BBX 11 11 0 -1
BITMAP 
0800
1EE0
EAA0
AAA0
B6E0
A100
BFE0
A380
E540
1920
0100
ENDCHAR
STARTCHAR U_35CF
ENCODING 13775
SWIDTH 1000 0
DWIDTH 12 0
BBX 11 11 0 -1
BITMAP 
0FE0
E100
A300
A540
A920
A100
AFE0
A100
E5C0
0500
1FE0
ENDCHAR
STARTCHAR U_35D0
ENCODING 13776
SWIDTH 1000 0
DWIDTH 12 0
BBX 11 11 0 -1
BITMAP 
0200
E200
AFE0
A480
AA40
B120
E000
AFC0
0A40
0940
1FE0
ENDCHAR
STARTCHAR U_35D1
ENCODING 13777
SWIDTH 1000 0
DWIDTH 12 0
BBX 11 11 0 -1
BITMAP 
0400
1BE0
E880
A9C0
BC80
A9C0
EC80
9BE0
0880
0880
1080
ENDCHAR
STARTCHAR U_35D2
ENCODING 13778
SWIDTH 1000 0
DWIDTH 12 0
BBX 11 11 0 -1
BITMAP 
0200
1FE0
E000
AFC0
A840
AFC0
E220
A540
0C80
1540
0620
ENDCHAR
STARTCHAR U_35D3
ENCODING 13779
SWIDTH 1000 0
DWIDTH 12 0
BBX 11 11 0 -1
BITMAP 
1080
0900
EBC0
A240
BBC0
AA00
ABE0
EA20
ABE0
0C00
13E0
ENDCHAR
STARTCHAR U_35D4
ENCODING 13780
SWIDTH 1000 0
DWIDTH 12 0
BBX 11 11 0 -1
BITMAP 
01E0
F100
97E0
9520
97C0
9520
97E0
F540
9540
0480
0B60
ENDCHAR
STARTCHAR U_35D5
ENCODING 13781
SWIDTH 1000 0
DWIDTH 12 0
BBX 11 11 0 -1
BITMAP 
0280
EFE0
A280
A7C0
A280
AFE0
A540
E7C0
A540
0FE0
0440
ENDCHAR
STARTCHAR U_35D6
ENCODING 13782
SWIDTH 1000 0
DWIDTH 12 0
BBX 11 11 0 -1
BITMAP 
00C0
0300
EC20
A540
A000
ACE0
A820
AEE0
E820
AFE0
0820
ENDCHAR
STARTCHAR U_35D7
ENCODING 13783
SWIDTH 1000 0
DWIDTH 12 0
BBX 11 11 0 -1
BITMAP 
0200
F7C0
9540
97C0
F540
47C0
F200
5500
5FE0
5100
B100
ENDCHAR
STARTCHAR U_35D8
ENCODING 13784
SWIDTH 1000 0
DWIDTH 12 0
BBX 11 11 0 -1
BITMAP 
0120
EFE0
A540
A7C0
A540
A7C0
E540
BFE0
0440
0240
00C0
ENDCHAR
STARTCHAR U_35D9
ENCODING 13785
SWIDTH 1000 0
DWIDTH 12 0
BBX 11 11 0 -1
BITMAP 
0400
07E0
EAA0
A3E0
A120
A400
E7E0
AAA0
13E0
0120
0640
ENDCHAR
STARTCHAR U_35DA
ENCODING 13786
SWIDTH 1000 0
DWIDTH 12 0
BBX 11 11 0 -1
BITMAP 
0FE0
E280
AFE0
AAA0
AFE0
A100
EFE0
A300
0580
0940
1120
ENDCHAR
STARTCHAR U_35DB
ENCODING 13787
SWIDTH 1000 0
DWIDTH 12 0
BBX 11 11 0 -1
BITMAP 
0480
07E0
EA40
B000
A1C0
A700
E100
AFE0
0280
0440
0820
ENDCHAR
STARTCHAR U_35DC
ENCODING 13788
SWIDTH 1000 0
DWIDTH 12 0
BBX 11 11 0 -1
BITMAP 
0100
0FE0
E240
A680
A140
A640
AFE0
E920
AFE0
0920
0FE0
ENDCHAR
STARTCHAR U_35DD
ENCODING 13789
SWIDTH 1000 0
DWIDTH 12 0
BBX 11 11 0 -1
BITMAP 
0440
0280
EFE0
A100
A7C0
A100
E100
AFE0
0000
0AA0
0AA0
ENDCHAR
STARTCHAR U_35DE
ENCODING 13790
SWIDTH 1000 0
DWIDTH 12 0
BBX 11 11 0 -1
BITMAP 
0040
3E40
11E0
F140
BDE0
B5A0
F5A0
BDA0
1140
2240
04A0
ENDCHAR
STARTCHAR U_35DF
ENCODING 13791
SWIDTH 1000 0
DWIDTH 12 0
BBX 11 11 0 -1
BITMAP 
4100
2FE0
0100
67C0
1100
6FE0
2240
7A80
4B00
7A20
4BE0
ENDCHAR
STARTCHAR U_35E0
ENCODING 13792
SWIDTH 1000 0
DWIDTH 12 0
BBX 11 11 0 -1
BITMAP 
2080
F940
4BE0
9220
D3E0
3220
C800
0260
FA80
8B20
FBE0
ENDCHAR
STARTCHAR U_35E1
ENCODING 13793
SWIDTH 1000 0
DWIDTH 12 0
BBX 11 11 0 -1
BITMAP 
1100
FFC0
1200
2F00
6500
A580
2880
3180
7A40
4A80
7BC0
ENDCHAR
STARTCHAR U_35E2
ENCODING 13794
SWIDTH 1000 0
DWIDTH 12 0
BBX 11 11 0 -1
BITMAP 
1C80
0880
FE80
A9E0
BEA0
AAA0
BEA0
EAA0
BEA0
0920
3E60
ENDCHAR
STARTCHAR U_35E3
ENCODING 13795
SWIDTH 1000 0
DWIDTH 12 0
BBX 11 11 0 -1
BITMAP 
0540
EFE0
A540
AB60
A000
AFE0
A920
E7C0
A540
05C0
0100
ENDCHAR
STARTCHAR U_35E4
ENCODING 13796
SWIDTH 1000 0
DWIDTH 12 0
BBX 11 11 0 -1
BITMAP 
0140
7FE0
4900
4D40
4940
7E80
ACA0
5B60
7FC0
4040
7FC0
ENDCHAR
STARTCHAR U_35E5
ENCODING 13797
SWIDTH 1000 0
DWIDTH 12 0
BBX 11 11 0 -1
BITMAP 
0400
0EE0
E0A0
AEA0
AAC0
AEC0
A0A0
EEA0
02E0
1F80
0480
ENDCHAR
STARTCHAR U_35E6
ENCODING 13798
SWIDTH 1000 0
DWIDTH 12 0
BBX 11 11 0 -1
BITMAP 
7D00
2AE0
EAA0
BAA0
AAA0
BAA0
ABA0
EEE0
3980
0980
0A80
ENDCHAR
STARTCHAR U_35E7
ENCODING 13799
SWIDTH 1000 0
DWIDTH 12 0
BBX 11 11 0 -1
BITMAP 
0100
EFE0
AAA0
A440
A7C0
A240
A7E0
A100
E7C0
0100
0FE0
ENDCHAR
STARTCHAR U_35E8
ENCODING 13800
SWIDTH 1000 0
DWIDTH 12 0
BBX 11 11 0 -1
BITMAP 
FDC0
A140
BE60
D1C0
FD40
A880
FD60
0000
7FC0
4040
7FC0
ENDCHAR
STARTCHAR U_35E9
ENCODING 13801
SWIDTH 1000 0
DWIDTH 12 0
BBX 11 11 0 -1
BITMAP 
0EE0
E220
AAA0
A660
AAA0
A100
AFE0
E820
AFE0
0820
0FE0
ENDCHAR
STARTCHAR U_35EA
ENCODING 13802
SWIDTH 1000 0
DWIDTH 12 0
BBX 11 11 0 -1
BITMAP 
02A0
EBC0
AA80
BFA0
A460
AF80
A240
EFE0
A100
0940
1320
ENDCHAR
STARTCHAR U_35EB
ENCODING 13803
SWIDTH 1000 0
DWIDTH 12 0
BBX 11 11 0 -1
BITMAP 
0880
EEE0
AAA0
B640
AC40
ABA0
B000
AFE0
E100
0940
1320
ENDCHAR
STARTCHAR U_35EC
ENCODING 13804
SWIDTH 1000 0
DWIDTH 12 0
BBX 11 11 0 -1
BITMAP 
2480
FFE0
A0A0
3F80
0800
1F00
6600
1900
67C0
1900
3E00
ENDCHAR
STARTCHAR U_35ED
ENCODING 13805
SWIDTH 1000 0
DWIDTH 12 0
BBX 11 11 0 -1
BITMAP 
00E0
EF00
A540
A380
AFE0
A540
A920
A000
E540
1560
17C0
ENDCHAR
STARTCHAR U_35EE
ENCODING 13806
SWIDTH 1000 0
DWIDTH 12 0
BBX 11 11 0 -1
BITMAP 
4080
77E0
9500
77C0
2540
77E0
D540
57C0
5500
7A80
0C60
ENDCHAR
STARTCHAR U_35EF
ENCODING 13807
SWIDTH 1000 0
DWIDTH 12 0
BBX 11 11 0 -1
BITMAP 
0440
7F80
0500
FFE0
3080
DF80
1080
1FA0
7DC0
4520
7CE0
ENDCHAR
STARTCHAR U_35F0
ENCODING 13808
SWIDTH 1000 0
DWIDTH 12 0
BBX 11 11 0 -1
BITMAP 
0540
0940
F6A0
A800
B880
AA80
AAE0
AA80
EA80
0B80
0C60
ENDCHAR
STARTCHAR U_35F1
ENCODING 13809
SWIDTH 1000 0
DWIDTH 12 0
BBX 11 11 0 -1
BITMAP 
0500
0BE0
F900
ABC0
A900
ABC0
A100
AFE0
E380
0540
0920
ENDCHAR
STARTCHAR U_35F2
ENCODING 13810
SWIDTH 1000 0
DWIDTH 12 0
BBX 11 11 0 -1
BITMAP 
0100
07C0
E140
AFE0
A140
AFE0
A540
A7C0
E540
A7C0
0FE0
ENDCHAR
STARTCHAR U_35F3
ENCODING 13811
SWIDTH 1000 0
DWIDTH 12 0
BBX 11 11 0 -1
BITMAP 
0880
0EE0
F540
A100
A280
A440
BBA0
E000
A7C0
0440
07C0
ENDCHAR
STARTCHAR U_35F4
ENCODING 13812
SWIDTH 1000 0
DWIDTH 12 0
BBX 11 11 0 -1
BITMAP 
0EE0
0AA0
EEE0
AAA0
AEE0
ABA0
AAA0
EBA0
AAA0
0BA0
0EE0
ENDCHAR
STARTCHAR U_35F5
ENCODING 13813
SWIDTH 1000 0
DWIDTH 12 0
BBX 11 11 0 -1
BITMAP 
0880
1D00
EBE0
A8A0
B480
A080
A880
BD40
E940
A920
1620
ENDCHAR
STARTCHAR U_35F6
ENCODING 13814
SWIDTH 1000 0
DWIDTH 12 0
BBX 11 11 0 -1
BITMAP 
0EC0
0B60
E4C0
A820
BEE0
A2A0
AF20
E8E0
AEA0
0240
06A0
ENDCHAR
STARTCHAR U_35F7
ENCODING 13815
SWIDTH 1000 0
DWIDTH 12 0
BBX 11 11 0 -1
BITMAP 
0200
0FE0
EAA0
A7C0
A280
A7C0
A280
FFE0
A540
0540
0EE0
ENDCHAR
STARTCHAR U_35F8
ENCODING 13816
SWIDTH 1000 0
DWIDTH 12 0
BBX 11 11 0 -1
BITMAP 
0800
EAE0
B700
AAE0
AA40
BF40
AA40
AB40
EF40
A840
08C0
ENDCHAR
STARTCHAR U_35F9
ENCODING 13817
SWIDTH 1000 0
DWIDTH 12 0
BBX 11 11 0 -1
BITMAP 
0480
0BE0
F880
ABE0
A880
ABE0
A880
EBE0
AA40
1560
13C0
ENDCHAR
STARTCHAR U_35FA
ENCODING 13818
SWIDTH 1000 0
DWIDTH 12 0
BBX 11 11 0 -1
BITMAP 
07C0
E100
AFE0
A280
A440
BAA0
AEE0
E280
AEE0
0280
0EE0
ENDCHAR
STARTCHAR U_35FB
ENCODING 13819
SWIDTH 1000 0
DWIDTH 12 0
BBX 11 11 0 -1
BITMAP 
11E0
0920
E1E0
BDA0
ABE0
AAA0
AAA0
EAE0
BA20
0C20
03E0
ENDCHAR
STARTCHAR U_35FC
ENCODING 13820
SWIDTH 1000 0
DWIDTH 12 0
BBX 11 11 0 -1
BITMAP 
0AA0
06C0
EFE0
A280
AFE0
A100
A7C0
E100
AFE0
0380
0D60
ENDCHAR
STARTCHAR U_35FD
ENCODING 13821
SWIDTH 1000 0
DWIDTH 12 0
BBX 11 11 0 -1
BITMAP 
2400
5EE0
F2A0
5EC0
F2A0
3EE0
5480
9A80
3F80
2080
3F80
ENDCHAR
STARTCHAR U_35FE
ENCODING 13822
SWIDTH 1000 0
DWIDTH 12 0
BBX 11 11 0 -1
BITMAP 
15C0
FF40
B540
BD40
A960
BFC0
AB40
FF40
A940
1D40
0960
ENDCHAR
STARTCHAR U_35FF
ENCODING 13823
SWIDTH 1000 0
DWIDTH 12 0
BBX 11 11 0 -1
BITMAP 
0EE0
0AA0
EEE0
AAA0
AFE0
A8A0
ABA0
EAA0
ABA0
08A0
09E0
ENDCHAR
STARTCHAR U_3600
ENCODING 13824
SWIDTH 1000 0
DWIDTH 12 0
BBX 11 11 0 -1
BITMAP 
0400
0EE0
E820
AEE0
A820
AEE0
A540
EFE0
0540
0540
0920
ENDCHAR
STARTCHAR U_3601
ENCODING 13825
SWIDTH 1000 0
DWIDTH 12 0
BBX 11 11 0 -1
BITMAP 
0FE0
0AA0
EFE0
A100
A7C0
A100
AFE0
E280
0FE0
0100
0100
ENDCHAR
STARTCHAR U_3602
ENCODING 13826
SWIDTH 1000 0
DWIDTH 12 0
BBX 11 11 0 -1
BITMAP 
0480
1FE0
E440
AAA0
A440
A9A0
AEC0
E100
1420
24A0
0780
ENDCHAR
STARTCHAR U_3603
ENCODING 13827
SWIDTH 1000 0
DWIDTH 12 0
BBX 11 11 0 -1
BITMAP 
0440
0FE0
E200
BFE0
A200
A7C0
AC40
F7C0
A520
0CA0
0BC0
ENDCHAR
STARTCHAR U_3604
ENCODING 13828
SWIDTH 1000 0
DWIDTH 12 0
BBX 11 11 0 -1
BITMAP 
0BE0
EAA0
BEA0
ABE0
AC80
BBE0
A900
E9E0
0920
0A20
0CC0
ENDCHAR
STARTCHAR U_3605
ENCODING 13829
SWIDTH 1000 0
DWIDTH 12 0
BBX 11 11 0 -1
BITMAP 
1400
6AE0
1100
EEE0
A440
BF40
A440
EE40
2440
2640
38C0
ENDCHAR
STARTCHAR U_3606
ENCODING 13830
SWIDTH 1000 0
DWIDTH 12 0
BBX 11 11 0 -1
BITMAP 
0100
0FE0
E100
A7C0
A440
AFE0
AAA0
A440
E7C0
0100
0FE0
ENDCHAR
STARTCHAR U_3607
ENCODING 13831
SWIDTH 1000 0
DWIDTH 12 0
BBX 11 11 0 -1
BITMAP 
2AA0
1DC0
0880
F540
BFE0
A220
AFC0
E200
0A80
0A40
1240
ENDCHAR
STARTCHAR U_3608
ENCODING 13832
SWIDTH 1000 0
DWIDTH 12 0
BBX 11 11 0 -1
BITMAP 
09E0
EE40
A880
A7E0
A8A0
AE80
B4E0
EE80
0580
0A80
1460
ENDCHAR
STARTCHAR U_3609
ENCODING 13833
SWIDTH 1000 0
DWIDTH 12 0
BBX 11 11 0 -1
BITMAP 
0880
1EE0
E540
BDE0
A520
BD20
A520
FD20
2160
2920
3500
ENDCHAR
STARTCHAR U_360A
ENCODING 13834
SWIDTH 1000 0
DWIDTH 12 0
BBX 11 11 0 -1
BITMAP 
0FC0
0200
FFE0
AAA0
AFC0
A000
AFC0
E000
0FC0
0840
0FC0
ENDCHAR
STARTCHAR U_360B
ENCODING 13835
SWIDTH 1000 0
DWIDTH 12 0
BBX 11 11 0 -1
BITMAP 
0FE0
0AA0
EFA0
A940
AFA0
AAA0
AFE0
E540
0540
07C0
0820
ENDCHAR
STARTCHAR U_360C
ENCODING 13836
SWIDTH 1000 0
DWIDTH 12 0
BBX 11 11 0 -1
BITMAP 
0E20
0820
FF20
AAA0
BEA0
A0A0
BFA0
ECA0
3520
2E20
5560
ENDCHAR
STARTCHAR U_360D
ENCODING 13837
SWIDTH 1000 0
DWIDTH 12 0
BBX 11 11 0 -1
BITMAP 
0440
0E60
F540
A7E0
AA40
BF40
AA60
EF40
0AC0
0F40
0820
ENDCHAR
STARTCHAR U_360E
ENCODING 13838
SWIDTH 1000 0
DWIDTH 12 0
BBX 11 11 0 -1
BITMAP 
2FE0
1020
EEA0
A2E0
BF20
AAA0
AE60
EA60
3EA0
2320
2260
ENDCHAR
STARTCHAR U_360F
ENCODING 13839
SWIDTH 1000 0
DWIDTH 12 0
BBX 11 11 0 -1
BITMAP 
C480
1FE0
C400
4FC0
4940
4FC0
7000
8FE0
3A40
2AA0
3BE0
ENDCHAR
STARTCHAR U_3610
ENCODING 13840
SWIDTH 1000 0
DWIDTH 12 0
BBX 11 11 0 -1
BITMAP 
0F40
0AE0
EFA0
AA00
AFA0
AAA0
AF40
E140
0D40
32A0
04A0
ENDCHAR
STARTCHAR U_3611
ENCODING 13841
SWIDTH 1000 0
DWIDTH 12 0
BBX 11 11 0 -1
BITMAP 
0880
1DE0
E8A0
BDE0
AAA0
A1E0
BC80
EAA0
1DC0
2AA0
1980
ENDCHAR
STARTCHAR U_3612
ENCODING 13842
SWIDTH 1000 0
DWIDTH 12 0
BBX 11 11 0 -1
BITMAP 
1860
E380
2080
FFE0
72A0
ABE0
2080
FFE0
8A40
8AA0
FBE0
ENDCHAR
STARTCHAR U_3613
ENCODING 13843
SWIDTH 1000 0
DWIDTH 12 0
BBX 11 11 0 -1
BITMAP 
0EE0
0AA0
EEE0
A920
AFE0
AD60
AFE0
E920
0BA0
0D20
0960
ENDCHAR
STARTCHAR U_3614
ENCODING 13844
SWIDTH 1000 0
DWIDTH 12 0
BBX 11 11 0 -1
BITMAP 
0100
0FE0
0AA0
E7C0
A280
A7C0
AD60
B6C0
E540
0280
0C60
ENDCHAR
STARTCHAR U_3615
ENCODING 13845
SWIDTH 1000 0
DWIDTH 12 0
BBX 11 11 0 -1
BITMAP 
0440
0FE0
E440
AE80
AAE0
AE80
EAE0
0E80
0FC0
0A40
1FE0
ENDCHAR
STARTCHAR U_3616
ENCODING 13846
SWIDTH 1000 0
DWIDTH 12 0
BBX 11 11 0 -1
BITMAP 
0800
1FE0
F280
ADE0
BF60
B5A0
BB60
B5A0
FBE0
14C0
2920
ENDCHAR
STARTCHAR U_3617
ENCODING 13847
SWIDTH 1000 0
DWIDTH 12 0
BBX 11 11 0 -1
BITMAP 
0EE0
0AA0
EEE0
AAA0
AEE0
AAA0
A7E0
EC80
17E0
0480
07E0
ENDCHAR
STARTCHAR U_3618
ENCODING 13848
SWIDTH 1000 0
DWIDTH 12 0
BBX 11 11 0 -1
BITMAP 
2440
4E80
F1E0
2E40
50A0
FFE0
4A40
AAA0
3F80
2080
3F80
ENDCHAR
STARTCHAR U_3619
ENCODING 13849
SWIDTH 1000 0
DWIDTH 12 0
BBX 11 11 0 -1
BITMAP 
1DC0
1540
FFE0
A480
BEE0
AB20
AEA0
EAA0
2E40
5A40
42A0
ENDCHAR
STARTCHAR U_361A
ENCODING 13850
SWIDTH 1000 0
DWIDTH 12 0
BBX 11 11 0 -1
BITMAP 
3DE0
2520
FDE0
A520
BEA0
ABE0
AE60
EB60
3EA0
2360
2020
ENDCHAR
STARTCHAR U_361B
ENCODING 13851
SWIDTH 1000 0
DWIDTH 12 0
BBX 11 11 0 -1
BITMAP 
0780
1860
EFC0
A840
AFE0
AAA0
BFE0
AA80
EEE0
0A80
16E0
ENDCHAR
STARTCHAR U_361C
ENCODING 13852
SWIDTH 1000 0
DWIDTH 12 0
BBX 11 11 0 -1
BITMAP 
4880
A540
FFE0
A140
FFE0
AB40
FFE0
0000
3F80
2080
3F80
ENDCHAR
STARTCHAR U_361D
ENCODING 13853
SWIDTH 1000 0
DWIDTH 12 0
BBX 11 11 0 -1
BITMAP 
FFE0
8020
BF20
8120
9120
8A20
8420
8B20
B120
8020
FFE0
ENDCHAR
STARTCHAR U_361E
ENCODING 13854
SWIDTH 1000 0
DWIDTH 12 0
BBX 11 11 0 -1
BITMAP 
FFE0
8420
8420
BFA0
84A0
88A0
88A0
92A0
A120
8020
FFE0
ENDCHAR
STARTCHAR U_361F
ENCODING 13855
SWIDTH 1000 0
DWIDTH 12 0
BBX 11 11 0 -1
BITMAP 
FFE0
8020
8920
8920
BFE0
8920
8920
8920
9120
A120
FFE0
ENDCHAR
STARTCHAR U_3620
ENCODING 13856
SWIDTH 1000 0
DWIDTH 12 0
BBX 11 11 0 -1
BITMAP 
FFE0
8820
8520
9120
B220
D4A0
9960
9160
EF20
8020
FFE0
ENDCHAR
STARTCHAR U_3621
ENCODING 13857
SWIDTH 1000 0
DWIDTH 12 0
BBX 11 11 0 -1
BITMAP 
FFE0
8020
BFA0
A4A0
BFA0
A4A0
BFA0
8420
8420
8420
FFE0
ENDCHAR
STARTCHAR U_3622
ENCODING 13858
SWIDTH 1000 0
DWIDTH 12 0
BBX 11 11 0 -1
BITMAP 
FFE0
8420
A4A0
9520
BFA0
8A20
8A20
8A20
92A0
A1A0
FFE0
ENDCHAR
STARTCHAR U_3623
ENCODING 13859
SWIDTH 1000 0
DWIDTH 12 0
BBX 11 11 0 -1
BITMAP 
FFE0
9120
9F20
8020
9F20
9120
9F20
9120
9F20
9320
FFE0
ENDCHAR
STARTCHAR U_3624
ENCODING 13860
SWIDTH 1000 0
DWIDTH 12 0
BBX 11 11 0 -1
BITMAP 
FFE0
8020
D560
BDE0
D060
BFE0
9060
BDE0
D560
E560
FFE0
ENDCHAR
STARTCHAR U_3625
ENCODING 13861
SWIDTH 1000 0
DWIDTH 12 0
BBX 11 11 0 -1
BITMAP 
FFE0
BDA0
EAA0
D120
A2A0
FD60
93A0
FDA0
9360
D520
FFE0
ENDCHAR
STARTCHAR U_3626
ENCODING 13862
SWIDTH 1000 0
DWIDTH 12 0
BBX 11 11 0 -1
BITMAP 
0100
2100
27E0
F920
2120
2120
2920
3220
C220
04A0
0840
ENDCHAR
STARTCHAR U_3627
ENCODING 13863
SWIDTH 1000 0
DWIDTH 12 0
BBX 11 11 0 -1
BITMAP 
27C0
2040
2280
F100
2FE0
2120
2100
2100
3100
C500
0300
ENDCHAR
STARTCHAR U_3628
ENCODING 13864
SWIDTH 1000 0
DWIDTH 12 0
BBX 11 11 0 -1
BITMAP 
0100
4100
4FE0
E920
4920
4AA0
6A60
4C60
8820
0820
0860
ENDCHAR
STARTCHAR U_3629
ENCODING 13865
SWIDTH 1000 0
DWIDTH 12 0
BBX 11 11 0 -1
BITMAP 
0880
4880
4880
E880
4EE0
4880
4880
6880
CA80
0CA0
08E0
ENDCHAR
STARTCHAR U_362A
ENCODING 13866
SWIDTH 1000 0
DWIDTH 12 0
BBX 11 11 0 -1
BITMAP 
20C0
2700
2100
21C0
F700
2100
21E0
2700
3100
C120
00E0
ENDCHAR
STARTCHAR U_362B
ENCODING 13867
SWIDTH 1000 0
DWIDTH 12 0
BBX 11 11 0 -1
BITMAP 
2280
2280
2FE0
F280
2280
2FE0
2280
3280
E280
0480
0880
ENDCHAR
STARTCHAR U_362C
ENCODING 13868
SWIDTH 1000 0
DWIDTH 12 0
BBX 11 11 0 -1
BITMAP 
0400
4400
4FE0
E820
5220
4220
44A0
4FA0
6020
80A0
0040
ENDCHAR
STARTCHAR U_362D
ENCODING 13869
SWIDTH 1000 0
DWIDTH 12 0
BBX 11 11 0 -1
BITMAP 
2400
25E0
2420
F920
2E20
2220
2420
3420
E920
0F20
0060
ENDCHAR
STARTCHAR U_362E
ENCODING 13870
SWIDTH 1000 0
DWIDTH 12 0
BBX 11 11 0 -1
BITMAP 
27C0
2440
2440
F440
27C0
2500
2500
2480
3480
C840
1020
ENDCHAR
STARTCHAR U_362F
ENCODING 13871
SWIDTH 1000 0
DWIDTH 12 0
BBX 11 11 0 -1
BITMAP 
2400
2400
27E0
F500
2900
27E0
2120
3220
E220
04A0
1840
ENDCHAR
STARTCHAR U_3630
ENCODING 13872
SWIDTH 1000 0
DWIDTH 12 0
BBX 11 11 0 -1
BITMAP 
2080
2480
2280
F080
2480
2280
20E0
2780
3080
C080
0080
ENDCHAR
STARTCHAR U_3631
ENCODING 13873
SWIDTH 1000 0
DWIDTH 12 0
BBX 11 11 0 -1
BITMAP 
2100
2100
27C0
F540
2540
27C0
2540
3540
CFE0
0440
04C0
ENDCHAR
STARTCHAR U_3632
ENCODING 13874
SWIDTH 1000 0
DWIDTH 12 0
BBX 11 11 0 -1
BITMAP 
4FC0
4840
4840
EFC0
4A00
4F80
4A80
4A80
6AA0
D4A0
2860
ENDCHAR
STARTCHAR U_3633
ENCODING 13875
SWIDTH 1000 0
DWIDTH 12 0
BBX 11 11 0 -1
BITMAP 
0A00
0A60
FB80
0A00
0A20
3A20
C9E0
0400
7FC0
0400
FFE0
ENDCHAR
STARTCHAR U_3634
ENCODING 13876
SWIDTH 1000 0
DWIDTH 12 0
BBX 11 11 0 -1
BITMAP 
0400
7480
5480
5480
7540
5620
0400
7FC0
0400
0400
FFE0
ENDCHAR
STARTCHAR U_3635
ENCODING 13877
SWIDTH 1000 0
DWIDTH 12 0
BBX 11 11 0 -1
BITMAP 
4200
4200
5FE0
E500
4900
5FE0
6920
4920
6920
C960
0100
ENDCHAR
STARTCHAR U_3636
ENCODING 13878
SWIDTH 1000 0
DWIDTH 12 0
BBX 11 11 0 -1
BITMAP 
2080
3BE0
4880
AA80
13E0
2080
C480
0400
7FC0
0400
FFE0
ENDCHAR
STARTCHAR U_3637
ENCODING 13879
SWIDTH 1000 0
DWIDTH 12 0
BBX 11 11 0 -1
BITMAP 
2440
2FE0
2440
F000
2440
2440
2280
2280
3100
C280
0C60
ENDCHAR
STARTCHAR U_3638
ENCODING 13880
SWIDTH 1000 0
DWIDTH 12 0
BBX 11 11 0 -1
BITMAP 
FFE0
2200
7A40
8B80
5220
2220
C1E0
0400
7FC0
0400
FFE0
ENDCHAR
STARTCHAR U_3639
ENCODING 13881
SWIDTH 1000 0
DWIDTH 12 0
BBX 11 11 0 -1
BITMAP 
1100
1120
5D40
5180
5120
5D20
E0E0
0400
7FC0
0400
FFE0
ENDCHAR
STARTCHAR U_363A
ENCODING 13882
SWIDTH 1000 0
DWIDTH 12 0
BBX 11 11 0 -1
BITMAP 
42A0
4280
44E0
E580
4CA0
54A0
44C0
44C0
64A0
C560
0620
ENDCHAR
STARTCHAR U_363B
ENCODING 13883
SWIDTH 1000 0
DWIDTH 12 0
BBX 11 11 0 -1
BITMAP 
2FE0
2920
2920
F920
2FE0
2920
2920
2AA0
3AA0
CC60
0FE0
ENDCHAR
STARTCHAR U_363C
ENCODING 13884
SWIDTH 1000 0
DWIDTH 12 0
BBX 11 11 0 -1
BITMAP 
2100
27A0
F140
2FE0
2100
23E0
2600
2BE0
3020
C020
00C0
ENDCHAR
STARTCHAR U_363D
ENCODING 13885
SWIDTH 1000 0
DWIDTH 12 0
BBX 11 11 0 -1
BITMAP 
1140
7D20
1100
FFE0
1100
1120
7CA0
10C0
14A0
F960
4220
ENDCHAR
STARTCHAR U_363E
ENCODING 13886
SWIDTH 1000 0
DWIDTH 12 0
BBX 11 11 0 -1
BITMAP 
2100
2FE0
2820
F7C0
2100
2100
2FE0
2100
3100
C100
0300
ENDCHAR
STARTCHAR U_363F
ENCODING 13887
SWIDTH 1000 0
DWIDTH 12 0
BBX 11 11 0 -1
BITMAP 
27C0
2440
27C0
F440
2440
27C0
2100
27C0
3100
C100
0FE0
ENDCHAR
STARTCHAR U_3640
ENCODING 13888
SWIDTH 1000 0
DWIDTH 12 0
BBX 11 11 0 -1
BITMAP 
0100
4FE0
4AA0
E280
4C60
4200
47C0
4240
6240
8440
0860
ENDCHAR
STARTCHAR U_3641
ENCODING 13889
SWIDTH 1000 0
DWIDTH 12 0
BBX 11 11 0 -1
BITMAP 
0400
47E0
4800
F7C0
4540
5FE0
4640
4940
6FE0
C140
0080
ENDCHAR
STARTCHAR U_3642
ENCODING 13890
SWIDTH 1000 0
DWIDTH 12 0
BBX 11 11 0 -1
BITMAP
2440
2280
27C0
F440
2440
27C0
2280
3280
C4A0
08A0
1060
ENDCHAR
STARTCHAR U_3643
ENCODING 13891
SWIDTH 1000 0
DWIDTH 12 0
BBX 11 11 0 -1
BITMAP 
00C0
4700
4400
E7C0
4480
4480
4480
6FE0
C280
8440
0820
ENDCHAR
STARTCHAR U_3644
ENCODING 13892
SWIDTH 1000 0
DWIDTH 12 0
BBX 11 11 0 -1
BITMAP 
0880
4EE0
4880
EA80
4CE0
4100
4100
47C0
6100
8100
0FE0
ENDCHAR
STARTCHAR U_3645
ENCODING 13893
SWIDTH 1000 0
DWIDTH 12 0
BBX 11 11 0 -1
BITMAP 
27C0
2440
2440
77C0
2100
2FE0
2100
3540
2520
4920
0100
ENDCHAR
STARTCHAR U_3646
ENCODING 13894
SWIDTH 1000 0
DWIDTH 12 0
BBX 11 11 0 -1
BITMAP 
0100
2FE0
2820
F100
2FE0
2100
2200
3280
C480
0920
13E0
ENDCHAR
STARTCHAR U_3647
ENCODING 13895
SWIDTH 1000 0
DWIDTH 12 0
BBX 11 11 0 -1
BITMAP
27C0
2100
FB20
24C0
2380
2B80
34C0
C1C0
02A0
0C80
0100
ENDCHAR
STARTCHAR U_3648
ENCODING 13896
SWIDTH 1000 0
DWIDTH 12 0
BBX 11 11 0 -1
BITMAP 
0100
41C0
4100
4FE0
E920
4F80
4900
48C0
6A80
92A0
1460
ENDCHAR
STARTCHAR U_3649
ENCODING 13897
SWIDTH 1000 0
DWIDTH 12 0
BBX 11 11 0 -1
BITMAP 
0500
4500
5FC0
5540
5FC0
F540
5540
7FE0
4880
6840
D040
ENDCHAR
STARTCHAR U_364A
ENCODING 13898
SWIDTH 1000 0
DWIDTH 12 0
BBX 11 11 0 -1
BITMAP 
07C0
4400
4780
E400
4780
4400
5FE0
4A40
6980
8A80
0C60
ENDCHAR
STARTCHAR U_364B
ENCODING 13899
SWIDTH 1000 0
DWIDTH 12 0
BBX 11 11 0 -1
BITMAP 
0480
4480
4FC0
E480
4780
4480
4780
6480
DFE0
0480
0840
ENDCHAR
STARTCHAR U_364C
ENCODING 13900
SWIDTH 1000 0
DWIDTH 12 0
BBX 11 11 0 -1
BITMAP 
0100
47C0
4140
EFE0
4140
47C0
4540
4540
67C0
8540
0940
ENDCHAR
STARTCHAR U_364D
ENCODING 13901
SWIDTH 1000 0
DWIDTH 12 0
BBX 11 11 0 -1
BITMAP 
1FE0
4220
4B40
E480
5B60
4000
5FE0
5320
6AA0
8440
1BA0
ENDCHAR
STARTCHAR U_364E
ENCODING 13902
SWIDTH 1000 0
DWIDTH 12 0
BBX 11 11 0 -1
BITMAP 
40A0
5FE0
F080
5E80
5480
5FA0
55A0
5AC0
7480
DB60
2220
ENDCHAR
STARTCHAR U_364F
ENCODING 13903
SWIDTH 1000 0
DWIDTH 12 0
BBX 11 11 0 -1
BITMAP 
0400
47E0
5800
E7C0
4440
47C0
4440
47C0
6E40
8180
0E60
ENDCHAR
STARTCHAR U_3650
ENCODING 13904
SWIDTH 1000 0
DWIDTH 12 0
BBX 11 11 0 -1
BITMAP 
0100
4920
4FE0
E000
4FE0
4200
4FE0
6AA0
8AA0
0AA0
0860
ENDCHAR
STARTCHAR U_3651
ENCODING 13905
SWIDTH 1000 0
DWIDTH 12 0
BBX 11 11 0 -1
BITMAP 
3F80
0400
3F80
2480
7FC0
4440
5B40
0400
3F80
0400
FFE0
ENDCHAR
STARTCHAR U_3652
ENCODING 13906
SWIDTH 1000 0
DWIDTH 12 0
BBX 11 11 0 -1
BITMAP 
FBE0
A940
A880
FFE0
A8A0
AAC0
F980
0480
3F80
0400
FFE0
ENDCHAR
STARTCHAR U_3653
ENCODING 13907
SWIDTH 1000 0
DWIDTH 12 0
BBX 11 11 0 -1
BITMAP 
0400
7FC0
0400
FFE0
2080
FBC0
3080
E5E0
7FC0
0400
FFE0
ENDCHAR
STARTCHAR U_3654
ENCODING 13908
SWIDTH 1000 0
DWIDTH 12 0
BBX 11 11 0 -1
BITMAP 
0200
4780
4280
EFC0
4480
4780
4100
6780
8500
1FE0
0100
ENDCHAR
STARTCHAR U_3655
ENCODING 13909
SWIDTH 1000 0
DWIDTH 12 0
BBX 11 11 0 -1
BITMAP 
0FE0
4920
4FE0
E920
4FE0
4000
47C0
6640
85C0
0740
08C0
ENDCHAR
STARTCHAR U_3656
ENCODING 13910
SWIDTH 1000 0
DWIDTH 12 0
BBX 11 11 0 -1
BITMAP 
0180
4E00
4200
EFC0
4A40
4FC0
4200
7FE0
9220
13A0
1460
ENDCHAR
STARTCHAR U_3657
ENCODING 13911
SWIDTH 1000 0
DWIDTH 12 0
BBX 11 11 0 -1
BITMAP 
07C0
4540
47C0
E540
47C0
4000
4FE0
6500
8540
0480
0660
ENDCHAR
STARTCHAR U_3658
ENCODING 13912
SWIDTH 1000 0
DWIDTH 12 0
BBX 11 11 0 -1
BITMAP 
07C0
4280
4FE0
EAA0
4FE0
4200
4FE0
6280
8480
0300
0CE0
ENDCHAR
STARTCHAR U_3659
ENCODING 13913
SWIDTH 1000 0
DWIDTH 12 0
BBX 11 11 0 -1
BITMAP 
8240
5FE0
0480
C540
0A80
2A40
D1E0
8400
3F80
0400
FFE0
ENDCHAR
STARTCHAR U_365A
ENCODING 13914
SWIDTH 1000 0
DWIDTH 12 0
BBX 11 11 0 -1
BITMAP 
0240
4FE0
4100
E7C0
4100
4FE0
4100
67C0
8900
1FE0
0100
ENDCHAR
STARTCHAR U_365B
ENCODING 13915
SWIDTH 1000 0
DWIDTH 12 0
BBX 11 11 0 -1
BITMAP 
0140
4FE0
4100
EFE0
4920
4FE0
4920
6040
8FE0
0440
02C0
ENDCHAR
STARTCHAR U_365C
ENCODING 13916
SWIDTH 1000 0
DWIDTH 12 0
BBX 11 11 0 -1
BITMAP 
0800
FF80
2200
3E00
0000
FFC0
A440
88C0
3E00
0800
FFC0
ENDCHAR
STARTCHAR U_365D
ENCODING 13917
SWIDTH 1000 0
DWIDTH 12 0
BBX 11 11 0 -1
BITMAP
0100
4FC0
4440
FFE0
4AA0
57E0
4440
67C0
8440
07C0
0440
ENDCHAR
STARTCHAR U_365E
ENCODING 13918
SWIDTH 1000 0
DWIDTH 12 0
BBX 11 11 0 -1
BITMAP 
0200
4F80
4880
EF80
4880
4F80
4200
6FC0
8200
0A80
1240
ENDCHAR
STARTCHAR U_365F
ENCODING 13919
SWIDTH 1000 0
DWIDTH 12 0
BBX 11 11 0 -1
BITMAP 
0400
4EE0
4AA0
EEA0
4AE0
4EA0
48E0
6AA0
8AA0
0CA0
0960
ENDCHAR
STARTCHAR U_3660
ENCODING 13920
SWIDTH 1000 0
DWIDTH 12 0
BBX 11 11 0 -1
BITMAP 
FDC0
A140
BA20
D1C0
FD40
A880
FF60
0400
7FC0
0400
FFE0
ENDCHAR
STARTCHAR U_3661
ENCODING 13921
SWIDTH 1000 0
DWIDTH 12 0
BBX 11 11 0 -1
BITMAP 
4540
4940
F540
49C0
5AA0
4800
4A80
6AE0
4A80
8B80
0C60
ENDCHAR
STARTCHAR U_3662
ENCODING 13922
SWIDTH 1000 0
DWIDTH 12 0
BBX 11 11 0 -1
BITMAP 
0280
07C0
2280
7100
2FE0
3920
4BA0
0D60
0960
0100
0000
ENDCHAR
STARTCHAR U_3663
ENCODING 13923
SWIDTH 1000 0
DWIDTH 12 0
BBX 11 11 0 -1
BITMAP 
5DE0
4500
45C0
ED00
51C0
5100
5FE0
6520
C5C0
1540
0DA0
ENDCHAR
STARTCHAR U_3664
ENCODING 13924
SWIDTH 1000 0
DWIDTH 12 0
BBX 11 11 0 -1
BITMAP 
01C0
4100
4FE0
E940
4BE0
48C0
4BA0
4AC0
6FE0
8880
1380
ENDCHAR
STARTCHAR U_3665
ENCODING 13925
SWIDTH 1000 0
DWIDTH 12 0
BBX 11 11 0 -1
BITMAP
2100
2FE0
2440
F900
22A0
27C0
2100
32A0
C640
0B20
0200
ENDCHAR
STARTCHAR U_3666
ENCODING 13926
SWIDTH 1000 0
DWIDTH 12 0
BBX 11 11 0 -1
BITMAP 
2280
5180
FA80
2180
FFE0
7080
AC80
0400
3F80
0400
FFE0
ENDCHAR
STARTCHAR U_3667
ENCODING 13927
SWIDTH 1000 0
DWIDTH 12 0
BBX 11 11 0 -1
BITMAP 
0FE0
2280
2EE0
FAA0
2EE0
2280
27C0
3540
C7C0
0540
07C0
ENDCHAR
STARTCHAR U_3668
ENCODING 13928
SWIDTH 1000 0
DWIDTH 12 0
BBX 11 11 0 -1
BITMAP 
0520
4940
5DE0
EB40
5FE0
4140
5FE0
4900
6940
CCA0
1360
ENDCHAR
STARTCHAR U_3669
ENCODING 13929
SWIDTH 1000 0
DWIDTH 12 0
BBX 11 11 0 -1
BITMAP 
4100
4FE0
4AA0
E440
4FE0
4440
47C0
4440
67C0
8540
0B20
ENDCHAR
STARTCHAR U_366A
ENCODING 13930
SWIDTH 1000 0
DWIDTH 12 0
BBX 11 11 0 -1
BITMAP 
4100
4FE0
4100
EFE0
4820
47C0
4440
47C0
6440
8280
0FE0
ENDCHAR
STARTCHAR U_366B
ENCODING 13931
SWIDTH 1000 0
DWIDTH 12 0
BBX 11 11 0 -1
BITMAP 
0500
5FE0
4900
EFE0
4900
4FE0
4900
5FE0
6380
8540
0920
ENDCHAR
STARTCHAR U_366C
ENCODING 13932
SWIDTH 1000 0
DWIDTH 12 0
BBX 11 11 0 -1
BITMAP 
10A0
FFE0
5480
BA80
1080
3940
D620
0400
7FC0
0400
FFE0
ENDCHAR
STARTCHAR U_366D
ENCODING 13933
SWIDTH 1000 0
DWIDTH 12 0
BBX 11 11 0 -1
BITMAP 
1FE0
5540
52E0
FFA0
5240
5AC0
5FC0
5240
7440
94A0
2920
ENDCHAR
STARTCHAR U_366E
ENCODING 13934
SWIDTH 1000 0
DWIDTH 12 0
BBX 11 11 0 -1
BITMAP 
0880
4EE0
5540
E100
4280
4440
5BA0
4000
67C0
8440
07C0
ENDCHAR
STARTCHAR U_366F
ENCODING 13935
SWIDTH 1000 0
DWIDTH 12 0
BBX 11 11 0 -1
BITMAP 
2100
7100
23C0
DB40
7140
22E0
7FC0
0000
FFE0
1100
3F80
ENDCHAR
STARTCHAR U_3670
ENCODING 13936
SWIDTH 1000 0
DWIDTH 12 0
BBX 11 11 0 -1
BITMAP 
73E0
9120
FA60
AA80
FBC0
AC80
FBE0
8C80
7FC0
0400
FFE0
ENDCHAR
STARTCHAR U_3671
ENCODING 13937
SWIDTH 1000 0
DWIDTH 12 0
BBX 11 11 0 -1
BITMAP 
71C0
5100
FFE0
4580
77E0
1540
6B60
0400
7FC0
0400
FFE0
ENDCHAR
STARTCHAR U_3672
ENCODING 13938
SWIDTH 1000 0
DWIDTH 12 0
BBX 11 11 0 -1
BITMAP 
0200
5FE0
4480
EB40
5DE0
4540
4BE0
5D40
65E0
8940
11E0
ENDCHAR
STARTCHAR U_3673
ENCODING 13939
SWIDTH 1000 0
DWIDTH 12 0
BBX 11 11 0 -1
BITMAP 
40A0
5FE0
5080
F7A0
50A0
5740
55A0
6740
5440
9AA0
27A0
ENDCHAR
STARTCHAR U_3674
ENCODING 13940
SWIDTH 1000 0
DWIDTH 12 0
BBX 11 11 0 -1
BITMAP 
4380
4480
EFE0
4A40
4FE0
4800
4BC0
4800
6BC0
8A40
13C0
ENDCHAR
STARTCHAR U_3675
ENCODING 13941
SWIDTH 1000 0
DWIDTH 12 0
BBX 11 11 0 -1
BITMAP 
0100
4FE0
4280
EFE0
4AA0
4BA0
4860
4920
67C0
C100
1FE0
ENDCHAR
STARTCHAR U_3676
ENCODING 13942
SWIDTH 1000 0
DWIDTH 12 0
BBX 11 11 0 -1
BITMAP 
0400
FFE0
2080
3F80
2480
1500
FFE0
9120
3F80
0400
FFE0
ENDCHAR
STARTCHAR U_3677
ENCODING 13943
SWIDTH 1000 0
DWIDTH 12 0
BBX 11 11 0 -1
BITMAP 
4FE0
4820
EFE0
4820
4FE0
4440
4EE0
4440
6EE0
8540
0AA0
ENDCHAR
STARTCHAR U_3678
ENCODING 13944
SWIDTH 1000 0
DWIDTH 12 0
BBX 11 11 0 -1
BITMAP 
0540
4B60
5940
EBE0
4940
4BE0
4880
69C0
8880
0BE0
0940
ENDCHAR
STARTCHAR U_3679
ENCODING 13945
SWIDTH 1000 0
DWIDTH 12 0
BBX 11 11 0 -1
BITMAP 
4480
5CE0
4480
EFE0
4AA0
5FE0
5220
65C0
4A80
8100
0E00
ENDCHAR
STARTCHAR U_367A
ENCODING 13946
SWIDTH 1000 0
DWIDTH 12 0
BBX 11 11 0 -1
BITMAP 
1FE0
5100
57C0
F540
5FE0
5440
57C0
7440
57C0
9280
1FE0
ENDCHAR
STARTCHAR U_367B
ENCODING 13947
SWIDTH 1000 0
DWIDTH 12 0
BBX 11 11 0 -1
BITMAP 
4100
5FE0
F540
57C0
5540
57C0
5540
7BA0
57C0
9100
2FE0
ENDCHAR
STARTCHAR U_367C
ENCODING 13948
SWIDTH 1000 0
DWIDTH 12 0
BBX 11 11 0 -1
BITMAP 
07C0
4540
47C0
E540
47C0
4000
4FE0
6AA0
4FE0
8AA0
0FE0
ENDCHAR
STARTCHAR U_367D
ENCODING 13949
SWIDTH 1000 0
DWIDTH 12 0
BBX 11 11 0 -1
BITMAP 
0200
4200
5FE0
4A40
FEE0
56A0
5EE0
56A0
7FE0
C280
1C60
ENDCHAR
STARTCHAR U_367E
ENCODING 13950
SWIDTH 1000 0
DWIDTH 12 0
BBX 11 11 0 -1
BITMAP 
06C0
4540
46C0
E540
46C0
4FE0
5120
6FC0
C080
0280
0100
ENDCHAR
STARTCHAR U_367F
ENCODING 13951
SWIDTH 1000 0
DWIDTH 12 0
BBX 11 11 0 -1
BITMAP 
0480
5FE0
4100
EFC0
4100
5FE0
4540
7FE0
4EA0
9540
0EA0
ENDCHAR
STARTCHAR U_3680
ENCODING 13952
SWIDTH 1000 0
DWIDTH 12 0
BBX 11 11 0 -1
BITMAP 
0640
4460
5FE0
F640
5F40
5040
5FC0
5560
7740
95C0
2F20
ENDCHAR
STARTCHAR U_3681
ENCODING 13953
SWIDTH 1000 0
DWIDTH 12 0
BBX 11 11 0 -1
BITMAP 
2080
71C0
2080
FBE0
5140
FBE0
5140
FFE0
5140
5940
9260
ENDCHAR
STARTCHAR U_3682
ENCODING 13954
SWIDTH 1000 0
DWIDTH 12 0
BBX 11 11 0 -1
BITMAP 
0100
4FE0
4540
EFE0
4D60
47C0
4540
6FE0
8540
0C80
0660
ENDCHAR
STARTCHAR U_3683
ENCODING 13955
SWIDTH 1000 0
DWIDTH 12 0
BBX 11 11 0 -1
BITMAP 
0400
7FC0
0400
1F00
0000
FFE0
AAA0
2E80
3F80
1100
FFE0
ENDCHAR
STARTCHAR U_3684
ENCODING 13956
SWIDTH 1000 0
DWIDTH 12 0
BBX 11 11 0 -1
BITMAP 
0400
7FC0
0400
FFE0
A4A0
3F80
2480
7FC0
2740
3400
CFE0
ENDCHAR
STARTCHAR U_3685
ENCODING 13957
SWIDTH 1000 0
DWIDTH 12 0
BBX 11 11 0 -1
BITMAP 
1F80
7100
0E00
1100
EEE0
1400
3F80
4400
1F00
0400
FFE0
ENDCHAR
STARTCHAR U_3686
ENCODING 13958
SWIDTH 1000 0
DWIDTH 12 0
BBX 11 11 0 -1
BITMAP 
0400
FFE0
0000
3F80
2080
3F80
2080
3F80
6900
0600
FDE0
ENDCHAR
STARTCHAR U_3687
ENCODING 13959
SWIDTH 1000 0
DWIDTH 12 0
BBX 11 11 0 -1
BITMAP 
1900
4640
5940
7FC0
1080
2840
DFA0
3080
4900
0600
F9E0
ENDCHAR
STARTCHAR U_3688
ENCODING 13960
SWIDTH 1000 0
DWIDTH 12 0
BBX 11 11 0 -1
BITMAP 
2080
3C80
4480
C880
2BE0
1080
1080
2080
4080
8080
0080
ENDCHAR
STARTCHAR U_3689
ENCODING 13961
SWIDTH 1000 0
DWIDTH 12 0
BBX 11 11 0 -1
BITMAP 
7F80
10E0
2820
DF60
2A00
0400
0A00
3780
0C80
0300
3E00
ENDCHAR
STARTCHAR U_368A
ENCODING 13962
SWIDTH 1000 0
DWIDTH 12 0
BBX 11 11 0 -1
BITMAP 
2080
7BE0
C880
3100
2240
5180
B920
4A40
B480
2140
C620
ENDCHAR
STARTCHAR U_368B
ENCODING 13963
SWIDTH 1000 0
DWIDTH 12 0
BBX 11 11 0 -1
BITMAP 
4FE0
7920
9BA0
6920
4FE0
C820
7BA0
9AA0
6BA0
4820
9060
ENDCHAR
STARTCHAR U_368C
ENCODING 13964
SWIDTH 1000 0
DWIDTH 12 0
BBX 11 11 0 -1
BITMAP 
47C0
F540
57C0
2540
47C0
A100
7FE0
D300
2380
4540
8920
ENDCHAR
STARTCHAR U_368D
ENCODING 13965
SWIDTH 1000 0
DWIDTH 12 0
BBX 11 11 0 -1
BITMAP 
4100
77C0
D540
2FE0
4440
C7C0
7440
D7C0
2440
47C0
8820
ENDCHAR
STARTCHAR U_368E
ENCODING 13966
SWIDTH 1000 0
DWIDTH 12 0
BBX 11 11 0 -1
BITMAP 
0400
0840
FFE0
1200
2100
4080
8060
2080
2080
2080
3F80
ENDCHAR
STARTCHAR U_368F
ENCODING 13967
SWIDTH 1000 0
DWIDTH 12 0
BBX 11 11 0 -1
BITMAP 
0800
FFE0
1100
2080
4040
9120
1100
FFE0
1100
1100
2100
ENDCHAR
STARTCHAR U_3690
ENCODING 13968
SWIDTH 1000 0
DWIDTH 12 0
BBX 11 11 0 -1
BITMAP 
0400
0400
FFE0
0A00
3180
C460
0400
FFE0
0A00
3180
C060
ENDCHAR
STARTCHAR U_3691
ENCODING 13969
SWIDTH 1000 0
DWIDTH 12 0
BBX 11 11 0 -1
BITMAP 
3F80
0080
3F80
0080
3F80
0400
0800
FFE0
1200
2180
C060
ENDCHAR
STARTCHAR U_3692
ENCODING 13970
SWIDTH 1000 0
DWIDTH 12 0
BBX 11 11 0 -1
BITMAP 
0400
0400
FFE0
0400
4500
2480
5540
0A00
1100
2080
C060
ENDCHAR
STARTCHAR U_3693
ENCODING 13971
SWIDTH 1000 0
DWIDTH 12 0
BBX 11 11 0 -1
BITMAP 
0400
0400
FFE0
0A00
3180
C460
0400
FFE0
0E00
3580
C460
ENDCHAR
STARTCHAR U_3694
ENCODING 13972
SWIDTH 1000 0
DWIDTH 12 0
BBX 11 11 0 -1
BITMAP 
0400
0400
FFE0
0A00
3180
CA60
3F80
0400
FFE0
0400
0400
ENDCHAR
STARTCHAR U_3695
ENCODING 13973
SWIDTH 1000 0
DWIDTH 12 0
BBX 11 11 0 -1
BITMAP 
0400
7FC0
1100
6AC0
BFA0
0A80
3F80
2A00
3FC0
1240
2280
ENDCHAR
STARTCHAR U_3696
ENCODING 13974
SWIDTH 1000 0
DWIDTH 12 0
BBX 11 11 0 -1
BITMAP 
0800
7FC0
4040
7FC0
4040
7FC0
0400
FFE0
0A00
3180
C060
ENDCHAR
STARTCHAR U_3697
ENCODING 13975
SWIDTH 1000 0
DWIDTH 12 0
BBX 11 11 0 -1
BITMAP 
0400
FFE0
0A00
3180
5F40
9120
1F00
1100
1F00
1100
FFE0
ENDCHAR
STARTCHAR U_3698
ENCODING 13976
SWIDTH 1000 0
DWIDTH 12 0
BBX 11 11 0 -1
BITMAP 
2080
2080
2080
FBE0
2080
FBE0
2080
2140
5140
4A20
8420
ENDCHAR
STARTCHAR U_3699
ENCODING 13977
SWIDTH 1000 0
DWIDTH 12 0
BBX 11 11 0 -1
BITMAP 
2000
FBE0
2A20
2A20
4A20
9BE0
0400
FFE0
0A00
1100
E0E0
ENDCHAR
STARTCHAR U_369A
ENCODING 13978
SWIDTH 1000 0
DWIDTH 12 0
BBX 11 11 0 -1
BITMAP 
0400
7FC0
1100
2480
CF60
3200
0C00
3000
DF80
1080
1F80
ENDCHAR
STARTCHAR U_369B
ENCODING 13979
SWIDTH 1000 0
DWIDTH 12 0
BBX 11 11 0 -1
BITMAP 
0400
7FC0
1100
20E0
DE00
1080
1F80
1080
1F80
1080
1F80
ENDCHAR
STARTCHAR U_369C
ENCODING 13980
SWIDTH 1000 0
DWIDTH 12 0
BBX 11 11 0 -1
BITMAP 
0400
FFE0
1100
2280
C360
FFE0
4A80
7A80
0100
3AA0
C460
ENDCHAR
STARTCHAR U_369D
ENCODING 13981
SWIDTH 1000 0
DWIDTH 12 0
BBX 11 11 0 -1
BITMAP 
0400
FFE0
1100
2280
D760
2200
6FC0
A200
2780
2200
2FC0
ENDCHAR
STARTCHAR U_369E
ENCODING 13982
SWIDTH 1000 0
DWIDTH 12 0
BBX 11 11 0 -1
BITMAP 
0400
FFE0
1100
2080
D160
7BC0
1100
3B80
3540
5140
1100
ENDCHAR
STARTCHAR U_369F
ENCODING 13983
SWIDTH 1000 0
DWIDTH 12 0
BBX 11 11 0 -1
BITMAP 
1F00
2200
7F80
A080
3F80
2220
31E0
0400
FFE0
1100
60E0
ENDCHAR
STARTCHAR U_36A0
ENCODING 13984
SWIDTH 1000 0
DWIDTH 12 0
BBX 11 11 0 -1
BITMAP 
0400
FFE0
1100
60C0
9120
7FC0
0400
3F80
0400
FFE0
8920
ENDCHAR
STARTCHAR U_36A1
ENCODING 13985
SWIDTH 1000 0
DWIDTH 12 0
BBX 11 11 0 -1
BITMAP 
2080
FBE0
5140
8A20
FFE0
0820
EBA0
AAA0
EBA0
0820
1860
ENDCHAR
STARTCHAR U_36A2
ENCODING 13986
SWIDTH 1000 0
DWIDTH 12 0
BBX 11 11 0 -1
BITMAP 
1100
1100
1100
2100
6FE0
A240
2480
2280
2100
22C0
2C20
ENDCHAR
STARTCHAR U_36A3
ENCODING 13987
SWIDTH 1000 0
DWIDTH 12 0
BBX 11 11 0 -1
BITMAP 
0400
FFE0
1100
0E00
7180
0400
FFE0
0900
1A00
0700
78E0
ENDCHAR
STARTCHAR U_36A4
ENCODING 13988
SWIDTH 1000 0
DWIDTH 12 0
BBX 11 11 0 -1
BITMAP 
2140
2120
2100
F9E0
4B00
5100
9100
5080
20A0
5060
8820
ENDCHAR
STARTCHAR U_36A5
ENCODING 13989
SWIDTH 1000 0
DWIDTH 12 0
BBX 11 11 0 -1
BITMAP 
2000
23E0
2080
F880
4880
57E0
9080
5080
2080
5080
8980
ENDCHAR
STARTCHAR U_36A6
ENCODING 13990
SWIDTH 1000 0
DWIDTH 12 0
BBX 11 11 0 -1
BITMAP 
2000
23E0
2140
F940
4940
5140
9140
5140
2240
5240
8440
ENDCHAR
STARTCHAR U_36A7
ENCODING 13991
SWIDTH 1000 0
DWIDTH 12 0
BBX 11 11 0 -1
BITMAP 
2100
2080
23E0
FA00
4A00
5200
9200
5200
2200
5400
8400
ENDCHAR
STARTCHAR U_36A8
ENCODING 13992
SWIDTH 1000 0
DWIDTH 12 0
BBX 11 11 0 -1
BITMAP 
2000
2780
2280
FA80
4A80
5780
9280
52A0
22A0
5260
8A20
ENDCHAR
STARTCHAR U_36A9
ENCODING 13993
SWIDTH 1000 0
DWIDTH 12 0
BBX 11 11 0 -1
BITMAP 
2000
23C0
2240
FA40
4FE0
5240
9240
57E0
2240
5240
8AC0
ENDCHAR
STARTCHAR U_36AA
ENCODING 13994
SWIDTH 1000 0
DWIDTH 12 0
BBX 11 11 0 -1
BITMAP 
2060
2780
2100
F9E0
4F00
5100
91E0
5700
2120
5120
89E0
ENDCHAR
STARTCHAR U_36AB
ENCODING 13995
SWIDTH 1000 0
DWIDTH 12 0
BBX 11 11 0 -1
BITMAP 
2000
2FC0
2440
F480
55E0
5420
9640
5540
2480
5940
8A20
ENDCHAR
STARTCHAR U_36AC
ENCODING 13996
SWIDTH 1000 0
DWIDTH 12 0
BBX 11 11 0 -1
BITMAP 
2200
2200
23E0
FA20
4D20
50A0
9020
50A0
2320
5020
88E0
ENDCHAR
STARTCHAR U_36AD
ENCODING 13997
SWIDTH 1000 0
DWIDTH 12 0
BBX 11 11 0 -1
BITMAP 
2140
2120
2100
FFE0
4900
5180
9280
5280
2280
54A0
88E0
ENDCHAR
STARTCHAR U_36AE
ENCODING 13998
SWIDTH 1000 0
DWIDTH 12 0
BBX 11 11 0 -1
BITMAP 
2000
27E0
2420
F800
4BC0
5240
9240
5240
2240
5440
8860
ENDCHAR
STARTCHAR U_36AF
ENCODING 13999
SWIDTH 1000 0
DWIDTH 12 0
BBX 11 11 0 -1
BITMAP 
27C0
2440
24C0
FEC0
4D40
5540
96C0
5440
2460
5420
8820
ENDCHAR
STARTCHAR U_36B0
ENCODING 14000
SWIDTH 1000 0
DWIDTH 12 0
BBX 11 11 0 -1
BITMAP 
2000
2FE0
2100
F900
4B40
5320
9520
5900
2100
5000
8FE0
ENDCHAR
STARTCHAR U_36B1
ENCODING 14001
SWIDTH 1000 0
DWIDTH 12 0
BBX 11 11 0 -1
BITMAP 
20C0
2300
2200
FA00
4BE0
5280
9280
5280
2280
5280
87E0
ENDCHAR
STARTCHAR U_36B2
ENCODING 14002
SWIDTH 1000 0
DWIDTH 12 0
BBX 11 11 0 -1
BITMAP 
2100
2100
2100
F9E0
4900
5100
97E0
5420
2420
5420
87E0
ENDCHAR
STARTCHAR U_36B3
ENCODING 14003
SWIDTH 1000 0
DWIDTH 12 0
BBX 11 11 0 -1
BITMAP 
2200
2200
2780
FAE0
4AA0
52A0
92A0
52A0
24E0
5480
8980
ENDCHAR
STARTCHAR U_36B4
ENCODING 14004
SWIDTH 1000 0
DWIDTH 12 0
BBX 11 11 0 -1
BITMAP 
2080
2080
27E0
F900
4A80
57E0
9AA0
52A0
22E0
5080
8880
ENDCHAR
STARTCHAR U_36B5
ENCODING 14005
SWIDTH 1000 0
DWIDTH 12 0
BBX 11 11 0 -1
BITMAP 
2100
2100
23E0
FE40
4980
5240
9420
5180
2040
5300
8880
ENDCHAR
STARTCHAR U_36B6
ENCODING 14006
SWIDTH 1000 0
DWIDTH 12 0
BBX 11 11 0 -1
BITMAP 
23C0
2240
2240
FBC0
4A00
5200
93E0
5220
2220
53E0
8A20
ENDCHAR
STARTCHAR U_36B7
ENCODING 14007
SWIDTH 1000 0
DWIDTH 12 0
BBX 11 11 0 -1
BITMAP 
2100
2100
2280
FC40
4920
5100
9540
5920
2120
5100
8B00
ENDCHAR
STARTCHAR U_36B8
ENCODING 14008
SWIDTH 1000 0
DWIDTH 12 0
BBX 11 11 0 -1
BITMAP 
2000
27E0
2020
FBA0
4820
53A0
92A0
52A0
23A0
5020
8860
ENDCHAR
STARTCHAR U_36B9
ENCODING 14009
SWIDTH 1000 0
DWIDTH 12 0
BBX 11 11 0 -1
BITMAP 
2200
2CE0
2AA0
FAA0
4AA0
52A0
96A0
5AE0
2280
5480
8880
ENDCHAR
STARTCHAR U_36BA
ENCODING 14010
SWIDTH 1000 0
DWIDTH 12 0
BBX 11 11 0 -1
BITMAP 
2000
2780
2280
FAE0
4C20
57A0
9140
5100
27C0
5100
8B00
ENDCHAR
STARTCHAR U_36BB
ENCODING 14011
SWIDTH 1000 0
DWIDTH 12 0
BBX 11 11 0 -1
BITMAP 
3F80
2480
3F80
2480
3F80
0400
7FC0
0900
1E00
0700
78C0
ENDCHAR
STARTCHAR U_36BC
ENCODING 14012
SWIDTH 1000 0
DWIDTH 12 0
BBX 11 11 0 -1
BITMAP 
2000
23E0
22A0
FAA0
4AA0
53E0
92A0
52A0
22A0
53E0
8A20
ENDCHAR
STARTCHAR U_36BD
ENCODING 14013
SWIDTH 1000 0
DWIDTH 12 0
BBX 11 11 0 -1
BITMAP 
FBE0
2080
23E0
3820
E1A0
0440
FFE0
0900
1E00
0700
78E0
ENDCHAR
STARTCHAR U_36BE
ENCODING 14014
SWIDTH 1000 0
DWIDTH 12 0
BBX 11 11 0 -1
BITMAP 
2000
27C0
2440
FC40
4C40
57C0
9280
5280
2280
54A0
88E0
ENDCHAR
STARTCHAR U_36BF
ENCODING 14015
SWIDTH 1000 0
DWIDTH 12 0
BBX 11 11 0 -1
BITMAP 
2200
2200
23E0
F420
5BA0
52A0
93A0
5220
22C0
5220
8BE0
ENDCHAR
STARTCHAR U_36C0
ENCODING 14016
SWIDTH 1000 0
DWIDTH 12 0
BBX 11 11 0 -1
BITMAP 
2100
21E0
2120
FA20
4C40
53E0
9020
53E0
2020
5020
8BE0
ENDCHAR
STARTCHAR U_36C1
ENCODING 14017
SWIDTH 1000 0
DWIDTH 12 0
BBX 11 11 0 -1
BITMAP 
2000
27C0
2100
FD40
4B80
5100
9FE0
5100
2100
5100
8100
ENDCHAR
STARTCHAR U_36C2
ENCODING 14018
SWIDTH 1000 0
DWIDTH 12 0
BBX 11 11 0 -1
BITMAP 
2060
2780
2400
FDE0
4D20
55A0
9520
55E0
2500
5520
89E0
ENDCHAR
STARTCHAR U_36C3
ENCODING 14019
SWIDTH 1000 0
DWIDTH 12 0
BBX 11 11 0 -1
BITMAP 
1000
7DE0
10A0
7CA0
1120
7E60
1400
FFE0
1900
0700
78E0
ENDCHAR
STARTCHAR U_36C4
ENCODING 14020
SWIDTH 1000 0
DWIDTH 12 0
BBX 11 11 0 -1
BITMAP 
2100
2080
27E0
F900
4920
52C0
9680
5A40
2240
5320
8A20
ENDCHAR
STARTCHAR U_36C5
ENCODING 14021
SWIDTH 1000 0
DWIDTH 12 0
BBX 11 11 0 -1
BITMAP 
27E0
2240
2240
FBC0
4A40
53C0
9240
5260
27C0
5040
8040
ENDCHAR
STARTCHAR U_36C6
ENCODING 14022
SWIDTH 1000 0
DWIDTH 12 0
BBX 11 11 0 -1
BITMAP 
27C0
2240
22E0
FA20
4C20
5540
9100
5FE0
2380
5540
8920
ENDCHAR
STARTCHAR U_36C7
ENCODING 14023
SWIDTH 1000 0
DWIDTH 12 0
BBX 11 11 0 -1
BITMAP 
2100
2080
27E0
FC00
4C80
5480
97E0
5480
2480
5480
8BE0
ENDCHAR
STARTCHAR U_36C8
ENCODING 14024
SWIDTH 1000 0
DWIDTH 12 0
BBX 11 11 0 -1
BITMAP 
2100
27C0
2120
F940
4FE0
5100
97C0
5A00
23E0
5020
89C0
ENDCHAR
STARTCHAR U_36C9
ENCODING 14025
SWIDTH 1000 0
DWIDTH 12 0
BBX 11 11 0 -1
BITMAP 
4000
4FE0
4280
F280
AFE0
AAA0
AAA0
6CE0
4820
6820
8FE0
ENDCHAR
STARTCHAR U_36CA
ENCODING 14026
SWIDTH 1000 0
DWIDTH 12 0
BBX 11 11 0 -1
BITMAP 
2000
23C0
2240
FA40
4A40
5520
9100
57C0
2380
5540
8920
ENDCHAR
STARTCHAR U_36CB
ENCODING 14027
SWIDTH 1000 0
DWIDTH 12 0
BBX 11 11 0 -1
BITMAP 
2100
2100
2280
FC40
4920
5100
9540
55A0
2940
5100
8B00
ENDCHAR
STARTCHAR U_36CC
ENCODING 14028
SWIDTH 1000 0
DWIDTH 12 0
BBX 11 11 0 -1
BITMAP 
2080
2100
2240
FBE0
48A0
5280
93E0
5480
27E0
5080
8880
ENDCHAR
STARTCHAR U_36CD
ENCODING 14029
SWIDTH 1000 0
DWIDTH 12 0
BBX 11 11 0 -1
BITMAP 
2100
2100
2FE0
F900
4D40
5540
93A0
5100
2280
5440
8820
ENDCHAR
STARTCHAR U_36CE
ENCODING 14030
SWIDTH 1000 0
DWIDTH 12 0
BBX 11 11 0 -1
BITMAP 
2000
23C0
2240
FA40
4BC0
5000
97E0
5420
2420
57E0
8420
ENDCHAR
STARTCHAR U_36CF
ENCODING 14031
SWIDTH 1000 0
DWIDTH 12 0
BBX 11 11 0 -1
BITMAP 
2140
2120
2FE0
F900
4D40
5380
9380
5540
2120
5100
8B00
ENDCHAR
STARTCHAR U_36D0
ENCODING 14032
SWIDTH 1000 0
DWIDTH 12 0
BBX 11 11 0 -1
BITMAP 
47E0
4100
47C0
F540
57C0
5540
97C0
6500
2200
5580
8860
ENDCHAR
STARTCHAR U_36D1
ENCODING 14033
SWIDTH 1000 0
DWIDTH 12 0
BBX 11 11 0 -1
BITMAP 
1000
1DE0
5120
FCC0
2540
F920
0400
FFE0
1100
0F00
78E0
ENDCHAR
STARTCHAR U_36D2
ENCODING 14034
SWIDTH 1000 0
DWIDTH 12 0
BBX 11 11 0 -1
BITMAP 
4FE0
4000
F000
57C0
5440
5440
97C0
6000
2440
5280
8FE0
ENDCHAR
STARTCHAR U_36D3
ENCODING 14035
SWIDTH 1000 0
DWIDTH 12 0
BBX 11 11 0 -1
BITMAP 
4660
4180
4660
F100
57E0
5280
97E0
6AA0
22E0
5080
8080
ENDCHAR
STARTCHAR U_36D4
ENCODING 14036
SWIDTH 1000 0
DWIDTH 12 0
BBX 11 11 0 -1
BITMAP 
4400
47C0
4C40
F380
5D60
5380
9100
67C0
2100
57E0
8100
ENDCHAR
STARTCHAR U_36D5
ENCODING 14037
SWIDTH 1000 0
DWIDTH 12 0
BBX 11 11 0 -1
BITMAP 
4000
47C0
4440
F7C0
5000
57C0
9540
67C0
2400
5420
83E0
ENDCHAR
STARTCHAR U_36D6
ENCODING 14038
SWIDTH 1000 0
DWIDTH 12 0
BBX 11 11 0 -1
BITMAP
4200
4440
4FE0
F280
5440
5A20
93C0
6440
2A80
5100
8EE0
ENDCHAR
STARTCHAR U_36D7
ENCODING 14039
SWIDTH 1000 0
DWIDTH 12 0
BBX 11 11 0 -1
BITMAP 
4100
4100
4540
F540
5BA0
5BA0
9100
67C0
2100
5100
8FE0
ENDCHAR
STARTCHAR U_36D8
ENCODING 14040
SWIDTH 1000 0
DWIDTH 12 0
BBX 11 11 0 -1
BITMAP 
4100
47C0
4100
F7E0
5820
53C0
9080
67E0
2100
5100
8300
ENDCHAR
STARTCHAR U_36D9
ENCODING 14041
SWIDTH 1000 0
DWIDTH 12 0
BBX 11 11 0 -1
BITMAP 
4200
4100
4FE0
F440
5280
5FE0
9100
67C0
2100
5100
8100
ENDCHAR
STARTCHAR U_36DA
ENCODING 14042
SWIDTH 1000 0
DWIDTH 12 0
BBX 11 11 0 -1
BITMAP 
47E0
4040
4380
F080
57E0
5520
97E0
5520
27E0
5520
8560
ENDCHAR
STARTCHAR U_36DB
ENCODING 14043
SWIDTH 1000 0
DWIDTH 12 0
BBX 11 11 0 -1
BITMAP 
4100
43C0
4240
FBC0
5240
53C0
9260
57C0
20C0
5140
86C0
ENDCHAR
STARTCHAR U_36DC
ENCODING 14044
SWIDTH 1000 0
DWIDTH 12 0
BBX 11 11 0 -1
BITMAP 
2200
43E0
D640
5140
5080
4760
0800
FFE0
1100
0E00
71C0
ENDCHAR
STARTCHAR U_36DD
ENCODING 14045
SWIDTH 1000 0
DWIDTH 12 0
BBX 11 11 0 -1
BITMAP 
2000
23C0
2240
FBC0
4A40
53C0
9240
53C0
2000
5240
8420
ENDCHAR
STARTCHAR U_36DE
ENCODING 14046
SWIDTH 1000 0
DWIDTH 12 0
BBX 11 11 0 -1
BITMAP 
47E0
4100
47C0
F100
57E0
5000
9240
67E0
2240
5240
8440
ENDCHAR
STARTCHAR U_36DF
ENCODING 14047
SWIDTH 1000 0
DWIDTH 12 0
BBX 11 11 0 -1
BITMAP 
2200
23C0
2480
F900
4FC0
5540
9540
57E0
2100
5280
8460
ENDCHAR
STARTCHAR U_36E0
ENCODING 14048
SWIDTH 1000 0
DWIDTH 12 0
BBX 11 11 0 -1
BITMAP 
4800
45E0
E820
4BA0
AAA0
ABA0
AAA0
AAA0
4BA0
4820
A860
ENDCHAR
STARTCHAR U_36E1
ENCODING 14049
SWIDTH 1000 0
DWIDTH 12 0
BBX 11 11 0 -1
BITMAP 
4200
4100
4FE0
F820
5780
9000
9FC0
6500
2520
5520
89E0
ENDCHAR
STARTCHAR U_36E2
ENCODING 14050
SWIDTH 1000 0
DWIDTH 12 0
BBX 11 11 0 -1
BITMAP 
27C0
2100
27E0
FB80
4D40
5120
97C0
5240
2260
5420
88C0
ENDCHAR
STARTCHAR U_36E3
ENCODING 14051
SWIDTH 1000 0
DWIDTH 12 0
BBX 11 11 0 -1
BITMAP 
47C0
4440
47C0
F000
57C0
5440
9540
6540
2540
5280
8460
ENDCHAR
STARTCHAR U_36E4
ENCODING 14052
SWIDTH 1000 0
DWIDTH 12 0
BBX 11 11 0 -1
BITMAP 
4FE0
4000
FEE0
AAA0
AAA0
AAA0
AEE0
AAA0
4AA0
6AA0
9AA0
ENDCHAR
STARTCHAR U_36E5
ENCODING 14053
SWIDTH 1000 0
DWIDTH 12 0
BBX 11 11 0 -1
BITMAP 
4100
4120
4FC0
F340
5520
5900
97E0
6420
27E0
5420
8FE0
ENDCHAR
STARTCHAR U_36E6
ENCODING 14054
SWIDTH 1000 0
DWIDTH 12 0
BBX 11 11 0 -1
BITMAP 
4480
4480
4FE0
F480
55C0
55A0
96A0
66A0
2480
5480
8480
ENDCHAR
STARTCHAR U_36E7
ENCODING 14055
SWIDTH 1000 0
DWIDTH 12 0
BBX 11 11 0 -1
BITMAP 
4100
4540
4540
F7C0
5000
57E0
9200
67C0
2A40
5240
83C0
ENDCHAR
STARTCHAR U_36E8
ENCODING 14056
SWIDTH 1000 0
DWIDTH 12 0
BBX 11 11 0 -1
BITMAP 
4440
4280
47C0
F100
57C0
5100
9FE0
6280
22A0
54A0
88E0
ENDCHAR
STARTCHAR U_36E9
ENCODING 14057
SWIDTH 1000 0
DWIDTH 12 0
BBX 11 11 0 -1
BITMAP 
4100
4FE0
4240
F7C0
5020
57C0
9440
67C0
2440
57C0
8440
ENDCHAR
STARTCHAR U_36EA
ENCODING 14058
SWIDTH 1000 0
DWIDTH 12 0
BBX 11 11 0 -1
BITMAP 
4100
4FE0
4280
F560
5FC0
5540
97C0
6540
27C0
5120
81E0
ENDCHAR
STARTCHAR U_36EB
ENCODING 14059
SWIDTH 1000 0
DWIDTH 12 0
BBX 11 11 0 -1
BITMAP 
47C0
4440
47C0
F440
57C0
5200
97E0
5AA0
24A0
5120
8240
ENDCHAR
STARTCHAR U_36EC
ENCODING 14060
SWIDTH 1000 0
DWIDTH 12 0
BBX 11 11 0 -1
BITMAP 
2100
27C0
2100
F7E0
4A80
5440
9920
5100
27C0
5100
87E0
ENDCHAR
STARTCHAR U_36ED
ENCODING 14061
SWIDTH 1000 0
DWIDTH 12 0
BBX 11 11 0 -1
BITMAP 
4280
4280
47C0
F280
5FE0
5000
97C0
5440
27C0
5440
87C0
ENDCHAR
STARTCHAR U_36EE
ENCODING 14062
SWIDTH 1000 0
DWIDTH 12 0
BBX 11 11 0 -1
BITMAP 
4100
4FE0
4920
F7C0
5100
56C0
9820
67C0
3440
4380
8C60
ENDCHAR
STARTCHAR U_36EF
ENCODING 14063
SWIDTH 1000 0
DWIDTH 12 0
BBX 11 11 0 -1
BITMAP 
4880
5E80
E4E0
7EA0
AAA0
AAA0
BEA0
54A0
5500
5420
A3E0
ENDCHAR
STARTCHAR U_36F0
ENCODING 14064
SWIDTH 1000 0
DWIDTH 12 0
BBX 11 11 0 -1
BITMAP 
47C0
4440
47C0
F480
57E0
5440
97E0
6440
27C0
5440
87C0
ENDCHAR
STARTCHAR U_36F1
ENCODING 14065
SWIDTH 1000 0
DWIDTH 12 0
BBX 11 11 0 -1
BITMAP 
27C0
2540
27C0
FD40
4FC0
5000
97E0
5520
2540
5480
8660
ENDCHAR
STARTCHAR U_36F2
ENCODING 14066
SWIDTH 1000 0
DWIDTH 12 0
BBX 11 11 0 -1
BITMAP 
47E0
4100
47C0
FC40
57C0
5440
97C0
5440
27C0
5440
8820
ENDCHAR
STARTCHAR U_36F3
ENCODING 14067
SWIDTH 1000 0
DWIDTH 12 0
BBX 11 11 0 -1
BITMAP 
0400
7FC0
2080
FFE0
8420
7FC0
4440
FFE0
3100
0E00
F1E0
ENDCHAR
STARTCHAR U_36F4
ENCODING 14068
SWIDTH 1000 0
DWIDTH 12 0
BBX 11 11 0 -1
BITMAP 
42A0
4540
4280
FD40
52A0
57E0
96A0
6520
26A0
5460
8FE0
ENDCHAR
STARTCHAR U_36F5
ENCODING 14069
SWIDTH 1000 0
DWIDTH 12 0
BBX 11 11 0 -1
BITMAP 
4060
4F80
4A20
F540
5100
57C0
9540
67C0
2540
5FE0
8540
ENDCHAR
STARTCHAR U_36F6
ENCODING 14070
SWIDTH 1000 0
DWIDTH 12 0
BBX 11 11 0 -1
BITMAP 
4100
4120
47E0
FC00
57E0
5480
96A0
65C0
2480
5140
8E20
ENDCHAR
STARTCHAR U_36F7
ENCODING 14071
SWIDTH 1000 0
DWIDTH 12 0
BBX 11 11 0 -1
BITMAP 
7D40
1120
FFE0
3980
56A0
94E0
0800
FFE0
1900
0600
79C0
ENDCHAR
STARTCHAR U_36F8
ENCODING 14072
SWIDTH 1000 0
DWIDTH 12 0
BBX 11 11 0 -1
BITMAP 
4100
4100
47E0
F900
4FC0
5000
97C0
6440
27C0
5280
8FE0
ENDCHAR
STARTCHAR U_36F9
ENCODING 14073
SWIDTH 1000 0
DWIDTH 12 0
BBX 11 11 0 -1
BITMAP 
4800
4BE0
4880
EBE0
5AA0
ABE0
AAA0
ABE0
4A80
4900
AAE0
ENDCHAR
STARTCHAR U_36FA
ENCODING 14074
SWIDTH 1000 0
DWIDTH 12 0
BBX 11 11 0 -1
BITMAP 
4100
4FE0
4440
F280
5FE0
5000
97C0
6440
27C0
5440
8FC0
ENDCHAR
STARTCHAR U_36FB
ENCODING 14075
SWIDTH 1000 0
DWIDTH 12 0
BBX 11 11 0 -1
BITMAP 
4100
47E0
F280
5540
5BA0
9100
A7E0
6100
23C0
5100
8FE0
ENDCHAR
STARTCHAR U_36FC
ENCODING 14076
SWIDTH 1000 0
DWIDTH 12 0
BBX 11 11 0 -1
BITMAP 
40C0
4700
4100
F7E0
5100
5360
9520
6560
2720
5520
87E0
ENDCHAR
STARTCHAR U_36FD
ENCODING 14077
SWIDTH 1000 0
DWIDTH 12 0
BBX 11 11 0 -1
BITMAP 
4100
4FE0
F820
5540
9380
A100
AFE0
6380
2540
5920
8100
ENDCHAR
STARTCHAR U_36FE
ENCODING 14078
SWIDTH 1000 0
DWIDTH 12 0
BBX 11 11 0 -1
BITMAP 
40A0
4080
4FE0
E880
AF80
A880
AEA0
AA40
4EC0
A940
9620
ENDCHAR
STARTCHAR U_36FF
ENCODING 14079
SWIDTH 1000 0
DWIDTH 12 0
BBX 11 11 0 -1
BITMAP 
4540
4540
4FE0
F540
5FE0
5920
97C0
5540
2540
5100
8900
ENDCHAR
STARTCHAR U_3700
ENCODING 14080
SWIDTH 1000 0
DWIDTH 12 0
BBX 11 11 0 -1
BITMAP 
4400
44E0
5FA0
E4A0
AEE0
ADA0
B5A0
A4E0
44A0
64A0
84E0
ENDCHAR
STARTCHAR U_3701
ENCODING 14081
SWIDTH 1000 0
DWIDTH 12 0
BBX 11 11 0 -1
BITMAP 
2100
2FE0
2380
F540
5FE0
5440
97C0
6440
27C0
5000
8FE0
ENDCHAR
STARTCHAR U_3702
ENCODING 14082
SWIDTH 1000 0
DWIDTH 12 0
BBX 11 11 0 -1
BITMAP
2040
FBE0
2240
7140
2040
F8C0
0800
FFE0
1100
0E00
71C0
ENDCHAR
STARTCHAR U_3703
ENCODING 14083
SWIDTH 1000 0
DWIDTH 12 0
BBX 11 11 0 -1
BITMAP 
4300
5480
FFE0
5400
55C0
9400
95C0
6400
25C0
5540
85C0
ENDCHAR
STARTCHAR U_3704
ENCODING 14084
SWIDTH 1000 0
DWIDTH 12 0
BBX 11 11 0 -1
BITMAP 
47C0
44C0
5740
F540
57C0
5540
97C0
E540
25C0
5740
8820
ENDCHAR
STARTCHAR U_3705
ENCODING 14085
SWIDTH 1000 0
DWIDTH 12 0
BBX 11 11 0 -1
BITMAP 
4100
5FE0
F100
5680
5300
9640
97C0
5540
27C0
5540
87C0
ENDCHAR
STARTCHAR U_3706
ENCODING 14086
SWIDTH 1000 0
DWIDTH 12 0
BBX 11 11 0 -1
BITMAP 
42A0
51C0
EBE0
7C80
A9C0
A9C0
AAA0
6CA0
2880
5680
81E0
ENDCHAR
STARTCHAR U_3707
ENCODING 14087
SWIDTH 1000 0
DWIDTH 12 0
BBX 11 11 0 -1
BITMAP 
4100
57C0
F100
5FE0
5100
57C0
9100
5FE0
2240
5D60
87C0
ENDCHAR
STARTCHAR U_3708
ENCODING 14088
SWIDTH 1000 0
DWIDTH 12 0
BBX 11 11 0 -1
BITMAP 
79C0
1240
F9C0
3EA0
53C0
9140
3640
FFE0
0900
0F00
7880
ENDCHAR
STARTCHAR U_3709
ENCODING 14089
SWIDTH 1000 0
DWIDTH 12 0
BBX 11 11 0 -1
BITMAP 
42A0
4540
52A0
F7E0
5420
57E0
9520
67E0
2400
5420
87E0
ENDCHAR
STARTCHAR U_370A
ENCODING 14090
SWIDTH 1000 0
DWIDTH 12 0
BBX 11 11 0 -1
BITMAP 
47E0
4420
57E0
F540
57E0
5540
97E0
5540
2560
5540
89A0
ENDCHAR
STARTCHAR U_370B
ENCODING 14091
SWIDTH 1000 0
DWIDTH 12 0
BBX 11 11 0 -1
BITMAP 
4440
4280
5FE0
E280
A440
A820
B020
6FE0
2AA0
5AA0
9FE0
ENDCHAR
STARTCHAR U_370C
ENCODING 14092
SWIDTH 1000 0
DWIDTH 12 0
BBX 11 11 0 -1
BITMAP 
23C0
FA40
2240
FA60
0400
FBC0
AA40
FA40
5140
3180
DE60
ENDCHAR
STARTCHAR U_370D
ENCODING 14093
SWIDTH 1000 0
DWIDTH 12 0
BBX 11 11 0 -1
BITMAP 
4100
4FE0
E900
6FC0
A940
AFE0
A940
AFC0
6A40
6A40
93C0
ENDCHAR
STARTCHAR U_370E
ENCODING 14094
SWIDTH 1000 0
DWIDTH 12 0
BBX 11 11 0 -1
BITMAP 
47E0
5520
F2C0
5100
5780
5240
97E0
5100
27E0
5240
8420
ENDCHAR
STARTCHAR U_370F
ENCODING 14095
SWIDTH 1000 0
DWIDTH 12 0
BBX 11 11 0 -1
BITMAP 
43C0
5240
F7E0
5420
57E0
5420
97E0
5420
27E0
5240
8420
ENDCHAR
STARTCHAR U_3710
ENCODING 14096
SWIDTH 1000 0
DWIDTH 12 0
BBX 11 11 0 -1
BITMAP 
4100
4540
57C0
F000
57C0
5000
57C0
5440
27C0
5280
8FE0
ENDCHAR
STARTCHAR U_3711
ENCODING 14097
SWIDTH 1000 0
DWIDTH 12 0
BBX 11 11 0 -1
BITMAP 
4140
2FE0
8540
57C0
2540
C7C0
4D40
FFE0
1100
1F00
70C0
ENDCHAR
STARTCHAR U_3712
ENCODING 14098
SWIDTH 1000 0
DWIDTH 12 0
BBX 11 11 0 -1
BITMAP 
42E0
4420
5660
F420
5660
5240
97E0
5240
2240
5240
8440
ENDCHAR
STARTCHAR U_3713
ENCODING 14099
SWIDTH 1000 0
DWIDTH 12 0
BBX 11 11 0 -1
BITMAP 
4440
5EE0
F540
5100
5280
5440
9BA0
5000
27C0
5440
87C0
ENDCHAR
STARTCHAR U_3714
ENCODING 14100
SWIDTH 1000 0
DWIDTH 12 0
BBX 11 11 0 -1
BITMAP 
4100
47C0
5280
FFE0
5000
57C0
9440
57C0
2280
52A0
8C60
ENDCHAR
STARTCHAR U_3715
ENCODING 14101
SWIDTH 1000 0
DWIDTH 12 0
BBX 11 11 0 -1
BITMAP 
4080
47E0
F2A0
6BE0
BEA0
ABE0
A880
6BE0
2880
5680
81E0
ENDCHAR
STARTCHAR U_3716
ENCODING 14102
SWIDTH 1000 0
DWIDTH 12 0
BBX 11 11 0 -1
BITMAP 
4280
5FE0
4AA0
FFE0
AAA0
AFE0
A440
67C0
2440
57C0
8440
ENDCHAR
STARTCHAR U_3717
ENCODING 14103
SWIDTH 1000 0
DWIDTH 12 0
BBX 11 11 0 -1
BITMAP 
4480
4FC0
4AA0
FFE0
A200
A500
AAE0
7D00
26C0
5300
8C00
ENDCHAR
STARTCHAR U_3718
ENCODING 14104
SWIDTH 1000 0
DWIDTH 12 0
BBX 11 11 0 -1
BITMAP 
41C0
4100
EFE0
6AA0
AFC0
AA40
ABC0
6A40
2BC0
5A40
97E0
ENDCHAR
STARTCHAR U_3719
ENCODING 14105
SWIDTH 1000 0
DWIDTH 12 0
BBX 11 11 0 -1
BITMAP 
4200
4FE0
EA80
6FE0
AAA0
AFE0
AA40
AB60
6A40
5AC0
9360
ENDCHAR
STARTCHAR U_371A
ENCODING 14106
SWIDTH 1000 0
DWIDTH 12 0
BBX 11 11 0 -1
BITMAP 
4100
4FE0
E820
65E0
A480
ADE0
A520
65E0
2520
55E0
8520
ENDCHAR
STARTCHAR U_371B
ENCODING 14107
SWIDTH 1000 0
DWIDTH 12 0
BBX 11 11 0 -1
BITMAP 
4480
5FE0
4440
FF40
5540
5F40
9540
5F40
24A0
5FA0
8520
ENDCHAR
STARTCHAR U_371C
ENCODING 14108
SWIDTH 1000 0
DWIDTH 12 0
BBX 11 11 0 -1
BITMAP 
4480
5EE0
E5A0
6EA0
A8A0
BE40
A840
6E40
2AA0
5AA0
9520
ENDCHAR
STARTCHAR U_371D
ENCODING 14109
SWIDTH 1000 0
DWIDTH 12 0
BBX 11 11 0 -1
BITMAP 
4100
4280
5D60
F7C0
5080
5FE0
9280
6FE0
2AA0
5D60
8FE0
ENDCHAR
STARTCHAR U_371E
ENCODING 14110
SWIDTH 1000 0
DWIDTH 12 0
BBX 11 11 0 -1
BITMAP 
2040
FB80
2200
FBE0
AA80
FA80
AC80
FFE0
2900
1E00
7180
ENDCHAR
STARTCHAR U_371F
ENCODING 14111
SWIDTH 1000 0
DWIDTH 12 0
BBX 11 11 0 -1
BITMAP 
4D00
4500
FFE0
5540
5D40
5540
9C80
5480
3D40
5540
8620
ENDCHAR
STARTCHAR U_3720
ENCODING 14112
SWIDTH 1000 0
DWIDTH 12 0
BBX 11 11 0 -1
BITMAP 
4100
4920
FFE0
5480
57E0
5C80
97E0
6480
27E0
5480
87E0
ENDCHAR
STARTCHAR U_3721
ENCODING 14113
SWIDTH 1000 0
DWIDTH 12 0
BBX 11 11 0 -1
BITMAP 
4540
4940
F6A0
A800
B880
A880
AAE0
4A80
6B80
5A80
8C60
ENDCHAR
STARTCHAR U_3722
ENCODING 14114
SWIDTH 1000 0
DWIDTH 12 0
BBX 11 11 0 -1
BITMAP 
4100
47C0
F540
6FE0
A540
A7C0
A540
6FE0
2240
5180
8E40
ENDCHAR
STARTCHAR U_3723
ENCODING 14115
SWIDTH 1000 0
DWIDTH 12 0
BBX 11 11 0 -1
BITMAP 
4880
4EC0
F2A0
ABE0
B480
AC80
A940
5220
6000
5540
92A0
ENDCHAR
STARTCHAR U_3724
ENCODING 14116
SWIDTH 1000 0
DWIDTH 12 0
BBX 11 11 0 -1
BITMAP 
4FE0
4280
EFE0
AAA0
AFE0
A440
A7C0
6540
2FE0
5100
8100
ENDCHAR
STARTCHAR U_3725
ENCODING 14117
SWIDTH 1000 0
DWIDTH 12 0
BBX 11 11 0 -1
BITMAP 
4FE0
4AA0
FFE0
5440
57C0
5440
97C0
6440
27C0
5440
8820
ENDCHAR
STARTCHAR U_3726
ENCODING 14118
SWIDTH 1000 0
DWIDTH 12 0
BBX 11 11 0 -1
BITMAP 
47C0
4040
EFE0
6040
AFE0
A4A0
AEE0
6080
5FE0
4480
8180
ENDCHAR
STARTCHAR U_3727
ENCODING 14119
SWIDTH 1000 0
DWIDTH 12 0
BBX 11 11 0 -1
BITMAP 
4FE0
4D40
FA60
6FC0
AA40
AAC0
AFC0
6A40
2A40
5AA0
9520
ENDCHAR
STARTCHAR U_3728
ENCODING 14120
SWIDTH 1000 0
DWIDTH 12 0
BBX 11 11 0 -1
BITMAP 
4FE0
4820
EFE0
6AA0
A9C0
AEA0
AA80
4FE0
6880
5FE0
9080
ENDCHAR
STARTCHAR U_3729
ENCODING 14121
SWIDTH 1000 0
DWIDTH 12 0
BBX 11 11 0 -1
BITMAP 
4200
4FE0
EB60
6DA0
AB20
AFE0
ABA0
6540
2FE0
5300
8CE0
ENDCHAR
STARTCHAR U_372A
ENCODING 14122
SWIDTH 1000 0
DWIDTH 12 0
BBX 11 11 0 -1
BITMAP 
2060
FD80
4900
FDE0
1140
FE40
5440
FFE0
0900
1200
7F80
ENDCHAR
STARTCHAR U_372B
ENCODING 14123
SWIDTH 1000 0
DWIDTH 12 0
BBX 11 11 0 -1
BITMAP 
4A40
5A80
EFE0
B8A0
AFA0
B040
D540
5540
7540
95A0
98A0
ENDCHAR
STARTCHAR U_372C
ENCODING 14124
SWIDTH 1000 0
DWIDTH 12 0
BBX 11 11 0 -1
BITMAP 
43C0
4480
EFE0
AAA0
AFE0
A800
ABE0
6800
2BE0
5A20
93E0
ENDCHAR
STARTCHAR U_372D
ENCODING 14125
SWIDTH 1000 0
DWIDTH 12 0
BBX 11 11 0 -1
BITMAP 
4920
4540
FFE0
B020
A7C0
A440
AFE0
6920
2FE0
5920
8FE0
ENDCHAR
STARTCHAR U_372E
ENCODING 14126
SWIDTH 1000 0
DWIDTH 12 0
BBX 11 11 0 -1
BITMAP 
4F40
4A40
FFE0
6900
AF00
AAE0
AF00
6000
3FE0
4AA0
9FE0
ENDCHAR
STARTCHAR U_372F
ENCODING 14127
SWIDTH 1000 0
DWIDTH 12 0
BBX 11 11 0 -1
BITMAP 
4FE0
4AA0
EFA0
68E0
AF80
AA80
AAA0
4FE0
6000
5D40
92A0
ENDCHAR
STARTCHAR U_3730
ENCODING 14128
SWIDTH 1000 0
DWIDTH 12 0
BBX 11 11 0 -1
BITMAP 
4520
4BC0
FEE0
67A0
AAC0
BFE0
A100
7FE0
2380
5540
9920
ENDCHAR
STARTCHAR U_3731
ENCODING 14129
SWIDTH 1000 0
DWIDTH 12 0
BBX 11 11 0 -1
BITMAP 
4EE0
4880
EFE0
6AA0
B7E0
A440
A7C0
6440
27C0
5440
8820
ENDCHAR
STARTCHAR U_3732
ENCODING 14130
SWIDTH 1000 0
DWIDTH 12 0
BBX 11 11 0 -1
BITMAP 
4100
4FE0
5400
F7C0
5440
5FE0
AAA0
6FA0
2AE0
5FA0
92A0
ENDCHAR
STARTCHAR U_3733
ENCODING 14131
SWIDTH 1000 0
DWIDTH 12 0
BBX 11 11 0 -1
BITMAP 
4100
5FE0
EAA0
6FE0
A920
A7C0
A920
6240
2D80
5480
8E60
ENDCHAR
STARTCHAR U_3734
ENCODING 14132
SWIDTH 1000 0
DWIDTH 12 0
BBX 11 11 0 -1
BITMAP 
4280
4EE0
E280
6FE0
AAA0
AFE0
A820
67C0
2540
56C0
87C0
ENDCHAR
STARTCHAR U_3735
ENCODING 14133
SWIDTH 1000 0
DWIDTH 12 0
BBX 11 11 0 -1
BITMAP 
4100
5FE0
E480
67C0
A480
A7C0
A480
77E0
2AA0
5DC0
8660
ENDCHAR
STARTCHAR U_3736
ENCODING 14134
SWIDTH 1000 0
DWIDTH 12 0
BBX 11 11 0 -1
BITMAP 
4380
45E0
EC20
77E0
A5A0
A6E0
A500
6FE0
3520
57C0
8CE0
ENDCHAR
STARTCHAR U_3737
ENCODING 14135
SWIDTH 1000 0
DWIDTH 12 0
BBX 11 11 0 -1
BITMAP 
E7C0
2540
EFE0
8B60
EDA0
2B60
6DA0
0880
FFE0
1100
7FC0
ENDCHAR
STARTCHAR U_3738
ENCODING 14136
SWIDTH 1000 0
DWIDTH 12 0
BBX 11 11 0 -1
BITMAP 
2080
FBE0
4080
FBE0
8940
F3E0
8880
FFE0
1080
1F00
E0C0
ENDCHAR
STARTCHAR U_3739
ENCODING 14137
SWIDTH 1000 0
DWIDTH 12 0
BBX 11 11 0 -1
BITMAP 
4EE0
4AA0
EEE0
6AA0
AEE0
A480
AFE0
7480
27E0
5480
87E0
ENDCHAR
STARTCHAR U_373A
ENCODING 14138
SWIDTH 1000 0
DWIDTH 12 0
BBX 11 11 0 -1
BITMAP 
5540
5FE0
4440
FFE0
6CC0
B7E0
A440
67C0
2440
57C0
8820
ENDCHAR
STARTCHAR U_373B
ENCODING 14139
SWIDTH 1000 0
DWIDTH 12 0
BBX 11 11 0 -1
BITMAP 
4920
53C0
ECA0
6BC0
BC40
ABE0
B6A0
6BC0
2540
54A0
8BE0
ENDCHAR
STARTCHAR U_373C
ENCODING 14140
SWIDTH 1000 0
DWIDTH 12 0
BBX 11 11 0 -1
BITMAP 
47C0
4540
E7C0
A540
AFE0
AAA0
AFE0
6AA0
2380
5280
8FE0
ENDCHAR
STARTCHAR U_373D
ENCODING 14141
SWIDTH 1000 0
DWIDTH 12 0
BBX 11 11 0 -1
BITMAP 
2240
4480
2240
3F80
0200
0440
FFE0
0400
0400
1C00
0400
ENDCHAR
STARTCHAR U_373E
ENCODING 14142
SWIDTH 1000 0
DWIDTH 12 0
BBX 11 11 0 -1
BITMAP
F200
1300
2480
2840
34A0
6480
A480
2480
2480
A480
4880
ENDCHAR
STARTCHAR U_373F
ENCODING 14143
SWIDTH 1000 0
DWIDTH 12 0
BBX 11 11 0 -1
BITMAP 
F7C0
2080
4300
4100
6FE0
C140
4100
4100
4100
C500
4300
ENDCHAR
STARTCHAR U_3740
ENCODING 14144
SWIDTH 1000 0
DWIDTH 12 0
BBX 11 11 0 -1
BITMAP 
7BE0
6840
5880
4880
FFE0
6880
5880
4880
FC80
0980
1880
ENDCHAR
STARTCHAR U_3741
ENCODING 14145
SWIDTH 1000 0
DWIDTH 12 0
BBX 11 11 0 -1
BITMAP 
3FE0
5120
9F20
1120
1F20
00C0
3F00
0240
FFE0
0200
0E00
ENDCHAR
STARTCHAR U_3742
ENCODING 14146
SWIDTH 1000 0
DWIDTH 12 0
BBX 11 11 0 -1
BITMAP 
F460
2580
5F00
45E0
7540
C740
4D40
5540
4540
4540
CA40
ENDCHAR
STARTCHAR U_3743
ENCODING 14147
SWIDTH 1000 0
DWIDTH 12 0
BBX 11 11 0 -1
BITMAP 
F200
23C0
2480
2FE0
3520
E520
27E0
2180
2280
A2A0
6CE0
ENDCHAR
STARTCHAR U_3744
ENCODING 14148
SWIDTH 1000 0
DWIDTH 12 0
BBX 11 11 0 -1
BITMAP 
2080
FC80
4BE0
7880
02A0
FAA0
13E0
38A0
E080
20A0
60E0
ENDCHAR
STARTCHAR U_3745
ENCODING 14149
SWIDTH 1000 0
DWIDTH 12 0
BBX 11 11 0 -1
BITMAP 
23C0
FA40
2240
FA20
8C00
73C0
0040
7280
3900
E280
2460
ENDCHAR
STARTCHAR U_3746
ENCODING 14150
SWIDTH 1000 0
DWIDTH 12 0
BBX 11 11 0 -1
BITMAP 
1100
FFE0
2100
27C0
3440
E7C0
2440
2280
2FE0
A440
67C0
ENDCHAR
STARTCHAR U_3747
ENCODING 14151
SWIDTH 1000 0
DWIDTH 12 0
BBX 11 11 0 -1
BITMAP 
2080
FBE0
0000
7BC0
4A40
7BC0
0000
7BC0
1880
F3E0
3180
ENDCHAR
STARTCHAR U_3748
ENCODING 14152
SWIDTH 1000 0
DWIDTH 12 0
BBX 11 11 0 -1
BITMAP 
2440
5EA0
E1C0
5EA0
F1E0
4E80
FBE0
2E40
FBE0
2040
60C0
ENDCHAR
STARTCHAR U_3749
ENCODING 14153
SWIDTH 1000 0
DWIDTH 12 0
BBX 11 11 0 -1
BITMAP 
0000
0800
0400
FFE0
8020
8020
0000
0000
7FC0
0000
0000
ENDCHAR
STARTCHAR U_374A
ENCODING 14154
SWIDTH 1000 0
DWIDTH 12 0
BBX 11 11 0 -1
BITMAP 
0400
7FE0
8040
3F80
1100
1100
0A00
0400
0A00
3180
C060
ENDCHAR
STARTCHAR U_374B
ENCODING 14155
SWIDTH 1000 0
DWIDTH 12 0
BBX 11 11 0 -1
BITMAP 
0800
7FE0
4040
BF00
0200
0400
0400
0400
0400
0400
1C00
ENDCHAR
STARTCHAR U_374C
ENCODING 14156
SWIDTH 1000 0
DWIDTH 12 0
BBX 11 11 0 -1
BITMAP 
0400
7FE0
4020
8840
0F80
1100
2200
0600
0900
3080
C060
ENDCHAR
STARTCHAR U_374D
ENCODING 14157
SWIDTH 1000 0
DWIDTH 12 0
BBX 11 11 0 -1
BITMAP 
0400
FFE0
9040
1F00
1000
3F80
0080
FFE0
0080
0680
0100
ENDCHAR
STARTCHAR U_374E
ENCODING 14158
SWIDTH 1000 0
DWIDTH 12 0
BBX 11 11 0 -1
BITMAP 
0400
4220
7FE0
8840
0400
3F80
0100
0600
1800
6C00
03E0
ENDCHAR
STARTCHAR U_374F
ENCODING 14159
SWIDTH 1000 0
DWIDTH 12 0
BBX 11 11 0 -1
BITMAP 
4440
7FE0
4040
8480
0A00
1100
2980
C960
0900
1100
2100
ENDCHAR
STARTCHAR U_3750
ENCODING 14160
SWIDTH 1000 0
DWIDTH 12 0
BBX 11 11 0 -1
BITMAP 
0400
7FE0
4020
8A40
1100
2480
C460
0800
1080
27C0
7840
ENDCHAR
STARTCHAR U_3751
ENCODING 14161
SWIDTH 1000 0
DWIDTH 12 0
BBX 11 11 0 -1
BITMAP 
0400
7FE0
8820
0400
FFE0
0800
0FC0
0840
1040
2040
C180
ENDCHAR
STARTCHAR U_3752
ENCODING 14162
SWIDTH 1000 0
DWIDTH 12 0
BBX 11 11 0 -1
BITMAP 
0400
7FE0
8020
0400
7FC0
0400
0400
3F80
2080
2080
3F80
ENDCHAR
STARTCHAR U_3753
ENCODING 14163
SWIDTH 1000 0
DWIDTH 12 0
BBX 11 11 0 -1
BITMAP 
0400
FFE0
8020
0E00
3180
C060
3F80
0000
3F80
2080
3F80
ENDCHAR
STARTCHAR U_3754
ENCODING 14164
SWIDTH 1000 0
DWIDTH 12 0
BBX 11 11 0 -1
BITMAP 
0800
0400
FFC0
8840
0400
FFC0
1200
6180
1E00
0C00
F3C0
ENDCHAR
STARTCHAR U_3755
ENCODING 14165
SWIDTH 1000 0
DWIDTH 12 0
BBX 11 11 0 -1
BITMAP 
0800
FFC0
9040
0800
6280
9E40
0000
7F80
2100
1E00
E1C0
ENDCHAR
STARTCHAR U_3756
ENCODING 14166
SWIDTH 1000 0
DWIDTH 12 0
BBX 11 11 0 -1
BITMAP 
0400
FFE0
8420
0F80
3900
0600
7C00
0780
3880
0500
7E00
ENDCHAR
STARTCHAR U_3757
ENCODING 14167
SWIDTH 1000 0
DWIDTH 12 0
BBX 11 11 0 -1
BITMAP 
0400
FFE0
8420
3F80
2080
3F80
2080
3F80
2480
2700
38C0
ENDCHAR
STARTCHAR U_3758
ENCODING 14168
SWIDTH 1000 0
DWIDTH 12 0
BBX 11 11 0 -1
BITMAP 
0400
FFE0
8020
0400
FFE0
0000
3F80
0000
3F80
2080
3F80
ENDCHAR
STARTCHAR U_3759
ENCODING 14169
SWIDTH 1000 0
DWIDTH 12 0
BBX 11 11 0 -1
BITMAP 
0400
7FE0
8040
3FC0
0400
3F80
0400
7FC0
0000
FFE0
2080
ENDCHAR
STARTCHAR U_375A
ENCODING 14170
SWIDTH 1000 0
DWIDTH 12 0
BBX 11 11 0 -1
BITMAP 
0400
7FE0
8040
7080
1700
2500
35C0
5500
2FE0
5000
8FE0
ENDCHAR
STARTCHAR U_375B
ENCODING 14171
SWIDTH 1000 0
DWIDTH 12 0
BBX 11 11 0 -1
BITMAP 
0400
7FE0
9040
2FC0
4200
9FC0
5240
5540
58C0
5040
5FC0
ENDCHAR
STARTCHAR U_375C
ENCODING 14172
SWIDTH 1000 0
DWIDTH 12 0
BBX 11 11 0 -1
BITMAP 
0400
7FE0
A140
7FC0
2100
FFE0
0000
7FC0
4640
5840
7FC0
ENDCHAR
STARTCHAR U_375D
ENCODING 14173
SWIDTH 1000 0
DWIDTH 12 0
BBX 11 11 0 -1
BITMAP 
0400
FFE0
8020
2080
FBE0
2080
71C0
AAC0
24A0
2080
2080
ENDCHAR
STARTCHAR U_375E
ENCODING 14174
SWIDTH 1000 0
DWIDTH 12 0
BBX 11 11 0 -1
BITMAP 
0400
FFE0
8020
7FC0
0A00
7BC0
4040
4040
7BC0
0A00
FFE0
ENDCHAR
STARTCHAR U_375F
ENCODING 14175
SWIDTH 1000 0
DWIDTH 12 0
BBX 11 11 0 -1
BITMAP 
0400
FFE0
BFA0
0000
3F80
2080
3F80
2080
3F80
0A20
F3E0
ENDCHAR
STARTCHAR U_3760
ENCODING 14176
SWIDTH 1000 0
DWIDTH 12 0
BBX 11 11 0 -1
BITMAP 
0400
FFE0
8020
3F80
2080
3F80
2080
3F80
0400
7FC0
1100
ENDCHAR
STARTCHAR U_3761
ENCODING 14177
SWIDTH 1000 0
DWIDTH 12 0
BBX 11 11 0 -1
BITMAP 
0400
FFE0
8020
7E00
25E0
3D20
2520
3D40
2480
7D40
0620
ENDCHAR
STARTCHAR U_3762
ENCODING 14178
SWIDTH 1000 0
DWIDTH 12 0
BBX 11 11 0 -1
BITMAP 
0400
FFE0
80A0
3F80
0400
3F80
2480
3F80
4540
4F40
4040
ENDCHAR
STARTCHAR U_3763
ENCODING 14179
SWIDTH 1000 0
DWIDTH 12 0
BBX 11 11 0 -1
BITMAP
0400
FFE0
A020
7BC0
2140
FA40
24C0
0400
FFE0
1100
E0E0
ENDCHAR
STARTCHAR U_3764
ENCODING 14180
SWIDTH 1000 0
DWIDTH 12 0
BBX 11 11 0 -1
BITMAP 
0400
7FE0
5120
FFE0
1100
7FC0
2480
3F80
2480
FFE0
2080
ENDCHAR
STARTCHAR U_3765
ENCODING 14181
SWIDTH 1000 0
DWIDTH 12 0
BBX 11 11 0 -1
BITMAP 
0400
7FE0
8020
5920
5540
7FE0
1100
F380
5540
5920
9100
ENDCHAR
STARTCHAR U_3766
ENCODING 14182
SWIDTH 1000 0
DWIDTH 12 0
BBX 11 11 0 -1
BITMAP 
0400
7FE0
9220
1FC0
7200
1F80
1200
7FE0
0980
1040
60C0
ENDCHAR
STARTCHAR U_3767
ENCODING 14183
SWIDTH 1000 0
DWIDTH 12 0
BBX 11 11 0 -1
BITMAP 
0400
FFE0
9120
7FC0
1100
0E00
3580
5540
7FC0
0400
FFE0
ENDCHAR
STARTCHAR U_3768
ENCODING 14184
SWIDTH 1000 0
DWIDTH 12 0
BBX 11 11 0 -1
BITMAP 
0400
FFE0
8420
3F80
0400
FFE0
2080
3F80
2240
E980
30E0
ENDCHAR
STARTCHAR U_3769
ENCODING 14185
SWIDTH 1000 0
DWIDTH 12 0
BBX 11 11 0 -1
BITMAP 
0400
FFE0
8820
7FC0
4480
7FE0
4480
7F80
5480
4D00
B4C0
ENDCHAR
STARTCHAR U_376A
ENCODING 14186
SWIDTH 1000 0
DWIDTH 12 0
BBX 11 11 0 -1
BITMAP 
0400
FFE0
A120
7900
27C0
F940
5340
F9C0
2140
FA60
2C20
ENDCHAR
STARTCHAR U_376B
ENCODING 14187
SWIDTH 1000 0
DWIDTH 12 0
BBX 11 11 0 -1
BITMAP 
0400
FFE0
8420
77C0
5A40
7580
57E0
5900
67C0
4100
4FE0
ENDCHAR
STARTCHAR U_376C
ENCODING 14188
SWIDTH 1000 0
DWIDTH 12 0
BBX 11 11 0 -1
BITMAP 
2080
FC80
A5E0
7880
2080
7BE0
2080
FC80
4940
4A40
7C20
ENDCHAR
STARTCHAR U_376D
ENCODING 14189
SWIDTH 1000 0
DWIDTH 12 0
BBX 11 11 0 -1
BITMAP 
0400
FFE0
8020
27C0
24C0
B540
A7C0
B900
27C0
2100
3FE0
ENDCHAR
STARTCHAR U_376E
ENCODING 14190
SWIDTH 1000 0
DWIDTH 12 0
BBX 11 11 0 -1
BITMAP 
0400
FFE0
8020
A800
FFC0
AA40
FA40
0180
F980
7240
AC20
ENDCHAR
STARTCHAR U_376F
ENCODING 14191
SWIDTH 1000 0
DWIDTH 12 0
BBX 11 11 0 -1
BITMAP 
0400
FFE0
8020
3F80
0400
FFE0
5140
BFA0
2A80
2E80
2180
ENDCHAR
STARTCHAR U_3770
ENCODING 14192
SWIDTH 1000 0
DWIDTH 12 0
BBX 11 11 0 -1
BITMAP 
0400
FFE0
8820
3F80
2480
FFE0
A4A0
5F40
0400
0F80
3180
ENDCHAR
STARTCHAR U_3771
ENCODING 14193
SWIDTH 1000 0
DWIDTH 12 0
BBX 11 11 0 -1
BITMAP 
0400
FFE0
82A0
5FC0
5280
7FE0
1AA0
7FE0
5340
5080
9F00
ENDCHAR
STARTCHAR U_3772
ENCODING 14194
SWIDTH 1000 0
DWIDTH 12 0
BBX 11 11 0 -1
BITMAP 
0400
FFE0
82A0
57C0
5540
77E0
19A0
F280
5FE0
9540
1100
ENDCHAR
STARTCHAR U_3773
ENCODING 14195
SWIDTH 1000 0
DWIDTH 12 0
BBX 11 11 0 -1
BITMAP 
0400
0400
FFE0
0400
0400
2540
24A0
44A0
8400
1400
0800
ENDCHAR
STARTCHAR U_3774
ENCODING 14196
SWIDTH 1000 0
DWIDTH 12 0
BBX 11 11 0 -1
BITMAP 
0040
7040
07E0
0040
FA40
5140
5040
5140
5080
9020
8FE0
ENDCHAR
STARTCHAR U_3775
ENCODING 14197
SWIDTH 1000 0
DWIDTH 12 0
BBX 11 11 0 -1
BITMAP 
3F80
2480
2880
3F80
0000
3F80
0100
FFE0
2100
1100
0300
ENDCHAR
STARTCHAR U_3776
ENCODING 14198
SWIDTH 1000 0
DWIDTH 12 0
BBX 11 11 0 -1
BITMAP 
7FC0
4940
7FC0
0A20
1220
E1E0
0100
FFE0
2100
1100
0300
ENDCHAR
STARTCHAR U_3777
ENCODING 14199
SWIDTH 1000 0
DWIDTH 12 0
BBX 11 11 0 -1
BITMAP 
3F80
0080
3F80
0080
7FC0
2540
FA60
0520
FFE0
2100
1300
ENDCHAR
STARTCHAR U_3778
ENCODING 14200
SWIDTH 1000 0
DWIDTH 12 0
BBX 11 11 0 -1
BITMAP 
0400
2580
D460
3F80
2080
3F80
2080
3F80
1220
2220
C1E0
ENDCHAR
STARTCHAR U_3779
ENCODING 14201
SWIDTH 1000 0
DWIDTH 12 0
BBX 11 11 0 -1
BITMAP
0400
2480
C740
0E20
F200
1F80
6480
3F80
0B00
12A0
E1E0
ENDCHAR
STARTCHAR U_377A
ENCODING 14202
SWIDTH 1000 0
DWIDTH 12 0
BBX 11 11 0 -1
BITMAP 
5080
FC80
5080
FDC0
55A0
FEA0
54A0
FCC0
5880
D500
5600
ENDCHAR
STARTCHAR U_377B
ENCODING 14203
SWIDTH 1000 0
DWIDTH 12 0
BBX 11 11 0 -1
BITMAP 
5080
FC80
5080
F9C0
AAA0
FCA0
2080
F8C0
2080
3900
E600
ENDCHAR
STARTCHAR U_377C
ENCODING 14204
SWIDTH 1000 0
DWIDTH 12 0
BBX 11 11 0 -1
BITMAP 
4000
43C0
F880
5080
57E0
5080
5080
5280
5100
9020
8FE0
ENDCHAR
STARTCHAR U_377D
ENCODING 14205
SWIDTH 1000 0
DWIDTH 12 0
BBX 11 11 0 -1
BITMAP 
4080
4080
F880
57A0
51C0
52C0
5CA0
5080
5180
9020
8FE0
ENDCHAR
STARTCHAR U_377E
ENCODING 14206
SWIDTH 1000 0
DWIDTH 12 0
BBX 11 11 0 -1
BITMAP 
4100
4100
FBE0
5100
51E0
5240
5240
55E0
5000
9020
8FE0
ENDCHAR
STARTCHAR U_377F
ENCODING 14207
SWIDTH 1000 0
DWIDTH 12 0
BBX 11 11 0 -1
BITMAP 
4100
47C0
FD40
5500
57C0
5640
5580
5A80
5460
9020
8FE0
ENDCHAR
STARTCHAR U_3780
ENCODING 14208
SWIDTH 1000 0
DWIDTH 12 0
BBX 11 11 0 -1
BITMAP 
4200
4200
4FE0
FA80
52A0
55C0
5480
5940
5620
9020
8FE0
ENDCHAR
STARTCHAR U_3781
ENCODING 14209
SWIDTH 1000 0
DWIDTH 12 0
BBX 11 11 0 -1
BITMAP 
47C0
4440
47C0
FC40
57C0
5400
57C0
5440
53C0
9020
8FE0
ENDCHAR
STARTCHAR U_3782
ENCODING 14210
SWIDTH 1000 0
DWIDTH 12 0
BBX 11 11 0 -1
BITMAP 
41C0
4640
FD40
5280
57E0
5240
5240
5180
5660
9020
8FE0
ENDCHAR
STARTCHAR U_3783
ENCODING 14211
SWIDTH 1000 0
DWIDTH 12 0
BBX 11 11 0 -1
BITMAP 
5140
4920
8500
27E0
3140
4940
8540
7940
4A40
4A40
7C60
ENDCHAR
STARTCHAR U_3784
ENCODING 14212
SWIDTH 1000 0
DWIDTH 12 0
BBX 11 11 0 -1
BITMAP 
4100
4FE0
4540
FFE0
5540
57C0
5540
57C0
5100
90E0
8FC0
ENDCHAR
STARTCHAR U_3785
ENCODING 14213
SWIDTH 1000 0
DWIDTH 12 0
BBX 11 11 0 -1
BITMAP 
47C0
4540
FFC0
5540
57C0
5100
5FE0
5540
5920
9020
8FE0
ENDCHAR
STARTCHAR U_3786
ENCODING 14214
SWIDTH 1000 0
DWIDTH 12 0
BBX 11 11 0 -1
BITMAP 
4100
47E0
4280
FC40
57E0
5040
5740
5540
5740
90A0
8FE0
ENDCHAR
STARTCHAR U_3787
ENCODING 14215
SWIDTH 1000 0
DWIDTH 12 0
BBX 11 11 0 -1
BITMAP 
47C0
4540
FFC0
5540
5FE0
5540
5580
5480
5660
9020
8FE0
ENDCHAR
STARTCHAR U_3788
ENCODING 14216
SWIDTH 1000 0
DWIDTH 12 0
BBX 11 11 0 -1
BITMAP 
4100
47E0
FC20
57E0
5400
57E0
5AA0
5FE0
52A0
9020
8FE0
ENDCHAR
STARTCHAR U_3789
ENCODING 14217
SWIDTH 1000 0
DWIDTH 12 0
BBX 11 11 0 -1
BITMAP 
4240
47E0
F900
53C0
5100
57E0
5280
5480
5BE0
9020
8FE0
ENDCHAR
STARTCHAR U_378A
ENCODING 14218
SWIDTH 1000 0
DWIDTH 12 0
BBX 11 11 0 -1
BITMAP 
A900
F900
AFE0
F940
0140
7140
0140
F940
7240
AA40
2460
ENDCHAR
STARTCHAR U_378B
ENCODING 14219
SWIDTH 1000 0
DWIDTH 12 0
BBX 11 11 0 -1
BITMAP 
7FC0
4040
7FC0
4000
7FC0
5040
4880
4500
4200
8D80
F060
ENDCHAR
STARTCHAR U_378C
ENCODING 14220
SWIDTH 1000 0
DWIDTH 12 0
BBX 11 11 0 -1
BITMAP 
7FC0
4040
7FC0
4000
4F80
4100
7FE0
4200
4200
8200
8600
ENDCHAR
STARTCHAR U_378D
ENCODING 14221
SWIDTH 1000 0
DWIDTH 12 0
BBX 11 11 0 -1
BITMAP 
7FC0
4040
7FC0
4400
4400
5F80
4480
4C80
4480
8AA0
B060
ENDCHAR
STARTCHAR U_378E
ENCODING 14222
SWIDTH 1000 0
DWIDTH 12 0
BBX 11 11 0 -1
BITMAP 
7FC0
4040
7FC0
4000
5FC0
5240
5FC0
5000
5020
9020
8FE0
ENDCHAR
STARTCHAR U_378F
ENCODING 14223
SWIDTH 1000 0
DWIDTH 12 0
BBX 11 11 0 -1
BITMAP 
7FC0
4040
7FC0
4000
5FC0
4200
5F80
4080
4300
8C00
B3E0
ENDCHAR
STARTCHAR U_3790
ENCODING 14224
SWIDTH 1000 0
DWIDTH 12 0
BBX 11 11 0 -1
BITMAP 
7FC0
4040
7FC0
4800
4400
7FC0
4000
5080
4880
4900
BFE0
ENDCHAR
STARTCHAR U_3791
ENCODING 14225
SWIDTH 1000 0
DWIDTH 12 0
BBX 11 11 0 -1
BITMAP 
7FE0
4020
7FE0
4000
4200
5AE0
4200
5AE0
4200
8220
81E0
ENDCHAR
STARTCHAR U_3792
ENCODING 14226
SWIDTH 1000 0
DWIDTH 12 0
BBX 11 11 0 -1
BITMAP 
7FE0
4020
7FE0
4400
5FC0
5040
5FC0
5040
5FC0
9040
9FC0
ENDCHAR
STARTCHAR U_3793
ENCODING 14227
SWIDTH 1000 0
DWIDTH 12 0
BBX 11 11 0 -1
BITMAP 
7FE0
4020
7FE0
5000
5FC0
5020
4FE0
5040
5FC0
9040
9FC0
ENDCHAR
STARTCHAR U_3794
ENCODING 14228
SWIDTH 1000 0
DWIDTH 12 0
BBX 11 11 0 -1
BITMAP 
7FC0
4040
7FC0
4400
4F80
5500
46E0
5B20
4540
8180
9E00
ENDCHAR
STARTCHAR U_3795
ENCODING 14229
SWIDTH 1000 0
DWIDTH 12 0
BBX 11 11 0 -1
BITMAP 
7FC0
4040
7FC0
4880
5FC0
68A0
4F80
4880
4F80
8880
8980
ENDCHAR
STARTCHAR U_3796
ENCODING 14230
SWIDTH 1000 0
DWIDTH 12 0
BBX 11 11 0 -1
BITMAP 
7FC0
4040
7FC0
4200
7FE0
4200
5FC0
5240
57C0
8A80
B260
ENDCHAR
STARTCHAR U_3797
ENCODING 14231
SWIDTH 1000 0
DWIDTH 12 0
BBX 11 11 0 -1
BITMAP 
7FC0
4040
7FC0
4280
4240
7FE0
5220
4B40
4A80
B260
8600
ENDCHAR
STARTCHAR U_3798
ENCODING 14232
SWIDTH 1000 0
DWIDTH 12 0
BBX 11 11 0 -1
BITMAP 
7FC0
4040
7FC0
4000
5FE0
4600
5B20
4DC0
5B40
8520
9A00
ENDCHAR
STARTCHAR U_3799
ENCODING 14233
SWIDTH 1000 0
DWIDTH 12 0
BBX 11 11 0 -1
BITMAP 
7FC0
4040
7FC0
4200
4F80
4200
5FC0
4220
5BE0
8A80
B640
ENDCHAR
STARTCHAR U_379A
ENCODING 14234
SWIDTH 1000 0
DWIDTH 12 0
BBX 11 11 0 -1
BITMAP 
7FC0
4040
7FC0
4000
4F80
4200
7FE0
5240
5AC0
5240
9FC0
ENDCHAR
STARTCHAR U_379B
ENCODING 14235
SWIDTH 1000 0
DWIDTH 12 0
BBX 11 11 0 -1
BITMAP 
7FC0
4040
7FC0
4A00
73C0
4A20
71E0
5240
53C0
5240
93C0
ENDCHAR
STARTCHAR U_379C
ENCODING 14236
SWIDTH 1000 0
DWIDTH 12 0
BBX 11 11 0 -1
BITMAP 
7FC0
4040
7FC0
4B80
5100
6FE0
5540
7FE0
5240
9180
9660
ENDCHAR
STARTCHAR U_379D
ENCODING 14237
SWIDTH 1000 0
DWIDTH 12 0
BBX 11 11 0 -1
BITMAP 
0140
7FE0
4D00
48A0
7E40
AAA0
BFC0
2040
3FC0
2000
4000
ENDCHAR
STARTCHAR U_379E
ENCODING 14238
SWIDTH 1000 0
DWIDTH 12 0
BBX 11 11 0 -1
BITMAP 
7FC0
4040
7FC0
4A80
72C0
4D20
7100
55C0
5500
9700
98E0
ENDCHAR
STARTCHAR U_379F
ENCODING 14239
SWIDTH 1000 0
DWIDTH 12 0
BBX 11 11 0 -1
BITMAP 
7FC0
4040
7FC0
4880
7FE0
4500
5FC0
5540
7FE0
4880
B060
ENDCHAR
STARTCHAR U_37A0
ENCODING 14240
SWIDTH 1000 0
DWIDTH 12 0
BBX 11 11 0 -1
BITMAP 
7FE0
4020
7FE0
4200
7FE0
54A0
4FC0
7960
4FC0
8A80
B260
ENDCHAR
STARTCHAR U_37A1
ENCODING 14241
SWIDTH 1000 0
DWIDTH 12 0
BBX 11 11 0 -1
BITMAP 
7FE0
4020
7FE0
4880
7DE0
4880
7DE0
4A20
5D40
A880
8C60
ENDCHAR
STARTCHAR U_37A2
ENCODING 14242
SWIDTH 1000 0
DWIDTH 12 0
BBX 11 11 0 -1
BITMAP 
0400
0400
4440
4440
4440
4440
7FC0
0400
0400
0440
FFE0
ENDCHAR
STARTCHAR U_37A3
ENCODING 14243
SWIDTH 1000 0
DWIDTH 12 0
BBX 11 11 0 -1
BITMAP 
0400
4440
7FC0
1800
E000
1900
60C0
9FA0
0880
3080
C300
ENDCHAR
STARTCHAR U_37A4
ENCODING 14244
SWIDTH 1000 0
DWIDTH 12 0
BBX 11 11 0 -1
BITMAP 
0400
4440
4440
7FC0
0000
0400
0400
0A00
1100
2080
C060
ENDCHAR
STARTCHAR U_37A5
ENCODING 14245
SWIDTH 1000 0
DWIDTH 12 0
BBX 11 11 0 -1
BITMAP 
0400
4440
4440
7FC0
0000
0800
0400
0A00
1200
2180
C060
ENDCHAR
STARTCHAR U_37A6
ENCODING 14246
SWIDTH 1000 0
DWIDTH 12 0
BBX 11 11 0 -1
BITMAP 
2380
2280
2280
AA80
AA80
AA80
AA80
BAA0
EAA0
04A0
1860
ENDCHAR
STARTCHAR U_37A7
ENCODING 14247
SWIDTH 1000 0
DWIDTH 12 0
BBX 11 11 0 -1
BITMAP 
0400
4440
4440
7FC0
0000
7FC0
0880
11E0
1020
2020
C0C0
ENDCHAR
STARTCHAR U_37A8
ENCODING 14248
SWIDTH 1000 0
DWIDTH 12 0
BBX 11 11 0 -1
BITMAP 
27C0
2040
2080
A900
A900
AFE0
A900
B900
E900
0100
0300
ENDCHAR
STARTCHAR U_37A9
ENCODING 14249
SWIDTH 1000 0
DWIDTH 12 0
BBX 11 11 0 -1
BITMAP 
0400
4440
4440
7FC0
0000
1F00
1100
1D00
1320
2120
C0E0
ENDCHAR
STARTCHAR U_37AA
ENCODING 14250
SWIDTH 1000 0
DWIDTH 12 0
BBX 11 11 0 -1
BITMAP 
3F80
0080
3F80
0080
FFE0
0000
0400
4440
4440
4440
7FC0
ENDCHAR
STARTCHAR U_37AB
ENCODING 14251
SWIDTH 1000 0
DWIDTH 12 0
BBX 11 11 0 -1
BITMAP 
0400
4440
4440
7FC0
0800
0400
7FC0
0300
0C00
7000
9FE0
ENDCHAR
STARTCHAR U_37AC
ENCODING 14252
SWIDTH 1000 0
DWIDTH 12 0
BBX 11 11 0 -1
BITMAP 
0400
4440
4440
4440
7FC0
0000
7FC0
0400
0400
0400
FFE0
ENDCHAR
STARTCHAR U_37AD
ENCODING 14253
SWIDTH 1000 0
DWIDTH 12 0
BBX 11 11 0 -1
BITMAP 
0400
0400
7FC0
1100
2080
C060
0400
4440
4440
4440
7FC0
ENDCHAR
STARTCHAR U_37AE
ENCODING 14254
SWIDTH 1000 0
DWIDTH 12 0
BBX 11 11 0 -1
BITMAP 
0400
4440
4440
7FC0
0800
0800
17C0
2080
CD00
0200
0180
ENDCHAR
STARTCHAR U_37AF
ENCODING 14255
SWIDTH 1000 0
DWIDTH 12 0
BBX 11 11 0 -1
BITMAP 
FFC0
0040
FFC0
8000
8020
7FE0
0000
0400
8420
8420
FFE0
ENDCHAR
STARTCHAR U_37B0
ENCODING 14256
SWIDTH 1000 0
DWIDTH 12 0
BBX 11 11 0 -1
BITMAP 
2100
2100
21E0
AA80
AC80
A880
ABE0
B880
E880
0080
0080
ENDCHAR
STARTCHAR U_37B1
ENCODING 14257
SWIDTH 1000 0
DWIDTH 12 0
BBX 11 11 0 -1
BITMAP 
0400
8420
8420
FFE0
0000
7FC0
4040
7FC0
4040
4040
7FC0
ENDCHAR
STARTCHAR U_37B2
ENCODING 14258
SWIDTH 1000 0
DWIDTH 12 0
BBX 11 11 0 -1
BITMAP 
2080
2080
2080
ABE0
AAA0
AAA0
AAA0
BBE0
E880
0080
0080
ENDCHAR
STARTCHAR U_37B3
ENCODING 14259
SWIDTH 1000 0
DWIDTH 12 0
BBX 11 11 0 -1
BITMAP 
2080
2480
2280
A880
AC80
AA80
A8E0
BF80
E880
0080
0080
ENDCHAR
STARTCHAR U_37B4
ENCODING 14260
SWIDTH 1000 0
DWIDTH 12 0
BBX 11 11 0 -1
BITMAP 
2060
2380
AA80
AA80
ABE0
AA80
AA80
AA80
FAA0
0360
0220
ENDCHAR
STARTCHAR U_37B5
ENCODING 14261
SWIDTH 1000 0
DWIDTH 12 0
BBX 11 11 0 -1
BITMAP 
0400
8420
8420
FFE0
0800
0400
FFE0
1100
0E00
1300
E0E0
ENDCHAR
STARTCHAR U_37B6
ENCODING 14262
SWIDTH 1000 0
DWIDTH 12 0
BBX 11 11 0 -1
BITMAP 
2100
2080
27E0
AA40
AA40
AA80
AA80
B900
E280
0440
0820
ENDCHAR
STARTCHAR U_37B7
ENCODING 14263
SWIDTH 1000 0
DWIDTH 12 0
BBX 11 11 0 -1
BITMAP 
0400
4440
4440
7FC0
1800
6000
7FC0
0400
3F80
0400
FFE0
ENDCHAR
STARTCHAR U_37B8
ENCODING 14264
SWIDTH 1000 0
DWIDTH 12 0
BBX 11 11 0 -1
BITMAP 
0400
4440
4440
7FC0
0000
FFE0
0C00
3700
C4C0
0420
0400
ENDCHAR
STARTCHAR U_37B9
ENCODING 14265
SWIDTH 1000 0
DWIDTH 12 0
BBX 11 11 0 -1
BITMAP 
2FE0
2040
2040
AF40
A940
A940
AF40
B840
E840
0040
00C0
ENDCHAR
STARTCHAR U_37BA
ENCODING 14266
SWIDTH 1000 0
DWIDTH 12 0
BBX 11 11 0 -1
BITMAP 
0400
4440
4440
7FC0
2000
3FC0
4400
FFE0
0A00
3180
C060
ENDCHAR
STARTCHAR U_37BB
ENCODING 14267
SWIDTH 1000 0
DWIDTH 12 0
BBX 11 11 0 -1
BITMAP 
0400
4440
7FC0
0000
3F80
2080
FFE0
1000
3F80
0080
0700
ENDCHAR
STARTCHAR U_37BC
ENCODING 14268
SWIDTH 1000 0
DWIDTH 12 0
BBX 11 11 0 -1
BITMAP 
7FC0
0200
0420
F640
0D80
3480
C460
0C00
4440
4440
7FC0
ENDCHAR
STARTCHAR U_37BD
ENCODING 14269
SWIDTH 1000 0
DWIDTH 12 0
BBX 11 11 0 -1
BITMAP 
2140
2120
2FE0
A900
A920
A960
A940
B940
E880
8CA0
0960
ENDCHAR
STARTCHAR U_37BE
ENCODING 14270
SWIDTH 1000 0
DWIDTH 12 0
BBX 11 11 0 -1
BITMAP 
23E0
2220
2220
ABE0
AA00
AA80
AAA0
BAC0
EC80
04A0
08E0
ENDCHAR
STARTCHAR U_37BF
ENCODING 14271
SWIDTH 1000 0
DWIDTH 12 0
BBX 11 11 0 -1
BITMAP 
0400
4440
7FC0
0000
0400
7FC0
0400
FFE0
1100
0E00
F1E0
ENDCHAR
STARTCHAR U_37C0
ENCODING 14272
SWIDTH 1000 0
DWIDTH 12 0
BBX 11 11 0 -1
BITMAP 
01C0
7E00
0400
FFE0
1500
E4E0
0000
0400
4440
4440
7FC0
ENDCHAR
STARTCHAR U_37C1
ENCODING 14273
SWIDTH 1000 0
DWIDTH 12 0
BBX 11 11 0 -1
BITMAP 
23E0
2200
2200
AAE0
AA40
AA40
ABE0
BA40
EA40
0440
0440
ENDCHAR
STARTCHAR U_37C2
ENCODING 14274
SWIDTH 1000 0
DWIDTH 12 0
BBX 11 11 0 -1
BITMAP 
23C0
2240
22C0
AA40
AFE0
AA40
AAC0
BA40
EBE0
0040
00C0
ENDCHAR
STARTCHAR U_37C3
ENCODING 14275
SWIDTH 1000 0
DWIDTH 12 0
BBX 11 11 0 -1
BITMAP 
23E0
2020
23A0
A820
ABA0
AAA0
AAA0
AAA0
FBA0
0020
00E0
ENDCHAR
STARTCHAR U_37C4
ENCODING 14276
SWIDTH 1000 0
DWIDTH 12 0
BBX 11 11 0 -1
BITMAP 
2440
2280
2FE0
A100
AFC0
A900
A900
AFE0
F900
0100
0100
ENDCHAR
STARTCHAR U_37C5
ENCODING 14277
SWIDTH 1000 0
DWIDTH 12 0
BBX 11 11 0 -1
BITMAP 
2440
2280
A920
AAA0
A820
AFE0
AA80
BA80
EAA0
04A0
0860
ENDCHAR
STARTCHAR U_37C6
ENCODING 14278
SWIDTH 1000 0
DWIDTH 12 0
BBX 11 11 0 -1
BITMAP 
2280
22A0
26C0
AB80
AAA0
AA60
A900
AFE0
F900
0100
0100
ENDCHAR
STARTCHAR U_37C7
ENCODING 14279
SWIDTH 1000 0
DWIDTH 12 0
BBX 11 11 0 -1
BITMAP 
2100
2540
2540
AD40
ABA0
ABA0
A900
AFC0
F900
0100
0FE0
ENDCHAR
STARTCHAR U_37C8
ENCODING 14280
SWIDTH 1000 0
DWIDTH 12 0
BBX 11 11 0 -1
BITMAP 
2140
2120
A7E0
A900
AD40
AB80
A980
BB40
E520
0920
0300
ENDCHAR
STARTCHAR U_37C9
ENCODING 14281
SWIDTH 1000 0
DWIDTH 12 0
BBX 11 11 0 -1
BITMAP 
2080
23E0
AA20
A880
AA80
ABE0
AC80
BBE0
C880
0080
0080
ENDCHAR
STARTCHAR U_37CA
ENCODING 14282
SWIDTH 1000 0
DWIDTH 12 0
BBX 11 11 0 -1
BITMAP 
20C0
2700
24A0
AA40
A800
ABC0
A880
AFE0
F900
0100
0300
ENDCHAR
STARTCHAR U_37CB
ENCODING 14283
SWIDTH 1000 0
DWIDTH 12 0
BBX 11 11 0 -1
BITMAP 
2440
2280
27C0
A440
A440
AFC0
AA80
BA80
EAA0
04A0
0860
ENDCHAR
STARTCHAR U_37CC
ENCODING 14284
SWIDTH 1000 0
DWIDTH 12 0
BBX 11 11 0 -1
BITMAP 
2280
2240
AA00
AFA0
AA40
AAA0
AA40
BAA0
ED40
05A0
08E0
ENDCHAR
STARTCHAR U_37CD
ENCODING 14285
SWIDTH 1000 0
DWIDTH 12 0
BBX 11 11 0 -1
BITMAP 
2100
2080
23E0
AA20
ABE0
AA20
ABE0
BA80
EAA0
0240
0320
ENDCHAR
STARTCHAR U_37CE
ENCODING 14286
SWIDTH 1000 0
DWIDTH 12 0
BBX 11 11 0 -1
BITMAP 
20E0
2700
2920
A4A0
AA40
A900
AFE0
B940
EA40
0180
0660
ENDCHAR
STARTCHAR U_37CF
ENCODING 14287
SWIDTH 1000 0
DWIDTH 12 0
BBX 11 11 0 -1
BITMAP 
2100
2180
2240
AD20
A880
ABE0
A840
BBE0
EA20
0220
03E0
ENDCHAR
STARTCHAR U_37D0
ENCODING 14288
SWIDTH 1000 0
DWIDTH 12 0
BBX 11 11 0 -1
BITMAP 
2440
2FE0
2440
A900
A880
AFE0
AA00
BA00
EA00
0200
03E0
ENDCHAR
STARTCHAR U_37D1
ENCODING 14289
SWIDTH 1000 0
DWIDTH 12 0
BBX 11 11 0 -1
BITMAP 
2100
27C0
A100
A7E0
AC20
ABC0
A840
BFE0
E880
0080
0180
ENDCHAR
STARTCHAR U_37D2
ENCODING 14290
SWIDTH 1000 0
DWIDTH 12 0
BBX 11 11 0 -1
BITMAP 
4440
7FC0
0000
3F80
1480
1280
FFE0
2000
5F80
9080
1F80
ENDCHAR
STARTCHAR U_37D3
ENCODING 14291
SWIDTH 1000 0
DWIDTH 12 0
BBX 11 11 0 -1
BITMAP 
2660
2180
A660
A100
AFE0
AA80
AFE0
BAA0
EAA0
02A0
0080
ENDCHAR
STARTCHAR U_37D4
ENCODING 14292
SWIDTH 1000 0
DWIDTH 12 0
BBX 11 11 0 -1
BITMAP 
4440
7FC0
0400
0A00
3180
4440
9F20
0200
7FC0
4040
7FC0
ENDCHAR
STARTCHAR U_37D5
ENCODING 14293
SWIDTH 1000 0
DWIDTH 12 0
BBX 11 11 0 -1
BITMAP 
0400
4440
7FC0
0280
F980
8C80
8A80
88E0
8F80
F880
0080
ENDCHAR
STARTCHAR U_37D6
ENCODING 14294
SWIDTH 1000 0
DWIDTH 12 0
BBX 11 11 0 -1
BITMAP 
4440
7FC0
0000
7FC0
0400
3F80
0400
FFE0
0900
3F80
1100
ENDCHAR
STARTCHAR U_37D7
ENCODING 14295
SWIDTH 1000 0
DWIDTH 12 0
BBX 11 11 0 -1
BITMAP 
0400
2500
B5A0
CE60
FFE0
94A0
D6A0
A520
8420
FFE0
8020
ENDCHAR
STARTCHAR U_37D8
ENCODING 14296
SWIDTH 1000 0
DWIDTH 12 0
BBX 11 11 0 -1
BITMAP 
0FE0
0820
2920
2BA0
A920
ABA0
A820
ABA0
AAA0
FBA0
1060
ENDCHAR
STARTCHAR U_37D9
ENCODING 14297
SWIDTH 1000 0
DWIDTH 12 0
BBX 11 11 0 -1
BITMAP 
2240
27E0
2240
A240
AFE0
A800
AFE0
BC20
EFE0
0420
07E0
ENDCHAR
STARTCHAR U_37DA
ENCODING 14298
SWIDTH 1000 0
DWIDTH 12 0
BBX 11 11 0 -1
BITMAP 
2080
FBE0
2080
73E0
6940
A880
2360
0400
2480
2480
3F80
ENDCHAR
STARTCHAR U_37DB
ENCODING 14299
SWIDTH 1000 0
DWIDTH 12 0
BBX 11 11 0 -1
BITMAP 
0400
2480
3F80
0000
2240
F7E0
3240
63C0
A240
2240
63C0
ENDCHAR
STARTCHAR U_37DC
ENCODING 14300
SWIDTH 1000 0
DWIDTH 12 0
BBX 11 11 1 -1
BITMAP
0800
8880
FF80
0400
EFC0
2880
F200
8A80
EA40
3240
C600
ENDCHAR
STARTCHAR U_37DD
ENCODING 14301
SWIDTH 1000 0
DWIDTH 12 0
BBX 11 11 0 -1
BITMAP 
2080
27E0
2220
AA40
A940
AFE0
A800
BBE0
EA20
0220
03E0
ENDCHAR
STARTCHAR U_37DE
ENCODING 14302
SWIDTH 1000 0
DWIDTH 12 0
BBX 11 11 0 -1
BITMAP 
2280
27E0
AA40
A980
AEE0
A800
AA80
BFE0
EA40
0180
06E0
ENDCHAR
STARTCHAR U_37DF
ENCODING 14303
SWIDTH 1000 0
DWIDTH 12 0
BBX 11 11 0 -1
BITMAP 
4440
7FC0
1100
7FC0
1100
FFE0
3180
5F40
9520
1200
1FC0
ENDCHAR
STARTCHAR U_37E0
ENCODING 14304
SWIDTH 1000 0
DWIDTH 12 0
BBX 11 11 0 -1
BITMAP 
2FE0
2820
AC60
AFE0
A920
AD60
AD60
AFE0
F820
0860
0820
ENDCHAR
STARTCHAR U_37E1
ENCODING 14305
SWIDTH 1000 0
DWIDTH 12 0
BBX 11 11 0 -1
BITMAP 
2480
3F80
1500
3F80
0400
7FC0
0A00
1F80
6A40
88A0
0F80
ENDCHAR
STARTCHAR U_37E2
ENCODING 14306
SWIDTH 1000 0
DWIDTH 12 0
BBX 11 11 0 -1
BITMAP 
2480
3F80
0400
3F80
0A00
FFE0
0080
1E80
1280
1E80
0100
ENDCHAR
STARTCHAR U_37E3
ENCODING 14307
SWIDTH 1000 0
DWIDTH 12 0
BBX 11 11 0 -1
BITMAP 
2400
2540
2F40
A540
AF20
AEA0
A480
AD00
FD40
07A0
0400
ENDCHAR
STARTCHAR U_37E4
ENCODING 14308
SWIDTH 1000 0
DWIDTH 12 0
BBX 11 11 0 -1
BITMAP 
2480
3F80
0100
1F00
0100
FFE0
0400
4480
2500
4480
8C60
ENDCHAR
STARTCHAR U_37E5
ENCODING 14309
SWIDTH 1000 0
DWIDTH 12 0
BBX 11 11 0 -1
BITMAP 
2480
3F80
0A00
3F80
0400
FFE0
0A00
3580
DE60
0B20
3C00
ENDCHAR
STARTCHAR U_37E6
ENCODING 14310
SWIDTH 1000 0
DWIDTH 12 0
BBX 11 11 0 -1
BITMAP 
2480
3F80
0000
7FE0
8420
7FC0
2480
3F80
2480
FFE0
0400
ENDCHAR
STARTCHAR U_37E7
ENCODING 14311
SWIDTH 1000 0
DWIDTH 12 0
BBX 11 11 0 -1
BITMAP 
4440
7FC0
0000
7BC0
4A40
4A40
FFE0
1000
3F80
0080
0700
ENDCHAR
STARTCHAR U_37E8
ENCODING 14312
SWIDTH 1000 0
DWIDTH 12 0
BBX 11 11 0 -1
BITMAP 
2100
2920
AFE0
A000
AFE0
A900
AFE0
BAA0
EAA0
0AA0
0860
ENDCHAR
STARTCHAR U_37E9
ENCODING 14313
SWIDTH 1000 0
DWIDTH 12 0
BBX 11 11 0 -1
BITMAP 
F920
8BE0
FA40
9680
F900
9680
C860
0400
4440
4440
7FC0
ENDCHAR
STARTCHAR U_37EA
ENCODING 14314
SWIDTH 1000 0
DWIDTH 12 0
BBX 11 11 0 -1
BITMAP 
23E0
22A0
ABE0
AAA0
ABE0
A800
AFE0
BB00
CAA0
0240
0320
ENDCHAR
STARTCHAR U_37EB
ENCODING 14315
SWIDTH 1000 0
DWIDTH 12 0
BBX 11 11 0 -1
BITMAP 
2100
27E0
2420
A7E0
AC20
AFE0
A900
BD20
EBC0
0540
0920
ENDCHAR
STARTCHAR U_37EC
ENCODING 14316
SWIDTH 1000 0
DWIDTH 12 0
BBX 11 11 0 -1
BITMAP 
4440
7FC0
0000
75C0
4440
75C0
4440
7FC0
3180
1E00
73C0
ENDCHAR
STARTCHAR U_37ED
ENCODING 14317
SWIDTH 1000 0
DWIDTH 12 0
BBX 11 11 0 -1
BITMAP 
03E0
0220
23E0
2240
ABE0
AA40
ABE0
AA20
FBE0
0220
03E0
ENDCHAR
STARTCHAR U_37EE
ENCODING 14318
SWIDTH 1000 0
DWIDTH 12 0
BBX 11 11 0 -1
BITMAP 
2200
2100
A7E0
A5A0
AA40
A940
AFE0
B900
E280
0440
0820
ENDCHAR
STARTCHAR U_37EF
ENCODING 14319
SWIDTH 1000 0
DWIDTH 12 0
BBX 11 11 0 -1
BITMAP 
2480
3F80
0400
7FE0
88A0
3300
4E00
1100
3F80
5140
1F00
ENDCHAR
STARTCHAR U_37F0
ENCODING 14320
SWIDTH 1000 0
DWIDTH 12 0
BBX 11 11 0 -1
BITMAP 
2FE0
2820
A7C0
AC40
AFC0
AC40
AFC0
A900
FFE0
0440
0820
ENDCHAR
STARTCHAR U_37F1
ENCODING 14321
SWIDTH 1000 0
DWIDTH 12 0
BBX 11 11 0 -1
BITMAP 
2440
2280
A7E0
A900
AFE0
A900
A900
AFE0
F800
0540
0AA0
ENDCHAR
STARTCHAR U_37F2
ENCODING 14322
SWIDTH 1000 0
DWIDTH 12 0
BBX 11 11 0 -1
BITMAP 
2FE0
2900
ABE0
AA20
ABE0
AA20
ABE0
A880
FAC0
14A0
2180
ENDCHAR
STARTCHAR U_37F3
ENCODING 14323
SWIDTH 1000 0
DWIDTH 12 0
BBX 11 11 0 -1
BITMAP 
2FE0
2280
AFE0
AAA0
AAA0
AFE0
A900
AFE0
FB80
0540
0920
ENDCHAR
STARTCHAR U_37F4
ENCODING 14324
SWIDTH 1000 0
DWIDTH 12 0
BBX 11 11 0 -1
BITMAP 
2200
27E0
A520
AFE0
AD20
AFE0
AA80
BAE0
E280
04A0
1860
ENDCHAR
STARTCHAR U_37F5
ENCODING 14325
SWIDTH 1000 0
DWIDTH 12 0
BBX 11 11 0 -1
BITMAP 
4440
7FC0
0000
7FC0
4A40
7FC0
0000
7FC0
1700
1400
FFE0
ENDCHAR
STARTCHAR U_37F6
ENCODING 14326
SWIDTH 1000 0
DWIDTH 12 0
BBX 11 11 0 -1
BITMAP 
4440
7FC0
0000
7FC0
4400
5FC0
5FC0
5040
5FC0
8A80
B660
ENDCHAR
STARTCHAR U_37F7
ENCODING 14327
SWIDTH 1000 0
DWIDTH 12 0
BBX 11 11 0 -1
BITMAP 
2440
2EE0
A440
A900
AA80
AC40
ABA0
B800
E7C0
0440
07C0
ENDCHAR
STARTCHAR U_37F8
ENCODING 14328
SWIDTH 1000 0
DWIDTH 12 0
BBX 11 11 0 -1
BITMAP 
2200
27C0
AC40
AFC0
AC40
AFC0
A900
BFE0
E140
0FE0
0100
ENDCHAR
STARTCHAR U_37F9
ENCODING 14329
SWIDTH 1000 0
DWIDTH 12 0
BBX 11 11 0 -1
BITMAP 
3E80
2B60
2AA0
AEA0
AAA0
AEA0
AAA0
BAA0
CFE0
1A80
0280
ENDCHAR
STARTCHAR U_37FA
ENCODING 14330
SWIDTH 1000 0
DWIDTH 12 0
BBX 11 11 0 -1
BITMAP 
4440
7FC0
2480
FFE0
2480
3F80
7FC0
5540
FFE0
0E00
3B80
ENDCHAR
STARTCHAR U_37FB
ENCODING 14331
SWIDTH 1000 0
DWIDTH 12 0
BBX 11 11 0 -1
BITMAP 
1060
FD80
1100
FDE0
9540
FD40
1240
FE40
1400
4440
7FC0
ENDCHAR
STARTCHAR U_37FC
ENCODING 14332
SWIDTH 1000 0
DWIDTH 12 0
BBX 11 11 0 -1
BITMAP 
4440
7FC0
2100
F900
21E0
7240
2540
F980
3880
4940
9620
ENDCHAR
STARTCHAR U_37FD
ENCODING 14333
SWIDTH 1000 0
DWIDTH 12 0
BBX 11 11 0 -1
BITMAP 
2FE0
2280
AFE0
AAA0
AFE0
A800
ABC0
B800
E7E0
0540
0B20
ENDCHAR
STARTCHAR U_37FE
ENCODING 14334
SWIDTH 1000 0
DWIDTH 12 0
BBX 11 11 0 -1
BITMAP 
2100
2FC0
A940
AFE0
A940
AFC0
AD40
AFC0
FD40
17C0
1540
ENDCHAR
STARTCHAR U_37FF
ENCODING 14335
SWIDTH 1000 0
DWIDTH 12 0
BBX 11 11 0 -1
BITMAP 
2440
2FE0
A440
A920
AFE0
AA80
AC60
BA40
EFE0
0240
0440
ENDCHAR
STARTCHAR U_3800
ENCODING 14336
SWIDTH 1000 0
DWIDTH 12 0
BBX 11 11 0 -1
BITMAP 
0800
3F80
2080
3F80
2080
3FE0
2000
3FE0
AA20
4440
7FC0
ENDCHAR
STARTCHAR U_3801
ENCODING 14337
SWIDTH 1000 0
DWIDTH 12 0
BBX 11 11 0 -1
BITMAP 
4100
4280
D780
D440
DEE0
D7A0
DB60
D580
F660
0180
0E00
ENDCHAR
STARTCHAR U_3802
ENCODING 14338
SWIDTH 1000 0
DWIDTH 12 0
BBX 11 11 0 -1
BITMAP 
2480
3F80
A500
AFE0
A520
BF40
A940
AF40
FA80
0B40
1620
ENDCHAR
STARTCHAR U_3803
ENCODING 14339
SWIDTH 1000 0
DWIDTH 12 0
BBX 11 11 0 -1
BITMAP 
2100
2FE0
A440
AA80
AFE0
A920
ABA0
A920
FBA0
0AA0
0BA0
ENDCHAR
STARTCHAR U_3804
ENCODING 14340
SWIDTH 1000 0
DWIDTH 12 0
BBX 11 11 0 -1
BITMAP 
4440
7FC0
0000
FBE0
28A0
FBE0
1540
3F80
3F80
2080
3F80
ENDCHAR
STARTCHAR U_3805
ENCODING 14341
SWIDTH 1000 0
DWIDTH 12 0
BBX 11 11 0 -1
BITMAP 
4440
7FC0
2400
27E0
4FC0
B7C0
6440
A7E0
2C80
2300
2EE0
ENDCHAR
STARTCHAR U_3806
ENCODING 14342
SWIDTH 1000 0
DWIDTH 12 0
BBX 11 11 0 -1
BITMAP 
4EE0
4AA0
DEE0
D7C0
D540
D7C0
D540
D7C0
F100
9FE0
0100
ENDCHAR
STARTCHAR U_3807
ENCODING 14343
SWIDTH 1000 0
DWIDTH 12 0
BBX 11 11 0 -1
BITMAP 
4440
7FC0
2000
FD20
0100
FFE0
8900
F980
2280
7280
ACE0
ENDCHAR
STARTCHAR U_3808
ENCODING 14344
SWIDTH 1000 0
DWIDTH 12 0
BBX 11 11 0 -1
BITMAP 
2EE0
2AA0
AEE0
AAA0
AEE0
ABA0
A920
ABA0
F920
0BA0
0860
ENDCHAR
STARTCHAR U_3809
ENCODING 14345
SWIDTH 1000 0
DWIDTH 12 0
BBX 11 11 0 -1
BITMAP 
2100
2FE0
A440
BFE0
AFE0
A920
AFE0
A900
FFC0
0100
1FE0
ENDCHAR
STARTCHAR U_380A
ENCODING 14346
SWIDTH 1000 0
DWIDTH 12 0
BBX 11 11 0 -1
BITMAP 
21C0
2100
AFE0
A900
AFE0
A900
A8E0
A940
FB60
1140
17E0
ENDCHAR
STARTCHAR U_380B
ENCODING 14347
SWIDTH 1000 0
DWIDTH 12 0
BBX 11 11 0 -1
BITMAP 
4440
7FC0
1100
7FC0
4A40
7FC0
0000
FFE0
3FC0
0040
0380
ENDCHAR
STARTCHAR U_380C
ENCODING 14348
SWIDTH 1000 0
DWIDTH 12 0
BBX 11 11 0 -1
BITMAP 
4440
7FC0
4900
FD00
4BE0
7CA0
7880
4880
FD40
4940
8620
ENDCHAR
STARTCHAR U_380D
ENCODING 14349
SWIDTH 1000 0
DWIDTH 12 0
BBX 11 11 0 -1
BITMAP 
4440
7FC0
1200
3FC0
6200
BFC0
3FC0
2600
FFE0
1580
E460
ENDCHAR
STARTCHAR U_380E
ENCODING 14350
SWIDTH 1000 0
DWIDTH 12 0
BBX 11 11 0 -1
BITMAP 
2480
27E0
2880
AFE0
A880
AFE0
A900
BFE0
E100
0540
0920
ENDCHAR
STARTCHAR U_380F
ENCODING 14351
SWIDTH 1000 0
DWIDTH 12 0
BBX 11 11 0 -1
BITMAP 
2440
2EE0
A440
AFE0
A540
AFE0
A540
AFE0
F900
07C0
0100
ENDCHAR
STARTCHAR U_3810
ENCODING 14352
SWIDTH 1000 0
DWIDTH 12 0
BBX 11 11 0 -1
BITMAP 
4440
7FC0
0180
3E00
0440
FFE0
2A80
7FC0
AAA0
2E80
2180
ENDCHAR
STARTCHAR U_3811
ENCODING 14353
SWIDTH 1000 0
DWIDTH 12 0
BBX 11 11 0 -1
BITMAP 
2480
3F80
0000
7FC0
4A40
FFE0
0A00
7BC0
0A00
FBE0
1200
ENDCHAR
STARTCHAR U_3812
ENCODING 14354
SWIDTH 1000 0
DWIDTH 12 0
BBX 11 11 0 -1
BITMAP 
2FA0
2520
2FA0
AAA0
ADA0
AFA0
A8A0
BFA0
E720
8AA0
1260
ENDCHAR
STARTCHAR U_3813
ENCODING 14355
SWIDTH 1000 0
DWIDTH 12 0
BBX 11 11 0 -1
BITMAP 
2240
27E0
2A40
AFE0
A820
ABC0
A920
BAC0
EDA0
82A0
0580
ENDCHAR
STARTCHAR U_3814
ENCODING 14356
SWIDTH 1000 0
DWIDTH 12 0
BBX 11 11 0 -1
BITMAP 
0400
2480
3F80
0100
3BC0
2A80
5FE0
9100
2BC0
3900
0100
ENDCHAR
STARTCHAR U_3815
ENCODING 14357
SWIDTH 1000 0
DWIDTH 12 0
BBX 11 11 0 -1
BITMAP 
4440
7FC0
0200
77C0
5540
57C0
5540
57C0
72A0
44C0
48E0
ENDCHAR
STARTCHAR U_3816
ENCODING 14358
SWIDTH 1000 0
DWIDTH 12 0
BBX 11 11 0 -1
BITMAP 
4440
7FC0
1100
7FC0
0400
3F80
1240
FFE0
1940
71A0
3660
ENDCHAR
STARTCHAR U_3817
ENCODING 14359
SWIDTH 1000 0
DWIDTH 12 0
BBX 11 11 0 -1
BITMAP 
2100
2FE0
2B60
ADA0
AFE0
ABA0
AD60
B100
EFE0
8240
0C20
ENDCHAR
STARTCHAR U_3818
ENCODING 14360
SWIDTH 1000 0
DWIDTH 12 0
BBX 11 11 0 -1
BITMAP 
8420
FFE0
4860
8E20
E8E0
8E20
E6E0
8A20
FFE0
3180
C060
ENDCHAR
STARTCHAR U_3819
ENCODING 14361
SWIDTH 1000 0
DWIDTH 12 0
BBX 11 11 0 -1
BITMAP 
2100
27E0
2A40
AFE0
A820
ABC0
A920
BB40
EDC0
82A0
0580
ENDCHAR
STARTCHAR U_381A
ENCODING 14362
SWIDTH 1000 0
DWIDTH 12 0
BBX 11 11 0 -1
BITMAP 
2A40
3B40
2A40
BFE0
AA40
BF40
A4C0
BE40
E440
8640
18C0
ENDCHAR
STARTCHAR U_381B
ENCODING 14363
SWIDTH 1000 0
DWIDTH 12 0
BBX 11 11 0 -1
BITMAP 
2280
2EE0
2A80
AFE0
AA80
ABE0
AA80
BBE0
EA40
8180
0E60
ENDCHAR
STARTCHAR U_381C
ENCODING 14364
SWIDTH 1000 0
DWIDTH 12 0
BBX 11 11 0 -1
BITMAP 
29E0
2C40
2880
AFE0
A8A0
AC80
A8E0
FF80
8880
0D80
1260
ENDCHAR
STARTCHAR U_381D
ENCODING 14365
SWIDTH 1000 0
DWIDTH 12 0
BBX 11 11 0 -1
BITMAP 
2240
27E0
2A40
AFE0
AA40
ADA0
AA40
BBC0
EA40
83C0
0420
ENDCHAR
STARTCHAR U_381E
ENCODING 14366
SWIDTH 1000 0
DWIDTH 12 0
BBX 11 11 0 -1
BITMAP 
3540
55E0
BFA0
5540
CE40
44A0
5F20
0400
4440
4440
7FC0
ENDCHAR
STARTCHAR U_381F
ENCODING 14367
SWIDTH 1000 0
DWIDTH 12 0
BBX 11 11 0 -1
BITMAP 
2740
22E0
2720
2A60
AFA0
AAE0
A900
BA80
ED60
8380
0540
ENDCHAR
STARTCHAR U_3820
ENCODING 14368
SWIDTH 1000 0
DWIDTH 12 0
BBX 11 11 0 -1
BITMAP 
01C0
2100
2FE0
A940
AFE0
AAA0
ABE0
AAA0
FFE0
8AA0
1FE0
ENDCHAR
STARTCHAR U_3821
ENCODING 14369
SWIDTH 1000 0
DWIDTH 12 0
BBX 11 11 0 -1
BITMAP 
0100
2FE0
2280
ABC0
AA80
ABE0
AAA0
FF40
8640
0A80
0360
ENDCHAR
STARTCHAR U_3822
ENCODING 14370
SWIDTH 1000 0
DWIDTH 12 0
BBX 11 11 0 -1
BITMAP 
4440
7FC0
2480
3F80
2480
3F80
1540
FFE0
2240
E980
3060
ENDCHAR
STARTCHAR U_3823
ENCODING 14371
SWIDTH 1000 0
DWIDTH 12 0
BBX 11 11 0 -1
BITMAP 
0FE0
2920
2A40
AFE0
AAC0
AF60
AA40
A900
F5C0
9500
2FE0
ENDCHAR
STARTCHAR U_3824
ENCODING 14372
SWIDTH 1000 0
DWIDTH 12 0
BBX 11 11 0 -1
BITMAP 
0100
2FE0
2AA0
AEE0
AA80
AFE0
AA80
FFE0
8540
0C80
0660
ENDCHAR
STARTCHAR U_3825
ENCODING 14373
SWIDTH 1000 0
DWIDTH 12 0
BBX 11 11 0 -1
BITMAP 
07C0
2540
27C0
A540
AFE0
AAA0
AFE0
A900
FBC0
8900
07E0
ENDCHAR
STARTCHAR U_3826
ENCODING 14374
SWIDTH 1000 0
DWIDTH 12 0
BBX 11 11 0 -1
BITMAP 
0AA0
2FE0
2AA0
2FE0
A800
AFE0
AA40
ABC0
FA40
8180
07E0
ENDCHAR
STARTCHAR U_3827
ENCODING 14375
SWIDTH 1000 0
DWIDTH 12 0
BBX 11 11 0 -1
BITMAP 
2100
2FE0
AA40
AFE0
AB40
AEE0
AA80
FEE0
8A80
0EE0
1280
ENDCHAR
STARTCHAR U_3828
ENCODING 14376
SWIDTH 1000 0
DWIDTH 12 0
BBX 11 11 0 -1
BITMAP 
0440
2EE0
2540
AFE0
AAA0
AFE0
AD20
ABE0
FEA0
8A20
0D60
ENDCHAR
STARTCHAR U_3829
ENCODING 14377
SWIDTH 1000 0
DWIDTH 12 0
BBX 11 11 0 -1
BITMAP 
4400
4400
4A00
7180
4000
7FC0
2480
2480
2480
4480
8460
ENDCHAR
STARTCHAR U_382A
ENCODING 14378
SWIDTH 1000 0
DWIDTH 12 0
BBX 11 11 0 -1
BITMAP 
0040
FFE0
0400
0400
0400
0780
0400
0400
0400
0440
FFE0
ENDCHAR
STARTCHAR U_382B
ENCODING 14379
SWIDTH 1000 0
DWIDTH 12 0
BBX 11 11 0 -1
BITMAP 
FBC0
2240
2340
2AC0
3240
C460
3F80
0400
FFE0
0A00
71C0
ENDCHAR
STARTCHAR U_382C
ENCODING 14380
SWIDTH 1000 0
DWIDTH 12 0
BBX 11 11 0 -1
BITMAP 
FBE0
2220
3A20
E3E0
0400
3F80
0400
FFE0
0900
1080
6060
ENDCHAR
STARTCHAR U_382D
ENCODING 14381
SWIDTH 1000 0
DWIDTH 12 0
BBX 11 11 0 -1
BITMAP 
FBE0
2080
2080
3880
E3E0
0000
FBE0
2080
2080
3880
C7E0
ENDCHAR
STARTCHAR U_382E
ENCODING 14382
SWIDTH 1000 0
DWIDTH 12 0
BBX 11 11 0 -1
BITMAP 
4440
29E0
FE80
2880
AA80
6C80
FE80
4480
7C80
4480
7FE0
ENDCHAR
STARTCHAR U_382F
ENCODING 14383
SWIDTH 1000 0
DWIDTH 12 0
BBX 11 11 0 -1
BITMAP 
7F80
0080
4080
7F80
4000
4000
7FC0
4040
4040
7FC0
4000
ENDCHAR
STARTCHAR U_3830
ENCODING 14384
SWIDTH 1000 0
DWIDTH 12 0
BBX 11 11 0 -1
BITMAP 
1000
FBC0
2A40
4A40
9BC0
0000
7F00
0100
7F00
4040
7FC0
ENDCHAR
STARTCHAR U_3831
ENCODING 14385
SWIDTH 1000 0
DWIDTH 12 0
BBX 11 11 0 -1
BITMAP 
7F80
0080
3F80
2040
7FE0
1100
1F00
1100
FFE0
1100
2080
ENDCHAR
STARTCHAR U_3832
ENCODING 14386
SWIDTH 1000 0
DWIDTH 12 0
BBX 11 11 0 -1
BITMAP 
2200
2200
FA60
AA80
AB00
AA00
AA00
AA20
BA20
2220
21E0
ENDCHAR
STARTCHAR U_3833
ENCODING 14387
SWIDTH 1000 0
DWIDTH 12 0
BBX 11 11 0 -1
BITMAP 
1800
0400
1B00
E0E0
0400
3FC0
2440
2440
2540
2480
0400
ENDCHAR
STARTCHAR U_3834
ENCODING 14388
SWIDTH 1000 0
DWIDTH 12 0
BBX 11 11 0 -1
BITMAP 
2000
27E0
F920
A920
AB20
AD20
A920
A920
BA20
22A0
2440
ENDCHAR
STARTCHAR U_3835
ENCODING 14389
SWIDTH 1000 0
DWIDTH 12 0
BBX 11 11 0 -1
BITMAP 
0400
FFE0
2000
3FC0
0400
7FC0
4440
4440
4440
44C0
0400
ENDCHAR
STARTCHAR U_3836
ENCODING 14390
SWIDTH 1000 0
DWIDTH 12 0
BBX 11 11 0 -1
BITMAP 
2100
2200
FB80
AA80
AA80
AA80
AA80
AAA0
BAA0
24A0
2860
ENDCHAR
STARTCHAR U_3837
ENCODING 14391
SWIDTH 1000 0
DWIDTH 12 0
BBX 11 11 0 -1
BITMAP 
27C0
2240
FA80
AAE0
AA20
AA20
AA40
AB40
BA80
2540
2A20
ENDCHAR
STARTCHAR U_3838
ENCODING 14392
SWIDTH 1000 0
DWIDTH 12 0
BBX 11 11 0 -1
BITMAP 
2100
2100
FBC0
A900
A900
AFE0
A900
A900
BA80
2440
2820
ENDCHAR
STARTCHAR U_3839
ENCODING 14393
SWIDTH 1000 0
DWIDTH 12 0
BBX 11 11 0 -1
BITMAP 
2100
2100
FA80
AC40
A820
AA80
AA80
AA80
BA80
2280
2480
ENDCHAR
STARTCHAR U_383A
ENCODING 14394
SWIDTH 1000 0
DWIDTH 12 0
BBX 11 11 0 -1
BITMAP 
2080
2080
F8C0
AAA0
AAA0
AC80
A8A0
A840
B880
2300
2C00
ENDCHAR
STARTCHAR U_383B
ENCODING 14395
SWIDTH 1000 0
DWIDTH 12 0
BBX 11 11 0 -1
BITMAP 
0480
3FC0
0500
FFE0
1400
3FC0
E440
2440
2540
2480
0400
ENDCHAR
STARTCHAR U_383C
ENCODING 14396
SWIDTH 1000 0
DWIDTH 12 0
BBX 11 11 0 -1
BITMAP 
20C0
2300
FA00
AA00
ABE0
AA40
AA40
AA40
BA40
2440
2840
ENDCHAR
STARTCHAR U_383D
ENCODING 14397
SWIDTH 1000 0
DWIDTH 12 0
BBX 11 11 0 -1
BITMAP 
2200
23C0
FC40
AA80
A900
AA80
AC60
A900
B880
2300
2080
ENDCHAR
STARTCHAR U_383E
ENCODING 14398
SWIDTH 1000 0
DWIDTH 12 0
BBX 11 11 0 -1
BITMAP 
23C0
3A40
4AC0
B220
15E0
2400
FFC0
2440
2540
2480
0400
ENDCHAR
STARTCHAR U_383F
ENCODING 14399
SWIDTH 1000 0
DWIDTH 12 0
BBX 11 11 0 -1
BITMAP 
1200
5AC0
5300
5A20
E5E0
0400
3FC0
2440
2440
25C0
0400
ENDCHAR
STARTCHAR U_3840
ENCODING 14400
SWIDTH 1000 0
DWIDTH 12 0
BBX 11 11 0 -1
BITMAP 
2480
1480
1500
FFE0
8420
9520
94A0
A460
C420
8420
8060
ENDCHAR
STARTCHAR U_3841
ENCODING 14401
SWIDTH 1000 0
DWIDTH 12 0
BBX 11 11 0 -1
BITMAP 
2100
27E0
F980
AA40
ADA0
A800
ABC0
B900
ABC0
2040
20C0
ENDCHAR
STARTCHAR U_3842
ENCODING 14402
SWIDTH 1000 0
DWIDTH 12 0
BBX 11 11 0 -1
BITMAP 
FC20
4120
7D20
C920
3120
2420
C460
7FC0
4440
44C0
0400
ENDCHAR
STARTCHAR U_3843
ENCODING 14403
SWIDTH 1000 0
DWIDTH 12 0
BBX 11 11 0 -1
BITMAP 
2240
2240
FAA0
AB00
ABE0
A800
AAA0
AAA0
BAA0
22A0
2420
ENDCHAR
STARTCHAR U_3844
ENCODING 14404
SWIDTH 1000 0
DWIDTH 12 0
BBX 11 11 0 -1
BITMAP 
2200
2200
FFE0
A820
ABA0
AAA0
ABA0
AAA0
BBA0
20A0
2040
ENDCHAR
STARTCHAR U_3845
ENCODING 14405
SWIDTH 1000 0
DWIDTH 12 0
BBX 11 11 0 -1
BITMAP 
2080
21E0
FB20
A8C0
A880
AB40
A8E0
BB20
A8C0
2080
2700
ENDCHAR
STARTCHAR U_3846
ENCODING 14406
SWIDTH 1000 0
DWIDTH 12 0
BBX 11 11 0 -1
BITMAP 
2100
27E0
FA00
AA00
ABE0
A800
AAA0
BAA0
AAA0
22A0
2420
ENDCHAR
STARTCHAR U_3847
ENCODING 14407
SWIDTH 1000 0
DWIDTH 12 0
BBX 11 11 0 -1
BITMAP 
2FE0
2A80
FA80
AE80
AA80
AE80
AA80
BA80
AEA0
32A0
2260
ENDCHAR
STARTCHAR U_3848
ENCODING 14408
SWIDTH 1000 0
DWIDTH 12 0
BBX 11 11 0 -1
BITMAP 
21C0
2240
FC80
ABE0
AAA0
AAA0
ABE0
B940
A940
2240
2460
ENDCHAR
STARTCHAR U_3849
ENCODING 14409
SWIDTH 1000 0
DWIDTH 12 0
BBX 11 11 0 -1
BITMAP 
2E80
2240
FBE0
AE40
A8A0
A920
AEC0
BA40
AAA0
23E0
2D20
ENDCHAR
STARTCHAR U_384A
ENCODING 14410
SWIDTH 1000 0
DWIDTH 12 0
BBX 11 11 0 -1
BITMAP 
2100
21C0
FA40
AC80
A800
AB40
ACE0
B420
26E0
2420
27E0
ENDCHAR
STARTCHAR U_384B
ENCODING 14411
SWIDTH 1000 0
DWIDTH 12 0
BBX 11 11 0 -1
BITMAP 
2080
23E0
F940
AAA0
AFE0
AAA0
ABE0
BAA0
ABE0
2080
20E0
ENDCHAR
STARTCHAR U_384C
ENCODING 14412
SWIDTH 1000 0
DWIDTH 12 0
BBX 11 11 0 -1
BITMAP 
27E0
2420
A7E0
FC20
ABE0
AA20
BBE0
AA20
23E0
2220
2260
ENDCHAR
STARTCHAR U_384D
ENCODING 14413
SWIDTH 1000 0
DWIDTH 12 0
BBX 11 11 0 -1
BITMAP 
1000
3F80
2680
3880
3F80
0400
FFE0
2480
DF60
1500
1500
ENDCHAR
STARTCHAR U_384E
ENCODING 14414
SWIDTH 1000 0
DWIDTH 12 0
BBX 11 11 0 -1
BITMAP 
2280
27C0
F900
AFE0
AA80
AAC0
AD20
BA80
AB40
2080
2700
ENDCHAR
STARTCHAR U_384F
ENCODING 14415
SWIDTH 1000 0
DWIDTH 12 0
BBX 11 11 0 -1
BITMAP 
2100
2280
FC40
ABA0
A800
AE20
AAA0
BEA0
AAA0
2E20
3260
ENDCHAR
STARTCHAR U_3850
ENCODING 14416
SWIDTH 1000 0
DWIDTH 12 0
BBX 11 11 0 -1
BITMAP 
2440
2280
FFE0
A800
AE20
AAA0
AEA0
BAA0
2EA0
2A20
2A60
ENDCHAR
STARTCHAR U_3851
ENCODING 14417
SWIDTH 1000 0
DWIDTH 12 0
BBX 11 11 0 -1
BITMAP 
3880
E4A0
22A0
FAC0
3080
6940
A620
0400
7FC0
4440
44C0
ENDCHAR
STARTCHAR U_3852
ENCODING 14418
SWIDTH 1000 0
DWIDTH 12 0
BBX 11 11 0 -1
BITMAP 
20C0
2700
F880
AFE0
A900
ABC0
AAC0
AB40
BAC0
2B40
33C0
ENDCHAR
STARTCHAR U_3853
ENCODING 14419
SWIDTH 1000 0
DWIDTH 12 0
BBX 11 11 0 -1
BITMAP 
2FE0
2920
FFE0
A900
AFC0
A940
AFC0
A940
BFE0
2100
2100
ENDCHAR
STARTCHAR U_3854
ENCODING 14420
SWIDTH 1000 0
DWIDTH 12 0
BBX 11 11 0 -1
BITMAP 
F900
11E0
FF20
1540
3080
D360
0400
7FC0
4440
44C0
0400
ENDCHAR
STARTCHAR U_3855
ENCODING 14421
SWIDTH 1000 0
DWIDTH 12 0
BBX 11 11 0 -1
BITMAP 
2440
2EE0
A540
F900
AFC0
A940
A940
BFE0
A900
2280
2C60
ENDCHAR
STARTCHAR U_3856
ENCODING 14422
SWIDTH 1000 0
DWIDTH 12 0
BBX 11 11 0 -1
BITMAP 
23E0
2080
FFE0
A880
ABE0
AAA0
ABE0
BAA0
ABE0
2080
27E0
ENDCHAR
STARTCHAR U_3857
ENCODING 14423
SWIDTH 1000 0
DWIDTH 12 0
BBX 11 11 0 -1
BITMAP 
21E0
2F00
F9C0
A900
AFE0
A940
AFE0
AA80
2A80
32A0
2460
ENDCHAR
STARTCHAR U_3858
ENCODING 14424
SWIDTH 1000 0
DWIDTH 12 0
BBX 11 11 0 -1
BITMAP 
2440
2FE0
FA80
AFE0
AAA0
AFE0
AAA0
AFE0
BA80
26C0
2AA0
ENDCHAR
STARTCHAR U_3859
ENCODING 14425
SWIDTH 1000 0
DWIDTH 12 0
BBX 11 11 0 -1
BITMAP 
2100
2FE0
FAA0
A920
AAA0
AFE0
A880
AEE0
B880
2AA0
2CE0
ENDCHAR
STARTCHAR U_385A
ENCODING 14426
SWIDTH 1000 0
DWIDTH 12 0
BBX 11 11 0 -1
BITMAP 
2140
27E0
F940
ABE0
A940
AFE0
AAA0
ABE0
BAA0
27E0
2220
ENDCHAR
STARTCHAR U_385B
ENCODING 14427
SWIDTH 1000 0
DWIDTH 12 0
BBX 11 11 0 -1
BITMAP 
2240
27E0
FA40
A880
AB40
AA20
ABE0
A800
BD40
2540
2D60
ENDCHAR
STARTCHAR U_385C
ENCODING 14428
SWIDTH 1000 0
DWIDTH 12 0
BBX 11 11 0 -1
BITMAP 
2400
2760
FDA0
AAC0
AE40
ABA0
A800
AFE0
BA80
22C0
25A0
ENDCHAR
STARTCHAR U_385D
ENCODING 14429
SWIDTH 1000 0
DWIDTH 12 0
BBX 11 11 0 -1
BITMAP 
20E0
25A0
FA40
A8A0
AFE0
AA40
AAE0
AA40
BAE0
2240
25E0
ENDCHAR
STARTCHAR U_385E
ENCODING 14430
SWIDTH 1000 0
DWIDTH 12 0
BBX 11 11 0 -1
BITMAP 
2080
23E0
FAA0
AFE0
AAA0
ABE0
AAA0
BFE0
A920
21C0
2620
ENDCHAR
STARTCHAR U_385F
ENCODING 14431
SWIDTH 1000 0
DWIDTH 12 0
BBX 11 11 0 -1
BITMAP 
2280
2FE0
FA80
AFE0
AAA0
AFE0
AAA0
BFE0
24C0
2740
27C0
ENDCHAR
STARTCHAR U_3860
ENCODING 14432
SWIDTH 1000 0
DWIDTH 12 0
BBX 11 11 0 -1
BITMAP 
2F40
25A0
FAC0
AA40
AFE0
A800
ABC0
AA40
BBC0
2240
27E0
ENDCHAR
STARTCHAR U_3861
ENCODING 14433
SWIDTH 1000 0
DWIDTH 12 0
BBX 11 11 0 -1
BITMAP 
2FE0
2800
FF20
A820
AFE0
A920
AFA0
B960
2E20
3320
2C60
ENDCHAR
STARTCHAR U_3862
ENCODING 14434
SWIDTH 1000 0
DWIDTH 12 0
BBX 11 11 0 -1
BITMAP 
23C0
2240
FBC0
AA40
AFE0
AAA0
AFE0
B900
A9C0
2240
24C0
ENDCHAR
STARTCHAR U_3863
ENCODING 14435
SWIDTH 1000 0
DWIDTH 12 0
BBX 11 11 0 -1
BITMAP 
21E0
FD00
49E0
FC20
85E0
2100
FDE0
A500
A5E0
AD00
21E0
ENDCHAR
STARTCHAR U_3864
ENCODING 14436
SWIDTH 1000 0
DWIDTH 12 0
BBX 11 11 0 -1
BITMAP 
2AA0
26C0
FFE0
AA80
AFE0
A900
AFC0
A900
BFE0
2540
2920
ENDCHAR
STARTCHAR U_3865
ENCODING 14437
SWIDTH 1000 0
DWIDTH 12 0
BBX 11 11 0 -1
BITMAP 
27E0
2540
FBE0
A880
ABE0
A840
AFE0
A840
BBC0
2540
2BA0
ENDCHAR
STARTCHAR U_3866
ENCODING 14438
SWIDTH 1000 0
DWIDTH 12 0
BBX 11 11 0 -1
BITMAP 
2100
2FE0
F820
AFC0
AB20
ADC0
AB40
AEC0
BB40
23C0
2420
ENDCHAR
STARTCHAR U_3867
ENCODING 14439
SWIDTH 1000 0
DWIDTH 12 0
BBX 11 11 0 -1
BITMAP 
2100
2FE0
FAA0
AC40
AB80
AD60
ABC0
AE60
BBC0
2240
27E0
ENDCHAR
STARTCHAR U_3868
ENCODING 14440
SWIDTH 1000 0
DWIDTH 12 0
BBX 11 11 0 -1
BITMAP 
2540
2560
FAC0
AFE0
AA80
AAC0
AE80
AAC0
BEA0
22C0
2720
ENDCHAR
STARTCHAR U_3869
ENCODING 14441
SWIDTH 1000 0
DWIDTH 12 0
BBX 11 11 0 -1
BITMAP 
4440
EEE0
4040
AEA0
E0E0
5F40
AAA0
FFE0
4440
44C0
0400
ENDCHAR
STARTCHAR U_386A
ENCODING 14442
SWIDTH 1000 0
DWIDTH 12 0
BBX 11 11 0 -1
BITMAP 
27E0
2540
FFE0
A820
AFE0
AAA0
AEA0
BBC0
AE60
2980
3660
ENDCHAR
STARTCHAR U_386B
ENCODING 14443
SWIDTH 1000 0
DWIDTH 12 0
BBX 11 11 0 -1
BITMAP 
07C0
2440
27C0
4440
D7E0
5520
2920
26A0
5460
F7A0
4060
ENDCHAR
STARTCHAR U_386C
ENCODING 14444
SWIDTH 1000 0
DWIDTH 12 0
BBX 11 11 0 -1
BITMAP 
2440
54A0
E5C0
54A0
F5E0
0480
FFE0
4240
7A80
49A0
9E60
ENDCHAR
STARTCHAR U_386D
ENCODING 14445
SWIDTH 1000 0
DWIDTH 12 0
BBX 11 11 0 -1
BITMAP 
9080
A940
B9C0
9080
A940
FFE0
9080
A940
9080
A940
FFE0
ENDCHAR
STARTCHAR U_386E
ENCODING 14446
SWIDTH 1000 0
DWIDTH 12 0
BBX 11 11 0 -1
BITMAP 
5480
FEE0
5500
FEE0
1400
7EE0
4820
6840
5A80
4D20
B4E0
ENDCHAR
STARTCHAR U_386F
ENCODING 14447
SWIDTH 1000 0
DWIDTH 12 0
BBX 11 11 0 -1
BITMAP 
0400
7FE0
4080
4F00
4200
4200
5FC0
4200
4200
4220
83E0
ENDCHAR
STARTCHAR U_3870
ENCODING 14448
SWIDTH 1000 0
DWIDTH 12 0
BBX 11 11 0 -1
BITMAP 
0200
7FE0
4000
5FC0
4200
4200
7FE0
4200
4200
4200
8600
ENDCHAR
STARTCHAR U_3871
ENCODING 14449
SWIDTH 1000 0
DWIDTH 12 0
BBX 11 11 0 -1
BITMAP 
0200
7FE0
4000
4400
4780
4880
4900
5100
4280
4480
9860
ENDCHAR
STARTCHAR U_3872
ENCODING 14450
SWIDTH 1000 0
DWIDTH 12 0
BBX 11 11 0 -1
BITMAP 
0200
7FE0
4280
4240
5FE0
4200
4240
4280
4100
42A0
8C60
ENDCHAR
STARTCHAR U_3873
ENCODING 14451
SWIDTH 1000 0
DWIDTH 12 0
BBX 11 11 0 -1
BITMAP 
0200
7FE0
4000
5FC0
5200
5200
5FC0
5100
5120
54A0
9860
ENDCHAR
STARTCHAR U_3874
ENCODING 14452
SWIDTH 1000 0
DWIDTH 12 0
BBX 11 11 0 -1
BITMAP 
0200
7FE0
4400
4200
5FC0
4000
4880
4480
4500
4000
BFE0
ENDCHAR
STARTCHAR U_3875
ENCODING 14453
SWIDTH 1000 0
DWIDTH 12 0
BBX 11 11 0 -1
BITMAP 
0200
7FE0
4200
4500
4880
7760
4000
4FC0
4080
4300
8100
ENDCHAR
STARTCHAR U_3876
ENCODING 14454
SWIDTH 1000 0
DWIDTH 12 0
BBX 11 11 0 -1
BITMAP 
0200
7FE0
4000
4FC0
4840
4840
4FC0
4000
4480
4440
8840
ENDCHAR
STARTCHAR U_3877
ENCODING 14455
SWIDTH 1000 0
DWIDTH 12 0
BBX 11 11 0 -1
BITMAP 
0200
7FE0
4000
4200
5FC0
4200
4700
4A80
5240
6FA0
8200
ENDCHAR
STARTCHAR U_3878
ENCODING 14456
SWIDTH 1000 0
DWIDTH 12 0
BBX 11 11 0 -1
BITMAP 
0200
7FE0
4400
4400
4FE0
5200
43C0
4200
43C0
4200
8200
ENDCHAR
STARTCHAR U_3879
ENCODING 14457
SWIDTH 1000 0
DWIDTH 12 0
BBX 11 11 0 -1
BITMAP 
0200
7FE0
4000
4F80
4880
4F80
4880
4F80
4880
4880
BFE0
ENDCHAR
STARTCHAR U_387A
ENCODING 14458
SWIDTH 1000 0
DWIDTH 12 0
BBX 11 11 0 -1
BITMAP 
0200
7FE0
4000
5FC0
5040
5FC0
5040
5040
5FC0
4000
BFE0
ENDCHAR
STARTCHAR U_387B
ENCODING 14459
SWIDTH 1000 0
DWIDTH 12 0
BBX 11 11 0 -1
BITMAP 
0200
7FE0
4400
59E0
5520
5520
5520
5DA0
5560
4500
8900
ENDCHAR
STARTCHAR U_387C
ENCODING 14460
SWIDTH 1000 0
DWIDTH 12 0
BBX 11 11 0 -1
BITMAP 
0400
7FE0
4200
5FC0
5240
5FC0
5240
5FC0
4280
4320
9DE0
ENDCHAR
STARTCHAR U_387D
ENCODING 14461
SWIDTH 1000 0
DWIDTH 12 0
BBX 11 11 0 -1
BITMAP 
0400
7FE0
4200
5FC0
4240
7FE0
4240
5FC0
4200
BFE0
8200
ENDCHAR
STARTCHAR U_387E
ENCODING 14462
SWIDTH 1000 0
DWIDTH 12 0
BBX 11 11 0 -1
BITMAP 
0400
7FE0
4000
5FC0
5040
5FC0
5040
5FC0
5240
9580
98E0
ENDCHAR
STARTCHAR U_387F
ENCODING 14463
SWIDTH 1000 0
DWIDTH 12 0
BBX 11 11 0 -1
BITMAP 
0200
7FE0
5040
4880
7FE0
4200
5240
5FC0
4200
4400
9800
ENDCHAR
STARTCHAR U_3880
ENCODING 14464
SWIDTH 1000 0
DWIDTH 12 0
BBX 11 11 0 -1
BITMAP 
0400
7FE0
4200
7FE0
4200
5FC0
5240
52C0
4700
4A80
B260
ENDCHAR
STARTCHAR U_3881
ENCODING 14465
SWIDTH 1000 0
DWIDTH 12 0
BBX 11 11 0 -1
BITMAP 
0200
3FE0
2200
27C0
2C40
2380
2E00
21E0
4E20
41C0
8F00
ENDCHAR
STARTCHAR U_3882
ENCODING 14466
SWIDTH 1000 0
DWIDTH 12 0
BBX 11 11 0 -1
BITMAP 
0200
3FE0
2200
2400
2FC0
2840
2FC0
2800
4FC0
4840
8FC0
ENDCHAR
STARTCHAR U_3883
ENCODING 14467
SWIDTH 1000 0
DWIDTH 12 0
BBX 11 11 0 -1
BITMAP 
0200
3FE0
2400
2FC0
2840
2FC0
2840
2FC0
4A40
4980
8CE0
ENDCHAR
STARTCHAR U_3884
ENCODING 14468
SWIDTH 1000 0
DWIDTH 12 0
BBX 11 11 0 -1
BITMAP 
0200
7FE0
4000
5FC0
4000
4F80
4880
4F80
4880
4500
BFE0
ENDCHAR
STARTCHAR U_3885
ENCODING 14469
SWIDTH 1000 0
DWIDTH 12 0
BBX 11 11 0 -1
BITMAP 
0200
7FE0
4000
5FC0
4200
5FC0
4200
5FC0
4880
7FE0
9080
ENDCHAR
STARTCHAR U_3886
ENCODING 14470
SWIDTH 1000 0
DWIDTH 12 0
BBX 11 11 0 -1
BITMAP 
0200
7FE0
5240
5FC0
5240
5FC0
4200
5FC0
4200
8200
BFE0
ENDCHAR
STARTCHAR U_3887
ENCODING 14471
SWIDTH 1000 0
DWIDTH 12 0
BBX 11 11 0 -1
BITMAP 
0200
3FE0
2100
2FE0
2000
27C0
2000
27C0
4440
4440
87C0
ENDCHAR
STARTCHAR U_3888
ENCODING 14472
SWIDTH 1000 0
DWIDTH 12 0
BBX 11 11 0 -1
BITMAP 
0200
7FE0
4900
4880
5BE0
6880
4BE0
4880
4BE0
4880
8BE0
ENDCHAR
STARTCHAR U_3889
ENCODING 14473
SWIDTH 1000 0
DWIDTH 12 0
BBX 11 11 0 -1
BITMAP 
0200
7FE0
4400
5860
4B80
7C80
4BE0
5C80
6A80
48A0
88E0
ENDCHAR
STARTCHAR U_388A
ENCODING 14474
SWIDTH 1000 0
DWIDTH 12 0
BBX 11 11 0 -1
BITMAP 
0200
3FE0
2100
2FE0
2280
2440
2FE0
2540
4740
4040
80C0
ENDCHAR
STARTCHAR U_388B
ENCODING 14475
SWIDTH 1000 0
DWIDTH 12 0
BBX 11 11 0 -1
BITMAP 
0200
3FE0
2480
25E0
2A40
3980
2B40
28E0
4B20
48C0
8B00
ENDCHAR
STARTCHAR U_388C
ENCODING 14476
SWIDTH 1000 0
DWIDTH 12 0
BBX 11 11 0 -1
BITMAP 
0200
7FE0
4000
5FE0
5440
59C0
5540
55C0
5C40
50C0
9040
ENDCHAR
STARTCHAR U_388D
ENCODING 14477
SWIDTH 1000 0
DWIDTH 12 0
BBX 11 11 0 -1
BITMAP 
0200
7FE0
4880
5DC0
4A80
4200
4F80
4A80
7FE0
4480
9840
ENDCHAR
STARTCHAR U_388E
ENCODING 14478
SWIDTH 1000 0
DWIDTH 12 0
BBX 11 11 0 -1
BITMAP 
0200
3FE0
2000
2FE0
2100
2FE0
2500
2920
4D60
4920
8FE0
ENDCHAR
STARTCHAR U_388F
ENCODING 14479
SWIDTH 1000 0
DWIDTH 12 0
BBX 11 11 0 -1
BITMAP 
0200
7FE0
4200
4500
58C0
6760
5C40
5540
5D40
5440
ACC0
ENDCHAR
STARTCHAR U_3890
ENCODING 14480
SWIDTH 1000 0
DWIDTH 12 0
BBX 11 11 0 -1
BITMAP 
0400
7FE0
4000
4F80
4880
4B80
4A80
5FE0
54A0
97A0
9060
ENDCHAR
STARTCHAR U_3891
ENCODING 14481
SWIDTH 1000 0
DWIDTH 12 0
BBX 11 11 0 -1
BITMAP 
0400
7FE0
4900
7FE0
5100
5FC0
5100
5FE0
4100
BFE0
8100
ENDCHAR
STARTCHAR U_3892
ENCODING 14482
SWIDTH 1000 0
DWIDTH 12 0
BBX 11 11 0 -1
BITMAP 
0200
7FE0
4500
5FE0
52A0
5FC0
5580
5680
5580
9680
AFE0
ENDCHAR
STARTCHAR U_3893
ENCODING 14483
SWIDTH 1000 0
DWIDTH 12 0
BBX 11 11 0 -1
BITMAP 
0400
7FE0
4200
5FC0
4500
7FE0
4880
4F80
4880
BFE0
8200
ENDCHAR
STARTCHAR U_3894
ENCODING 14484
SWIDTH 1000 0
DWIDTH 12 0
BBX 11 11 0 -1
BITMAP 
0200
7FE0
4A40
5240
6340
4CA0
5000
7280
52E0
5380
94E0
ENDCHAR
STARTCHAR U_3895
ENCODING 14485
SWIDTH 1000 0
DWIDTH 12 0
BBX 11 11 0 -1
BITMAP 
0200
7FE0
4940
52E0
7E40
4AE0
5240
7EE0
4A40
5240
A2E0
ENDCHAR
STARTCHAR U_3896
ENCODING 14486
SWIDTH 1000 0
DWIDTH 12 0
BBX 11 11 0 -1
BITMAP 
0400
7FE0
4000
5FC0
4A80
7FE0
4700
5AC0
6FA0
8A80
8F80
ENDCHAR
STARTCHAR U_3897
ENCODING 14487
SWIDTH 1000 0
DWIDTH 12 0
BBX 11 11 0 -1
BITMAP 
0200
7FE0
4000
5FC0
4400
7FE0
5540
7FE0
5540
9740
90C0
ENDCHAR
STARTCHAR U_3898
ENCODING 14488
SWIDTH 1000 0
DWIDTH 12 0
BBX 11 11 0 -1
BITMAP 
0400
7FE0
4880
7FE0
4500
5FC0
4540
7FE0
4540
9FC0
92A0
ENDCHAR
STARTCHAR U_3899
ENCODING 14489
SWIDTH 1000 0
DWIDTH 12 0
BBX 11 11 0 -1
BITMAP 
0200
7FE0
5480
7E80
55E0
7EA0
6AA0
7EA0
48A0
4D20
BA60
ENDCHAR
STARTCHAR U_389A
ENCODING 14490
SWIDTH 1000 0
DWIDTH 12 0
BBX 11 11 0 -1
BITMAP 
0400
7FE0
4200
5FE0
5220
5FC0
5540
57C0
5540
AFC0
A440
ENDCHAR
STARTCHAR U_389B
ENCODING 14491
SWIDTH 1000 0
DWIDTH 12 0
BBX 11 11 0 -1
BITMAP 
0400
7FE0
4200
4500
4880
7760
5DC0
5540
5DC0
8880
B560
ENDCHAR
STARTCHAR U_389C
ENCODING 14492
SWIDTH 1000 0
DWIDTH 12 0
BBX 11 11 0 -1
BITMAP 
0400
7FE0
4880
7FE0
4880
5FC0
5240
5FC0
4A40
A8A0
A7A0
ENDCHAR
STARTCHAR U_389D
ENCODING 14493
SWIDTH 1000 0
DWIDTH 12 0
BBX 11 11 0 -1
BITMAP 
0400
FFE0
9C40
A580
BE80
EBE0
BE80
AA80
BFC0
AAA0
D580
ENDCHAR
STARTCHAR U_389E
ENCODING 14494
SWIDTH 1000 0
DWIDTH 12 0
BBX 11 11 0 -1
BITMAP 
0400
7FE0
6940
58C0
6940
5FC0
5240
7FE0
4880
BFE0
9040
ENDCHAR
STARTCHAR U_389F
ENCODING 14495
SWIDTH 1000 0
DWIDTH 12 0
BBX 11 11 0 -1
BITMAP 
0100
F100
2100
4100
F5C0
1500
1500
9500
6FE0
2000
DFE0
ENDCHAR
STARTCHAR U_38A0
ENCODING 14496
SWIDTH 1000 0
DWIDTH 12 0
BBX 11 11 0 -1
BITMAP 
0FE0
E820
2BA0
4AA0
8AA0
EBA0
2AA0
A820
4860
6000
9FE0
ENDCHAR
STARTCHAR U_38A1
ENCODING 14497
SWIDTH 1000 0
DWIDTH 12 0
BBX 11 11 0 -1
BITMAP 
49E0
7AA0
09C0
7E40
4BE0
8940
10C0
1080
FFE0
1080
6080
ENDCHAR
STARTCHAR U_38A2
ENCODING 14498
SWIDTH 1000 0
DWIDTH 12 0
BBX 11 11 0 -1
BITMAP 
9280
5500
FFE0
8240
BB40
AA80
BB60
2100
FFE0
2100
4100
ENDCHAR
STARTCHAR U_38A3
ENCODING 14499
SWIDTH 1000 0
DWIDTH 12 0
BBX 11 11 0 -1
BITMAP 
EF00
29E0
7F40
8540
7480
5540
7E20
1080
FFE0
1080
2080
ENDCHAR
STARTCHAR U_38A4
ENCODING 14500
SWIDTH 1000 0
DWIDTH 12 0
BBX 11 11 0 -1
BITMAP 
1100
1140
7D20
1100
FFE0
2100
3D00
2500
2480
44A0
8C60
ENDCHAR
STARTCHAR U_38A5
ENCODING 14501
SWIDTH 1000 0
DWIDTH 12 0
BBX 11 11 0 -1
BITMAP 
FEC0
82A0
FE80
83E0
BA80
AA80
AA80
AA80
BA80
8260
8620
ENDCHAR
STARTCHAR U_38A6
ENCODING 14502
SWIDTH 1000 0
DWIDTH 12 0
BBX 11 11 0 -1
BITMAP 
FD40
0920
E900
ABE0
FD00
0900
E900
A880
E8A0
0860
1820
ENDCHAR
STARTCHAR U_38A7
ENCODING 14503
SWIDTH 1000 0
DWIDTH 12 0
BBX 11 11 0 -1
BITMAP 
3FC0
0040
0040
1FC0
1000
2000
3FE0
0020
7F20
0020
03C0
ENDCHAR
STARTCHAR U_38A8
ENCODING 14504
SWIDTH 1000 0
DWIDTH 12 0
BBX 11 11 0 -1
BITMAP 
F7C0
1100
1100
F100
8FE0
8100
F100
1100
1100
5100
2100
ENDCHAR
STARTCHAR U_38A9
ENCODING 14505
SWIDTH 1000 0
DWIDTH 12 0
BBX 11 11 0 -1
BITMAP 
F200
1200
13E0
F420
8020
8220
F120
1120
1020
50A0
2040
ENDCHAR
STARTCHAR U_38AA
ENCODING 14506
SWIDTH 1000 0
DWIDTH 12 0
BBX 11 11 0 -1
BITMAP 
F3C0
1000
1000
F7E0
8200
8200
F3C0
1040
1040
5140
2080
ENDCHAR
STARTCHAR U_38AB
ENCODING 14507
SWIDTH 1000 0
DWIDTH 12 0
BBX 11 11 0 -1
BITMAP 
F080
1080
1080
F080
84A0
84A0
F4A0
14A0
14A0
54A0
27E0
ENDCHAR
STARTCHAR U_38AC
ENCODING 14508
SWIDTH 1000 0
DWIDTH 12 0
BBX 11 11 0 -1
BITMAP 
F100
1100
1FE0
7100
8100
8240
F240
1280
1480
1920
63E0
ENDCHAR
STARTCHAR U_38AD
ENCODING 14509
SWIDTH 1000 0
DWIDTH 12 0
BBX 11 11 0 -1
BITMAP 
F100
1100
11C0
F100
8100
87C0
F440
1440
1280
5100
26E0
ENDCHAR
STARTCHAR U_38AE
ENCODING 14510
SWIDTH 1000 0
DWIDTH 12 0
BBX 11 11 0 -1
BITMAP 
F400
1400
1FE0
F500
8500
8FE0
F520
1540
1400
5420
23E0
ENDCHAR
STARTCHAR U_38AF
ENCODING 14511
SWIDTH 1000 0
DWIDTH 12 0
BBX 11 11 0 -1
BITMAP 
F7E0
1420
1420
77E0
8480
8480
F7E0
1480
14A0
5660
2420
ENDCHAR
STARTCHAR U_38B0
ENCODING 14512
SWIDTH 1000 0
DWIDTH 12 0
BBX 11 11 0 -1
BITMAP 
0100
E100
2FE0
2920
E900
8FC0
EC40
2A80
2900
AA80
5460
ENDCHAR
STARTCHAR U_38B1
ENCODING 14513
SWIDTH 1000 0
DWIDTH 12 0
BBX 11 11 0 -1
BITMAP 
F100
1100
1200
F440
8FE0
8120
F100
1540
1520
5B20
2100
ENDCHAR
STARTCHAR U_38B2
ENCODING 14514
SWIDTH 1000 0
DWIDTH 12 0
BBX 11 11 0 -1
BITMAP 
7BC0
0840
7BC0
4200
7BC0
0840
18C0
FFE0
0000
1100
2080
ENDCHAR
STARTCHAR U_38B3
ENCODING 14515
SWIDTH 1000 0
DWIDTH 12 0
BBX 11 11 0 -1
BITMAP 
0200
F200
17E0
7400
48C0
7700
1520
14C0
1480
5440
2620
ENDCHAR
STARTCHAR U_38B4
ENCODING 14516
SWIDTH 1000 0
DWIDTH 12 0
BBX 11 11 0 -1
BITMAP 
7FC0
0040
3FC0
4000
7FE0
2320
3520
2B20
3520
3F20
00C0
ENDCHAR
STARTCHAR U_38B5
ENCODING 14517
SWIDTH 1000 0
DWIDTH 12 0
BBX 11 11 0 -1
BITMAP 
F100
1100
1280
F440
8BA0
8000
F7C0
1440
1440
57C0
2440
ENDCHAR
STARTCHAR U_38B6
ENCODING 14518
SWIDTH 1000 0
DWIDTH 12 0
BBX 11 11 0 -1
BITMAP 
FFE0
1100
1200
F7C0
8440
8440
F7C0
1440
1440
97C0
6440
ENDCHAR
STARTCHAR U_38B7
ENCODING 14519
SWIDTH 1000 0
DWIDTH 12 0
BBX 11 11 0 -1
BITMAP 
F080
14A0
14A0
F7E0
8100
81E0
F220
1520
10C0
5080
2700
ENDCHAR
STARTCHAR U_38B8
ENCODING 14520
SWIDTH 1000 0
DWIDTH 12 0
BBX 11 11 0 -1
BITMAP 
D900
4900
D9E0
9240
D840
4940
4940
4940
4880
6940
9620
ENDCHAR
STARTCHAR U_38B9
ENCODING 14521
SWIDTH 1000 0
DWIDTH 12 0
BBX 11 11 0 -1
BITMAP 
F100
1FE0
1440
7280
4FE0
7100
1FE0
1100
1100
5100
2100
ENDCHAR
STARTCHAR U_38BA
ENCODING 14522
SWIDTH 1000 0
DWIDTH 12 0
BBX 11 11 0 -1
BITMAP 
F100
1FE0
F440
8FE0
F200
1FE0
1240
1740
1080
A140
4620
ENDCHAR
STARTCHAR U_38BB
ENCODING 14523
SWIDTH 1000 0
DWIDTH 12 0
BBX 11 11 0 -1
BITMAP 
F0C0
1700
7100
4FE0
7340
1D20
1280
1FE0
1280
5180
2660
ENDCHAR
STARTCHAR U_38BC
ENCODING 14524
SWIDTH 1000 0
DWIDTH 12 0
BBX 11 11 0 -1
BITMAP 
0100
F520
1340
F7E0
8520
F520
17A0
1560
1520
5520
2540
ENDCHAR
STARTCHAR U_38BD
ENCODING 14525
SWIDTH 1000 0
DWIDTH 12 0
BBX 11 11 0 -1
BITMAP 
E0E0
3F20
2A20
EEE0
8A80
8E80
EAE0
2E20
3A20
A2A0
4240
ENDCHAR
STARTCHAR U_38BE
ENCODING 14526
SWIDTH 1000 0
DWIDTH 12 0
BBX 11 11 0 -1
BITMAP 
EFE0
2280
2FE0
EAA0
8AA0
8FE0
E100
27C0
2100
2100
6FE0
ENDCHAR
STARTCHAR U_38BF
ENCODING 14527
SWIDTH 1000 0
DWIDTH 12 0
BBX 11 11 0 -1
BITMAP 
EB80
2880
2FE0
EA00
9BC0
8D00
E900
2FE0
2900
2A80
CC60
ENDCHAR
STARTCHAR U_38C0
ENCODING 14528
SWIDTH 1000 0
DWIDTH 12 0
BBX 11 11 0 -1
BITMAP 
F100
1FE0
1100
F7C0
8540
86C0
F540
1640
1FE0
1440
6820
ENDCHAR
STARTCHAR U_38C1
ENCODING 14529
SWIDTH 1000 0
DWIDTH 12 0
BBX 11 11 0 -1
BITMAP 
0280
F7C0
1280
7FE0
4400
77C0
1D40
17C0
1540
57C0
2540
ENDCHAR
STARTCHAR U_38C2
ENCODING 14530
SWIDTH 1000 0
DWIDTH 12 0
BBX 11 11 0 -1
BITMAP 
EFE0
27C0
E440
87C0
E000
2FE0
2C60
2AA0
2FE0
A920
4920
ENDCHAR
STARTCHAR U_38C3
ENCODING 14531
SWIDTH 1000 0
DWIDTH 12 0
BBX 11 11 0 -1
BITMAP 
E4E0
3F20
EAE0
9F80
E1E0
2E20
2A20
2E20
2A20
AEA0
5240
ENDCHAR
STARTCHAR U_38C4
ENCODING 14532
SWIDTH 1000 0
DWIDTH 12 0
BBX 11 11 0 -1
BITMAP 
E9E0
25C0
E920
83E0
ED00
25E0
2100
2FE0
2380
A540
4920
ENDCHAR
STARTCHAR U_38C5
ENCODING 14533
SWIDTH 1000 0
DWIDTH 12 0
BBX 11 11 0 -1
BITMAP 
EEE0
3540
3FE0
E440
8D40
92A0
EFC0
2840
2FC0
2840
CFC0
ENDCHAR
STARTCHAR U_38C6
ENCODING 14534
SWIDTH 1000 0
DWIDTH 12 0
BBX 11 11 0 -1
BITMAP 
EFE0
2540
2FE0
ED60
8BA0
8000
EFE0
2100
27C0
2100
CFE0
ENDCHAR
STARTCHAR U_38C7
ENCODING 14535
SWIDTH 1000 0
DWIDTH 12 0
BBX 11 11 0 -1
BITMAP 
1000
1F80
1080
FFE0
2A00
D200
3FC0
D240
1240
12C0
0200
ENDCHAR
STARTCHAR U_38C8
ENCODING 14536
SWIDTH 1000 0
DWIDTH 12 0
BBX 11 11 0 -1
BITMAP 
39C0
4A40
FFE0
5140
A680
4100
A280
FBE0
AAA0
BAE0
2080
ENDCHAR
STARTCHAR U_38C9
ENCODING 14537
SWIDTH 1000 0
DWIDTH 12 0
BBX 11 11 0 -1
BITMAP 
0020
FC40
1080
1120
1040
1080
1100
1420
3840
C080
0300
ENDCHAR
STARTCHAR U_38CA
ENCODING 14538
SWIDTH 1000 0
DWIDTH 12 0
BBX 11 11 0 -1
BITMAP 
0400
0F80
1900
2600
0900
32E0
CD00
0200
1C80
0300
1C00
ENDCHAR
STARTCHAR U_38CB
ENCODING 14539
SWIDTH 1000 0
DWIDTH 12 0
BBX 11 11 0 -1
BITMAP 
4440
FE40
4480
5500
4440
FE80
4520
4420
4440
4480
8300
ENDCHAR
STARTCHAR U_38CC
ENCODING 14540
SWIDTH 1000 0
DWIDTH 12 0
BBX 11 11 0 -1
BITMAP 
2040
2080
3900
2240
2040
2080
F920
8A20
8840
8880
FB00
ENDCHAR
STARTCHAR U_38CD
ENCODING 14541
SWIDTH 1000 0
DWIDTH 12 0
BBX 11 11 0 -1
BITMAP 
2020
2040
4080
8520
FC40
0080
FD20
8420
8440
8480
FD00
ENDCHAR
STARTCHAR U_38CE
ENCODING 14542
SWIDTH 1000 0
DWIDTH 12 0
BBX 11 11 0 -1
BITMAP 
3F80
6080
3F80
2080
3F80
2580
DC40
0320
3C80
0300
7C00
ENDCHAR
ENDFONT
